<svg width="320" height="200" viewBox="0 0 320 200" fill="none" xmlns="http://www.w3.org/2000/svg">
<g opacity="0.1">
<rect x="5.24591" y="11" width="309.508" height="6" rx="3" fill="#F57760"/>
<rect opacity="0.6" x="33.5375" y="29" width="187.964" height="6.26913" rx="3.13456" fill="#F57760"/>
<rect x="227.267" y="29" width="59.1952" height="6.26913" rx="3.13456" fill="#F57760"/>
<rect x="0.576599" y="47.2691" width="253.886" height="6.26913" rx="3.13456" fill="#F57760"/>
<rect opacity="0.6" x="260.228" y="47.2691" width="59.1952" height="6.26913" rx="3.13456" fill="#F57760"/>
<rect width="201.61" height="6.26913" rx="3.13456" transform="matrix(-1 0 0 1 312.12 65.5383)" fill="#F57760"/>
<rect width="96.8649" height="6.26913" rx="3.13456" transform="matrix(-1 0 0 1 104.745 65.5383)" fill="#F57760"/>
<rect opacity="0.6" x="33.2241" y="83.8074" width="253.552" height="6" rx="3" fill="#F57760"/>
<rect width="253.886" height="6.26913" rx="3.13456" transform="matrix(-1 0 0 1 319.423 101.807)" fill="#F57760"/>
<rect width="59.1952" height="6.26913" rx="3.13456" transform="matrix(-1 0 0 1 59.7718 101.807)" fill="#F57760"/>
<rect x="6.99451" y="120.077" width="306.011" height="6" rx="3" fill="#F57760"/>
<rect opacity="0.6" width="187.964" height="6.26913" rx="3.13456" transform="matrix(-1 0 0 1 286.462 138.077)" fill="#F57760"/>
<rect width="59.1952" height="6.26913" rx="3.13456" transform="matrix(-1 0 0 1 92.7327 138.077)" fill="#F57760"/>
<rect x="0.576599" y="156.346" width="253.886" height="6.26913" rx="3.13456" fill="#F57760"/>
<rect x="260.228" y="156.346" width="59.1952" height="6.26913" rx="3.13456" fill="#F57760"/>
<rect opacity="0.6" y="174.615" width="320" height="7" rx="3.5" fill="#F57760"/>
<rect y="193.615" width="320" height="6" rx="3" fill="#F57760"/>
</g>
<path d="M127.396 74.3072C127.76 74.3059 127.76 74.3059 128.132 74.3046C128.527 74.3055 128.527 74.3055 128.929 74.3065C129.349 74.3057 129.349 74.3057 129.777 74.3049C130.701 74.3035 131.626 74.3044 132.55 74.3054C133.192 74.3052 133.835 74.3049 134.477 74.3046C135.824 74.3041 137.17 74.3048 138.516 74.3062C140.242 74.3079 141.968 74.3069 143.694 74.3051C145.021 74.304 146.348 74.3043 147.674 74.3051C148.311 74.3053 148.947 74.3051 149.584 74.3044C150.473 74.3036 151.362 74.3048 152.252 74.3065C152.515 74.3059 152.778 74.3052 153.049 74.3046C153.292 74.3055 153.535 74.3063 153.785 74.3072C153.995 74.3073 154.206 74.3074 154.422 74.3075C155.088 74.349 155.706 74.4881 156.357 74.6474C156.794 74.6943 157.232 74.7314 157.67 74.76C157.924 74.7772 158.178 74.7943 158.44 74.812C158.847 74.8379 158.847 74.8379 159.262 74.8644C159.544 74.8834 159.826 74.9023 160.116 74.9218C161.016 74.9823 161.916 75.0414 162.816 75.1002C163.715 75.1591 164.613 75.2183 165.511 75.2786C166.069 75.3161 166.628 75.3528 167.186 75.3885C168.537 75.4791 169.858 75.6199 171.197 75.855C171.681 75.9074 172.165 75.9544 172.65 75.9953C172.917 76.0184 173.185 76.0416 173.46 76.0655C173.881 76.1014 173.881 76.1014 174.31 76.138C176.41 76.3244 178.508 76.5182 180.604 76.7606C180.895 76.7927 180.895 76.7927 181.193 76.8254C182.139 76.9387 183.047 77.1033 183.973 77.3573C185.532 77.7705 187.112 77.9091 188.703 78.0814C191.173 78.3662 193.624 78.7062 196.073 79.1757C196.437 79.2454 196.437 79.2454 196.81 79.3165C198.139 79.5797 199.456 79.8844 200.773 80.2146C203.137 80.7997 205.52 81.2379 207.907 81.6812C210.807 82.2221 213.657 82.8987 216.51 83.704C216.51 83.9033 216.51 84.1025 216.51 84.3078C216.783 84.3265 217.056 84.3451 217.338 84.3644C222.043 85.0602 226.629 88.2695 230.289 91.5531C230.529 91.7667 230.769 91.9803 231.016 92.2005C234.659 95.6849 237.097 100.605 237.542 106.035C237.658 110.423 236.768 114.072 234.264 117.515C234.093 117.762 233.922 118.01 233.746 118.264C231.714 121.034 228.983 123.373 226.05 124.761C225.787 124.761 225.525 124.761 225.255 124.761C225.255 124.96 225.255 125.159 225.255 125.364C224.01 126.003 222.803 126.496 221.478 126.893C221.001 127.038 221.001 127.038 220.514 127.186C220.151 127.285 219.788 127.382 219.425 127.478C219.219 127.533 219.014 127.589 218.802 127.646C216.762 128.14 214.748 128.164 212.674 128.143C212.093 128.138 211.513 128.137 210.933 128.137C206.963 128.127 203.046 127.78 199.105 127.256C198.071 127.121 197.036 126.998 196.001 126.874C195.586 126.824 195.17 126.773 194.754 126.723C194.127 126.647 193.5 126.571 192.873 126.496C190.882 126.259 188.899 126.021 186.924 125.64C184.972 125.282 183.025 125.228 181.051 125.176C180.684 125.164 180.316 125.152 179.949 125.14C179.063 125.112 178.177 125.086 177.292 125.062C177.204 125.361 177.117 125.66 177.027 125.968C177.027 125.769 177.027 125.57 177.027 125.364C176.763 125.381 176.499 125.398 176.226 125.415C176.051 125.426 175.875 125.437 175.694 125.449C175.501 125.461 175.307 125.473 175.107 125.486C171.297 125.727 171.297 125.727 170.669 125.767C170.247 125.793 169.826 125.82 169.404 125.847C168.333 125.915 167.262 125.982 166.191 126.046C164.223 126.165 162.259 126.286 160.299 126.534C158.667 126.731 157.035 126.915 155.401 127.083C150.547 127.578 150.547 127.578 145.708 128.232C145.492 128.264 145.275 128.296 145.052 128.329C143.844 128.523 142.672 128.797 141.486 129.126C139.493 129.664 137.487 129.954 135.456 130.232C134.913 130.309 134.369 130.386 133.825 130.463C133.336 130.532 132.847 130.6 132.358 130.668C132.058 130.711 131.758 130.754 131.448 130.798C130.94 130.862 130.94 130.862 130.421 130.928C130.148 130.985 129.875 131.042 129.593 131.1C129.506 131.299 129.419 131.499 129.328 131.704C128.682 131.849 128.06 131.958 127.407 132.044C127.23 132.07 127.053 132.096 126.87 132.123C125.918 132.257 124.988 132.337 124.029 132.308C123.955 132.485 123.881 132.662 123.806 132.845C123.516 133.478 123.202 134.015 122.826 134.584C122.695 134.782 122.564 134.981 122.429 135.186C122.29 135.394 122.151 135.603 122.008 135.817C121.794 136.139 121.794 136.139 121.576 136.468C117.461 142.651 117.461 142.651 116.079 143.176C114.896 143.303 114.013 143.274 113.033 142.444C112.522 141.834 112.189 141.171 111.814 140.443C110.81 138.614 109.616 137.163 108.262 135.666C108.046 135.42 107.829 135.174 107.607 134.921C106.432 133.602 105.263 132.442 103.889 131.402C103.145 130.837 102.467 130.227 101.77 129.591C101.319 129.21 100.866 128.833 100.411 128.459C100.157 128.248 99.9018 128.038 99.6393 127.821C99.1336 127.405 98.6272 126.991 98.1197 126.578C94.1937 123.367 90.3573 119.989 87.9901 115.1C87.7984 114.723 87.7984 114.723 87.6029 114.338C85.4674 109.88 85.7788 104.361 86.9084 99.5802C87.313 98.1265 87.6933 96.9839 88.5201 95.7795C88.7094 95.2795 88.898 94.7792 89.078 94.2747C89.5263 93.1238 90.0904 92.0406 90.64 90.9493C91.4711 91.2649 91.6368 91.4812 92.2299 92.1568C92.454 92.3 92.6781 92.4432 92.9089 92.5908C93.6316 93.1185 93.7761 93.3788 94.0848 94.27C94.1232 94.7601 94.156 95.2508 94.1842 95.7417C94.3579 96.8445 94.4871 97.1852 95.3001 97.8455C96.1213 98.2983 96.9521 98.7021 97.7947 99.1002C98.328 99.497 98.8581 99.8994 99.3846 100.308C100.346 100.933 101.323 101.524 102.3 102.119C102.638 102.33 102.977 102.54 103.316 102.751C103.667 102.968 104.018 103.185 104.37 103.402C104.535 103.505 104.699 103.608 104.869 103.714C105.611 104.169 106.321 104.551 107.122 104.85C107.886 105.146 108.362 105.384 108.924 106.044C109.048 106.795 109.048 106.795 109.057 107.647C109.134 109.222 109.342 109.99 110.249 111.176C110.643 111.475 110.643 111.475 111.044 111.779C111.044 111.979 111.044 112.178 111.044 112.383C113.289 112.549 113.289 112.549 115.433 111.93C116.524 110.655 117.077 109.443 117.238 107.666C117.136 106.62 116.999 105.792 116.609 104.836C116.259 104.627 115.905 104.427 115.549 104.232C114.637 103.467 113.769 102.643 112.899 101.817C112.631 101.568 112.363 101.319 112.088 101.062C111.368 100.005 111.368 99.2165 111.309 97.8927C111.134 97.8927 110.959 97.8927 110.779 97.8927C110.71 97.7101 110.641 97.5276 110.57 97.3395C110.248 96.5018 109.917 95.6691 109.587 94.8361C109.478 94.5489 109.369 94.2617 109.258 93.9658C108.458 91.9778 107.63 90.894 106.009 89.7417C104.797 88.7993 104.368 87.895 103.906 86.3455C103.38 84.7027 102.822 83.3783 101.796 82.0483C101.505 81.5908 101.505 81.5908 101.505 80.6851C101.679 80.6851 101.854 80.6851 102.035 80.6851C102.035 80.4859 102.035 80.2867 102.035 80.0814C102.185 80.0221 102.336 79.9628 102.492 79.9018C103.184 79.6291 103.876 79.3552 104.568 79.0814C104.806 78.9882 105.043 78.895 105.287 78.7989C106.318 78.3905 107.337 77.9804 108.333 77.4741C112.655 75.3964 118.109 75.2317 122.728 74.8425C122.983 74.8209 123.237 74.7994 123.499 74.7771C123.723 74.7592 123.947 74.7412 124.178 74.7227C124.824 74.661 124.824 74.661 125.449 74.4942C126.117 74.3522 126.717 74.3076 127.396 74.3072ZM118.199 92.1568C118.009 92.7948 118.009 92.7948 118.099 93.4398C118.132 93.8134 118.165 94.187 118.199 94.5719C119.317 95.2901 120.118 95.5908 121.4 95.5907C121.719 95.5929 122.038 95.5951 122.367 95.5973C122.715 95.5951 123.063 95.5928 123.422 95.5906C123.797 95.5914 124.172 95.5926 124.548 95.5942C125.578 95.5974 126.608 95.5949 127.638 95.5915C128.75 95.5889 129.861 95.5914 130.972 95.5933C133.149 95.5962 135.326 95.5942 137.503 95.5905C140.037 95.5864 142.571 95.5869 145.105 95.5875C149.627 95.5885 154.148 95.585 158.669 95.5791C163.057 95.5733 167.446 95.5712 171.835 95.5729C176.612 95.5747 181.39 95.5747 186.167 95.5712C186.677 95.5709 187.186 95.5705 187.695 95.5701C187.946 95.5699 188.196 95.5698 188.455 95.5696C190.222 95.5684 191.989 95.5685 193.756 95.5691C195.909 95.5697 198.062 95.5682 200.215 95.5638C201.313 95.5616 202.412 95.5604 203.511 95.5617C204.516 95.563 205.522 95.5614 206.527 95.5576C207.064 95.5563 207.601 95.558 208.138 95.5597C208.456 95.558 208.774 95.5562 209.102 95.5544C209.514 95.554 209.514 95.554 209.935 95.5536C210.726 95.4729 211.298 95.2818 212.005 94.8738C212.393 93.9905 212.388 93.438 212.27 92.4587C211.544 91.4451 211.08 91.0239 209.938 90.8106C208.973 90.7545 208.015 90.7497 207.049 90.7596C206.674 90.7581 206.299 90.7559 205.924 90.7531C204.894 90.7474 203.864 90.7511 202.835 90.7564C201.724 90.7604 200.613 90.7558 199.502 90.7522C197.326 90.7467 195.15 90.7492 192.975 90.7547C191.206 90.7589 189.438 90.7601 187.67 90.7591C187.418 90.7589 187.167 90.7588 186.908 90.7586C186.397 90.7583 185.886 90.758 185.374 90.7577C180.854 90.7551 176.335 90.7601 171.815 90.7691C167.428 90.7778 163.041 90.7799 158.654 90.7753C153.878 90.7702 149.102 90.769 144.327 90.7743C143.817 90.7748 143.308 90.7754 142.799 90.7759C142.548 90.7762 142.298 90.7765 142.04 90.7768C140.273 90.7785 138.507 90.7775 136.741 90.7755C134.589 90.7731 132.437 90.7752 130.284 90.7828C129.186 90.7865 128.088 90.7884 126.99 90.785C125.984 90.782 124.979 90.7845 123.974 90.7915C123.438 90.7938 122.902 90.7902 122.366 90.7864C120.062 90.7884 120.062 90.7884 118.199 92.1568ZM118.199 105.742C118.071 106.43 118.071 106.43 118.133 107.157C118.142 107.401 118.152 107.645 118.162 107.896C118.174 108.082 118.186 108.267 118.199 108.459C119.21 108.992 120.001 109.138 121.112 109.14C121.432 109.142 121.753 109.144 122.083 109.146C122.437 109.145 122.792 109.144 123.147 109.143C123.524 109.144 123.902 109.146 124.279 109.147C125.316 109.151 126.354 109.151 127.391 109.15C128.51 109.15 129.628 109.153 130.747 109.156C132.939 109.161 135.13 109.163 137.321 109.163C139.102 109.164 140.882 109.165 142.663 109.167C147.709 109.172 152.755 109.175 157.801 109.174C158.209 109.174 158.209 109.174 158.625 109.174C158.897 109.174 159.17 109.174 159.45 109.174C163.868 109.174 168.286 109.18 172.703 109.188C177.237 109.197 181.77 109.201 186.304 109.201C188.85 109.2 191.396 109.202 193.943 109.209C196.11 109.214 198.277 109.215 200.444 109.211C201.55 109.209 202.657 109.209 203.763 109.215C204.775 109.219 205.787 109.218 206.799 109.213C207.165 109.212 207.532 109.213 207.899 109.217C208.396 109.221 208.893 109.217 209.391 109.213C209.667 109.213 209.944 109.213 210.229 109.213C211.129 109.024 211.446 108.665 212.005 107.855C212.111 106.952 211.933 106.349 211.74 105.44C210.827 104.746 210.493 104.76 209.418 104.759C209.098 104.757 208.778 104.756 208.448 104.754C208.09 104.755 207.733 104.756 207.376 104.757C206.998 104.756 206.62 104.755 206.242 104.754C205.2 104.751 204.159 104.751 203.117 104.753C201.995 104.753 200.872 104.751 199.75 104.748C197.55 104.745 195.351 104.744 193.151 104.745C191.364 104.745 189.577 104.745 187.789 104.744C187.408 104.743 187.408 104.743 187.02 104.743C186.503 104.743 185.987 104.742 185.471 104.742C180.628 104.739 175.785 104.739 170.942 104.741C166.508 104.743 162.074 104.739 157.64 104.734C153.091 104.728 148.542 104.725 143.993 104.726C141.437 104.727 138.882 104.726 136.327 104.722C134.151 104.718 131.976 104.718 129.8 104.721C128.69 104.723 127.579 104.724 126.469 104.72C125.453 104.717 124.437 104.718 123.421 104.722C123.053 104.723 122.685 104.722 122.317 104.72C121.817 104.716 121.318 104.72 120.819 104.723C120.541 104.723 120.264 104.723 119.977 104.723C119.156 104.852 118.789 105.086 118.199 105.742ZM118.566 118.979C118.058 119.878 118.048 120.389 118.199 121.44C118.535 122.297 118.535 122.297 119.259 122.949C120.19 123.18 121.109 123.161 122.059 123.15C122.332 123.151 122.605 123.153 122.886 123.154C123.463 123.155 124.04 123.152 124.616 123.146C125.5 123.138 126.384 123.146 127.268 123.156C127.828 123.155 128.388 123.153 128.949 123.15C129.346 123.154 129.346 123.154 129.752 123.159C130.432 123.146 131.05 123.121 131.713 122.949C132.381 122.108 132.485 121.63 132.624 120.515C132.563 119.627 132.563 119.627 132.142 118.979C131.062 118.11 130.007 118.248 128.716 118.261C128.316 118.259 128.316 118.259 127.908 118.257C127.345 118.256 126.782 118.258 126.219 118.264C125.357 118.27 124.495 118.264 123.633 118.256C123.086 118.257 122.539 118.258 121.992 118.261C121.734 118.258 121.476 118.256 121.21 118.253C119.796 118.259 119.796 118.259 118.566 118.979Z" fill="#F57760"/>
<path d="M177.027 125.364C178.511 132.327 177.13 140.824 174.916 147.442C174.387 149.11 173.998 150.826 173.582 152.534C173.384 153.327 173.185 154.119 172.985 154.912C172.852 155.443 172.852 155.443 172.716 155.985C172.652 156.241 172.588 156.497 172.522 156.761C172.347 156.761 172.172 156.761 171.992 156.761C171.947 156.958 171.902 157.156 171.855 157.36C170.553 162.948 170.553 162.948 169.776 164.361C169.112 165.665 168.692 167.067 168.232 168.478C168.135 168.773 168.037 169.069 167.937 169.373C167.697 170.099 167.459 170.826 167.222 171.553C167.047 171.553 166.872 171.553 166.692 171.553C166.588 171.927 166.484 172.3 166.377 172.685C165.86 174.461 165.218 176.174 164.572 177.893C164.397 177.893 164.222 177.893 164.042 177.893C163.955 178.49 163.867 179.088 163.777 179.704C163.427 179.704 163.078 179.704 162.717 179.704C162.324 181.049 162.324 181.049 161.922 182.421C162.185 182.421 162.447 182.421 162.717 182.421C162.664 182.724 162.611 183.027 162.557 183.34C162.195 185.967 162.195 185.967 163.018 188.371C163.733 189.384 164.535 190.289 165.367 191.176C165.699 191.546 166.03 191.917 166.361 192.289C166.501 192.446 166.642 192.603 166.787 192.765C168.933 195.349 168.933 195.349 169.18 196.995C169.118 198.057 168.848 198.675 168.249 199.478C167.015 200.211 165.959 200.024 164.633 199.643C164.275 199.514 163.918 199.384 163.562 199.251C161.189 198.409 158.789 197.793 156.357 197.213C156.27 196.815 156.183 196.416 156.092 196.006C155.913 196.107 155.734 196.208 155.549 196.311C146.054 201.469 133.322 198.606 123.361 197.015C122.768 196.922 122.174 196.834 121.579 196.75C120.056 196.525 118.682 196.233 117.241 195.63C115.834 195.123 114.353 194.919 112.899 194.647C110.298 194.162 107.912 193.545 105.479 192.383C105.662 190.655 105.999 189.008 106.39 187.327C106.448 187.07 106.505 186.814 106.565 186.549C106.622 186.303 106.679 186.057 106.737 185.803C106.788 185.581 106.839 185.359 106.892 185.13C107.069 184.534 107.069 184.534 107.599 183.628C108.229 183.429 108.229 183.429 109.019 183.308C109.307 183.261 109.596 183.214 109.893 183.166C110.356 183.096 110.356 183.096 110.829 183.025C111.464 182.922 112.099 182.819 112.735 182.715C113.04 182.665 113.346 182.615 113.661 182.564C114.622 182.398 115.561 182.186 116.51 181.949C118.126 181.56 119.739 181.332 121.379 181.119C124.38 180.727 127.321 180.094 130.277 179.396C130.609 179.319 130.942 179.242 131.284 179.163C131.578 179.093 131.872 179.022 132.175 178.95C133.093 178.789 133.965 178.772 134.893 178.798C134.087 177.809 133.233 177.121 132.243 176.383C131.933 176.149 131.622 175.914 131.312 175.679C131.151 175.558 130.991 175.436 130.825 175.311C129.299 174.156 127.782 172.989 126.284 171.785C125.362 171.045 124.434 170.315 123.506 169.584C122.77 169.005 122.035 168.424 121.3 167.842C119.649 166.534 117.986 165.249 116.31 163.983C115.335 163.239 114.376 162.47 113.419 161.696C112.912 161.279 112.912 161.279 112.369 160.987C112.369 160.788 112.369 160.589 112.369 160.383C112.177 160.302 111.985 160.221 111.787 160.137C110.828 159.676 109.988 159.062 109.109 158.432C108.276 157.892 107.423 157.484 106.539 157.062C105.706 156.63 104.878 156.181 104.05 155.736C102.517 154.915 100.964 154.161 99.3951 153.435C98.9168 153.21 98.4386 152.986 97.9604 152.761C97.7233 152.653 97.4863 152.545 97.242 152.434C93.677 150.74 90.3282 147.384 88.5201 143.478C88.5201 143.278 88.5201 143.079 88.5201 142.874C88.3452 142.874 88.1704 142.874 87.9902 142.874C85.6921 137.038 85.1889 132.052 86.9302 125.968C87.7717 125.652 88.2135 125.678 89.0336 126.044C90.5946 126.689 92.1997 127.075 93.8199 127.478C93.8199 127.677 93.8199 127.876 93.8199 128.081C94.0789 128.117 94.3378 128.152 94.6045 128.189C95.7522 128.376 96.8473 128.718 97.9604 129.081C98.1691 129.15 98.3778 129.218 98.5928 129.288C99.0136 129.426 99.4343 129.564 99.8549 129.703C100.377 129.871 100.902 130.024 101.428 130.176C103.57 130.825 104.939 131.784 106.539 133.515C106.71 133.698 106.882 133.881 107.058 134.07C109.219 136.397 111.256 138.649 112.755 141.599C113.204 142.336 113.488 142.581 114.224 142.874C115.608 143.02 116.507 142.851 117.669 141.968C117.922 141.57 118.173 141.169 118.4 140.75C119.19 139.326 120.005 137.962 121.114 136.836C122.001 136.618 122.65 136.815 123.499 137.138C123.9 137.222 123.9 137.222 124.31 137.308C124.48 137.351 124.649 137.395 124.824 137.44C124.824 137.639 124.824 137.838 124.824 138.044C125.116 138.084 125.408 138.124 125.71 138.165C127.052 138.356 128.389 138.586 129.726 138.817C130.091 138.88 130.091 138.88 130.463 138.944C131.056 139.046 131.65 139.149 132.243 139.251C131.489 136.892 130.658 134.654 129.604 132.447C129.329 131.704 129.329 131.704 129.593 130.798C129.81 130.765 130.026 130.732 130.248 130.697C131.066 130.57 131.884 130.443 132.702 130.316C133.224 130.234 133.745 130.154 134.267 130.073C136.806 129.677 139.331 129.227 141.85 128.696C147.371 127.534 152.92 126.894 158.519 126.465C158.799 126.444 159.079 126.422 159.368 126.4C159.612 126.382 159.857 126.364 160.108 126.345C160.665 126.29 161.22 126.212 161.773 126.121C163.361 125.864 164.96 125.766 166.56 125.647C166.74 125.634 166.92 125.62 167.105 125.606C170.415 125.361 173.71 125.297 177.027 125.364ZM155.115 144.761C153.798 145.669 152.483 146.44 151.058 147.1C151.058 147.299 151.058 147.499 151.058 147.704C150.792 147.781 150.527 147.858 150.253 147.937C149.178 148.288 148.222 148.815 147.232 149.402C147.063 149.5 146.895 149.598 146.721 149.699C146.311 149.938 145.902 150.179 145.493 150.421C145.493 150.62 145.493 150.819 145.493 151.025C145.214 151.062 145.214 151.062 144.93 151.1C143.995 151.378 143.357 151.895 142.578 152.534C143.127 153.649 143.738 154.559 144.499 155.496C144.711 155.76 144.922 156.023 145.14 156.295C145.344 156.548 145.548 156.801 145.758 157.062C146.961 158.588 148.099 160.156 149.205 161.774C149.785 162.568 150.412 163.28 151.058 164.006C152.458 165.722 153.824 167.472 155.172 169.241C155.635 169.835 156.119 170.399 156.622 170.949C156.88 168.61 156.991 166.275 157.087 163.921C157.105 163.504 157.122 163.087 157.14 162.67C157.176 161.798 157.212 160.926 157.247 160.055C157.283 159.171 157.32 158.288 157.357 157.404C157.656 150.595 157.656 150.595 157.682 143.779C156.477 143.779 156.119 144.049 155.115 144.761Z" fill="#302F42"/>
<path d="M121.114 37.8173C121.65 37.8954 122.185 37.9781 122.72 38.0626C123.018 38.1081 123.317 38.1537 123.624 38.2006C124.452 38.3961 125.095 38.6991 125.858 39.096C127.091 39.6084 128.417 39.7626 129.709 39.9871C130.004 40.0406 130.299 40.0941 130.603 40.1493C131.326 40.2801 132.05 40.4084 132.773 40.5343C132.773 40.6339 132.773 40.7335 132.773 40.8362C132.161 40.9358 131.549 41.0354 130.918 41.1381C131.142 41.2583 131.365 41.3786 131.595 41.5025C132.031 41.7424 132.031 41.7424 132.475 41.9871C132.764 42.1447 133.053 42.3023 133.351 42.4647C134.098 42.9494 134.098 42.9494 134.628 43.8551C134.772 45.4698 134.656 47.0999 134.363 48.6852C134.626 48.7849 134.888 48.8845 135.158 48.9871C135.719 49.7061 136.178 50.4173 136.599 51.2513C137.088 52.1427 137.67 52.7929 138.338 53.5154C138.458 53.6835 138.578 53.8516 138.702 54.0249C139.375 54.6437 140.161 54.7693 140.988 55.0249C143.216 56.0298 144.617 58.2159 145.99 60.3645C146.267 60.7922 146.544 61.2198 146.822 61.6475C146.956 61.8561 147.091 62.0647 147.229 62.2796C147.761 63.1041 148.299 63.9232 148.838 64.7418C149.027 65.0294 149.217 65.317 149.412 65.6133C150.044 66.5662 150.682 67.5132 151.323 68.4588C152.222 69.7878 153.118 71.1196 154.006 72.4588C154.203 72.7561 154.4 73.0534 154.604 73.3597C155.032 74.0437 155.032 74.0437 155.032 74.3456C154.885 74.3469 154.737 74.3482 154.585 74.3495C150.991 74.3807 147.397 74.4135 143.803 74.448C142.065 74.4647 140.327 74.4808 138.589 74.4957C136.912 74.5101 135.235 74.5259 133.558 74.5427C132.918 74.5489 132.278 74.5545 131.638 74.5597C130.742 74.5669 129.846 74.576 128.95 74.5855C128.685 74.5872 128.42 74.589 128.146 74.5908C127.779 74.5952 127.779 74.5952 127.404 74.5997C127.087 74.6026 127.087 74.6026 126.763 74.6056C126.096 74.651 125.476 74.7922 124.824 74.9494C124.202 75.016 123.579 75.0731 122.956 75.1239C122.584 75.156 122.211 75.1884 121.839 75.2212C121.645 75.2382 121.451 75.2553 121.251 75.2729C118.154 75.5505 115.103 75.9066 112.054 76.6097C111.789 76.6705 111.524 76.7314 111.251 76.794C109.861 77.1352 108.632 77.5935 107.334 78.2701C106.566 78.6066 105.791 78.92 105.016 79.2324C104.716 79.3558 104.716 79.3558 104.41 79.4818C103.588 79.8137 102.913 80.0814 102.034 80.0814C102.034 80.2807 102.034 80.4799 102.034 80.6852C101.86 80.6852 101.685 80.6852 101.504 80.6852C101.891 81.4276 102.282 82.1635 102.697 82.8857C103.613 84.511 104.136 85.9567 104.463 87.855C104.627 88.5746 104.627 88.5746 105.179 88.8762C105.366 88.9626 105.552 89.049 105.744 89.138C106.062 89.4156 106.371 89.7054 106.672 90.006C106.822 90.1546 106.972 90.3033 107.127 90.4564C107.283 90.6191 107.439 90.7818 107.599 90.9494C107.77 91.1144 107.941 91.2794 108.117 91.4494C108.883 92.4482 109.308 93.5592 109.785 94.7607C109.93 95.1121 109.93 95.1121 110.077 95.4706C110.779 97.2019 110.779 97.2019 110.779 97.8927C110.954 97.8927 111.129 97.8927 111.309 97.8927C111.574 98.8173 111.574 98.8173 111.574 100.006C111.117 100.623 110.615 101.072 110.054 101.564C109.268 102.292 108.68 103.143 108.06 104.051C107.442 104.699 107.117 104.818 106.274 104.836C105.601 104.509 105.014 104.177 104.386 103.761C104.212 103.649 104.037 103.538 103.857 103.424C103.503 103.198 103.15 102.971 102.798 102.742C102.109 102.299 101.409 101.88 100.71 101.459C99.7598 100.869 98.9034 100.234 98.0493 99.4812C97.3565 98.9733 96.6149 98.6551 95.8569 98.289C94.4425 97.5164 94.4425 97.5164 94.0465 96.5449C93.9192 95.7418 93.9192 95.7418 93.8757 94.9847C93.8134 94.1886 93.6725 93.7301 93.2898 93.0626C92.8663 92.6976 92.8663 92.6976 92.3789 92.4399C91.6868 92.0243 91.1536 91.6378 90.6399 90.9494C90.5744 91.1548 90.5088 91.3603 90.4412 91.572C90.1197 92.4326 89.7315 93.2152 89.3171 94.0213C88.9012 94.8788 88.5865 95.7822 88.255 96.6852C87.9939 97.2912 87.7302 97.8957 87.4601 98.4965C87.1566 97.4594 87.2417 97.1883 87.5263 96.1758C87.6015 95.9069 87.6766 95.638 87.754 95.3609C87.9548 94.6898 88.165 94.0265 88.3875 93.3644C88.6972 92.4412 88.9831 91.513 89.2487 90.572C89.3184 90.3276 89.3881 90.0832 89.4599 89.8314C89.923 87.1573 87.3003 83.6753 86.1351 81.4211C85.9672 81.0948 85.9672 81.0948 85.7959 80.7619C85.2811 79.7654 84.7602 78.7771 84.2098 77.8055C84.0363 77.4918 83.8628 77.1782 83.684 76.855C83.5296 76.5861 83.3752 76.3172 83.2161 76.0402C82.9552 75.2513 82.9552 75.2513 83.0857 74.414C83.6135 73.1272 84.245 71.9422 84.9095 70.7418C85.1658 70.2738 85.4218 69.8057 85.6776 69.3373C85.7998 69.114 85.922 68.8907 86.0479 68.6606C86.5379 67.7498 87.0007 66.824 87.4601 65.8928C87.635 65.8928 87.8099 65.8928 87.99 65.8928C88.0775 65.4943 88.1649 65.0958 88.255 64.6852C88.4299 64.6852 88.6048 64.6852 88.785 64.6852C88.8499 64.5183 88.9148 64.3513 88.9817 64.1793C90.3499 61.2991 92.764 58.4539 94.8798 56.2324C95.0547 56.2324 95.2296 56.2324 95.4097 56.2324C95.4097 56.0332 95.4097 55.8339 95.4097 55.6286C96.3288 54.6525 97.3344 53.7916 98.3246 52.9116C98.5596 52.7 98.7947 52.4883 99.0368 52.2701C103.515 48.3834 103.515 48.3834 105.744 48.3834C105.744 48.1841 105.744 47.9849 105.744 47.7796C106.753 47.4129 107.578 47.1774 108.643 47.1003C110.409 46.909 112.028 46.0343 113.666 45.3057C114.557 44.9174 115.457 44.5613 116.36 44.2135C116.824 44.0332 116.824 44.0332 117.297 43.8492C118.216 43.5476 119.105 43.3793 120.054 43.2513C120.121 43.0439 120.188 42.8364 120.258 42.6227C120.394 42.2147 120.394 42.2147 120.534 41.7985C120.623 41.5288 120.712 41.2591 120.804 40.9812C121.113 40.2329 121.321 39.8071 121.909 39.3268C122.508 39.2383 122.508 39.2383 123.151 39.2702C123.365 39.2783 123.579 39.2865 123.8 39.2949C123.963 39.3054 124.126 39.3159 124.294 39.3268C124.015 39.2396 123.736 39.1524 123.449 39.0626C122.643 38.7917 121.886 38.4923 121.114 38.1192C121.114 38.0196 121.114 37.92 121.114 37.8173Z" fill="#E5E5E6"/>
<path d="M127.396 74.3072C127.76 74.3059 127.76 74.3059 128.132 74.3046C128.527 74.3055 128.527 74.3055 128.929 74.3065C129.349 74.3057 129.349 74.3057 129.777 74.3049C130.701 74.3035 131.626 74.3044 132.55 74.3054C133.192 74.3052 133.835 74.3049 134.477 74.3046C135.824 74.3041 137.17 74.3048 138.516 74.3062C140.242 74.3079 141.968 74.3069 143.694 74.3051C145.021 74.304 146.348 74.3043 147.674 74.3051C148.311 74.3053 148.947 74.3051 149.584 74.3044C150.473 74.3036 151.362 74.3048 152.252 74.3065C152.515 74.3059 152.778 74.3052 153.049 74.3046C153.292 74.3055 153.535 74.3063 153.785 74.3072C153.995 74.3073 154.206 74.3074 154.422 74.3075C155.088 74.349 155.706 74.4881 156.357 74.6474C156.794 74.6943 157.232 74.7314 157.67 74.76C157.924 74.7772 158.178 74.7943 158.44 74.812C158.847 74.8379 158.847 74.8379 159.262 74.8644C159.544 74.8834 159.826 74.9023 160.116 74.9218C161.016 74.9823 161.916 75.0414 162.816 75.1002C163.715 75.1591 164.613 75.2183 165.511 75.2786C166.069 75.3161 166.628 75.3528 167.186 75.3885C168.537 75.4791 169.858 75.6199 171.197 75.855C171.681 75.9074 172.165 75.9544 172.65 75.9953C172.917 76.0184 173.185 76.0416 173.46 76.0655C173.881 76.1014 173.881 76.1014 174.31 76.138C176.41 76.3244 178.508 76.5182 180.604 76.7606C180.895 76.7927 180.895 76.7927 181.193 76.8254C182.139 76.9387 183.047 77.1033 183.973 77.3573C185.532 77.7705 187.112 77.9091 188.703 78.0814C191.173 78.3662 193.624 78.7062 196.073 79.1757C196.437 79.2454 196.437 79.2454 196.81 79.3165C198.139 79.5797 199.456 79.8844 200.773 80.2146C203.137 80.7997 205.52 81.2379 207.907 81.6812C210.807 82.2221 213.657 82.8987 216.51 83.704C216.51 83.9033 216.51 84.1025 216.51 84.3078C216.783 84.3265 217.056 84.3451 217.338 84.3644C222.043 85.0602 226.629 88.2695 230.289 91.5531C230.529 91.7667 230.769 91.9803 231.016 92.2005C234.659 95.6849 237.097 100.605 237.542 106.035C237.658 110.423 236.768 114.072 234.264 117.515C234.093 117.762 233.922 118.01 233.746 118.264C231.714 121.034 228.983 123.373 226.05 124.761C225.787 124.761 225.525 124.761 225.255 124.761C225.255 124.96 225.255 125.159 225.255 125.364C224.01 126.003 222.803 126.496 221.478 126.893C221.001 127.038 221.001 127.038 220.514 127.186C220.151 127.285 219.788 127.382 219.425 127.478C219.219 127.533 219.014 127.589 218.802 127.646C216.762 128.14 214.748 128.164 212.674 128.143C212.093 128.138 211.513 128.137 210.933 128.137C206.963 128.127 203.046 127.78 199.105 127.256C198.071 127.121 197.036 126.998 196.001 126.874C195.586 126.824 195.17 126.773 194.754 126.723C194.127 126.647 193.5 126.571 192.873 126.496C190.882 126.259 188.899 126.021 186.924 125.64C184.972 125.282 183.025 125.228 181.051 125.176C180.684 125.164 180.316 125.152 179.949 125.14C179.063 125.112 178.177 125.086 177.292 125.062C177.204 125.361 177.117 125.66 177.027 125.968C177.027 125.769 177.027 125.57 177.027 125.364C176.763 125.381 176.499 125.398 176.226 125.415C176.051 125.426 175.875 125.437 175.694 125.449C175.501 125.461 175.307 125.473 175.107 125.486C171.297 125.727 171.297 125.727 170.669 125.767C170.247 125.793 169.826 125.82 169.404 125.847C168.333 125.915 167.262 125.982 166.191 126.046C164.223 126.165 162.259 126.286 160.299 126.534C158.667 126.731 157.035 126.915 155.401 127.083C150.547 127.578 150.547 127.578 145.708 128.232C145.492 128.264 145.275 128.296 145.052 128.329C143.844 128.523 142.672 128.797 141.486 129.126C139.493 129.664 137.487 129.954 135.456 130.232C134.913 130.309 134.369 130.386 133.825 130.463C133.336 130.532 132.847 130.6 132.358 130.668C132.058 130.711 131.758 130.754 131.448 130.798C130.94 130.862 130.94 130.862 130.421 130.928C130.148 130.985 129.875 131.042 129.593 131.1C129.506 131.299 129.419 131.499 129.328 131.704C128.682 131.849 128.06 131.958 127.407 132.044C127.23 132.07 127.053 132.096 126.87 132.123C125.918 132.257 124.988 132.337 124.029 132.308C123.955 132.485 123.881 132.662 123.806 132.845C123.516 133.478 123.202 134.015 122.826 134.584C122.695 134.782 122.564 134.981 122.429 135.186C122.29 135.394 122.151 135.603 122.008 135.817C121.794 136.139 121.794 136.139 121.576 136.468C117.461 142.651 117.461 142.651 116.079 143.176C114.896 143.303 114.013 143.274 113.033 142.444C112.522 141.834 112.189 141.171 111.814 140.443C110.81 138.614 109.616 137.163 108.262 135.666C108.046 135.42 107.829 135.174 107.607 134.921C106.432 133.602 105.263 132.442 103.889 131.402C103.145 130.837 102.467 130.227 101.77 129.591C101.319 129.21 100.866 128.833 100.411 128.459C100.157 128.248 99.9018 128.038 99.6393 127.821C99.1336 127.405 98.6272 126.991 98.1197 126.578C94.1937 123.367 90.3573 119.989 87.9901 115.1C87.7984 114.723 87.7984 114.723 87.6029 114.338C85.4674 109.88 85.7788 104.361 86.9084 99.5802C87.313 98.1265 87.6933 96.9839 88.5201 95.7795C88.7094 95.2795 88.898 94.7792 89.078 94.2747C89.5263 93.1238 90.0904 92.0406 90.64 90.9493C91.4711 91.2649 91.6368 91.4812 92.2299 92.1568C92.454 92.3 92.6781 92.4432 92.9089 92.5908C93.6316 93.1185 93.7761 93.3788 94.0848 94.27C94.1232 94.7601 94.156 95.2508 94.1842 95.7417C94.3579 96.8445 94.4871 97.1852 95.3001 97.8455C96.1213 98.2983 96.9521 98.7021 97.7947 99.1002C98.328 99.497 98.8581 99.8994 99.3846 100.308C100.346 100.933 101.323 101.524 102.3 102.119C102.638 102.33 102.977 102.54 103.316 102.751C103.667 102.968 104.018 103.185 104.37 103.402C104.535 103.505 104.699 103.608 104.869 103.714C105.611 104.169 106.321 104.551 107.122 104.85C107.886 105.146 108.362 105.384 108.924 106.044C109.048 106.795 109.048 106.795 109.057 107.647C109.134 109.222 109.342 109.99 110.249 111.176C110.643 111.475 110.643 111.475 111.044 111.779C111.044 111.979 111.044 112.178 111.044 112.383C113.289 112.549 113.289 112.549 115.433 111.93C116.524 110.655 117.077 109.443 117.238 107.666C117.136 106.62 116.999 105.792 116.609 104.836C116.259 104.627 115.905 104.427 115.549 104.232C114.637 103.467 113.769 102.643 112.899 101.817C112.631 101.568 112.363 101.319 112.088 101.062C111.368 100.005 111.368 99.2165 111.309 97.8927C111.134 97.8927 110.959 97.8927 110.779 97.8927C110.71 97.7101 110.641 97.5276 110.57 97.3395C110.248 96.5018 109.917 95.6691 109.587 94.8361C109.478 94.5489 109.369 94.2617 109.258 93.9658C108.458 91.9778 107.63 90.894 106.009 89.7417C104.797 88.7993 104.368 87.895 103.906 86.3455C103.38 84.7027 102.822 83.3783 101.796 82.0483C101.505 81.5908 101.505 81.5908 101.505 80.6851C101.679 80.6851 101.854 80.6851 102.035 80.6851C102.035 80.4859 102.035 80.2867 102.035 80.0814C102.185 80.0221 102.336 79.9628 102.492 79.9018C103.184 79.6291 103.876 79.3552 104.568 79.0814C104.806 78.9882 105.043 78.895 105.287 78.7989C106.318 78.3905 107.337 77.9804 108.333 77.4741C112.655 75.3964 118.109 75.2317 122.728 74.8425C122.983 74.8209 123.237 74.7994 123.499 74.7771C123.723 74.7592 123.947 74.7412 124.178 74.7227C124.824 74.661 124.824 74.661 125.449 74.4942C126.117 74.3522 126.717 74.3076 127.396 74.3072ZM118.199 92.1568C118.009 92.7948 118.009 92.7948 118.099 93.4398C118.132 93.8134 118.165 94.187 118.199 94.5719C119.317 95.2901 120.118 95.5908 121.4 95.5907C121.719 95.5929 122.038 95.5951 122.367 95.5973C122.715 95.5951 123.063 95.5928 123.422 95.5906C123.797 95.5914 124.172 95.5926 124.548 95.5942C125.578 95.5974 126.608 95.5949 127.638 95.5915C128.75 95.5889 129.861 95.5914 130.972 95.5933C133.149 95.5962 135.326 95.5942 137.503 95.5905C140.037 95.5864 142.571 95.5869 145.105 95.5875C149.627 95.5885 154.148 95.585 158.669 95.5791C163.057 95.5733 167.446 95.5712 171.835 95.5729C176.612 95.5747 181.39 95.5747 186.167 95.5712C186.677 95.5709 187.186 95.5705 187.695 95.5701C187.946 95.5699 188.196 95.5698 188.455 95.5696C190.222 95.5684 191.989 95.5685 193.756 95.5691C195.909 95.5697 198.062 95.5682 200.215 95.5638C201.313 95.5616 202.412 95.5604 203.511 95.5617C204.516 95.563 205.522 95.5614 206.527 95.5576C207.064 95.5563 207.601 95.558 208.138 95.5597C208.456 95.558 208.774 95.5562 209.102 95.5544C209.514 95.554 209.514 95.554 209.935 95.5536C210.726 95.4729 211.298 95.2818 212.005 94.8738C212.393 93.9905 212.388 93.438 212.27 92.4587C211.544 91.4451 211.08 91.0239 209.938 90.8106C208.973 90.7545 208.015 90.7497 207.049 90.7596C206.674 90.7581 206.299 90.7559 205.924 90.7531C204.894 90.7474 203.864 90.7511 202.835 90.7564C201.724 90.7604 200.613 90.7558 199.502 90.7522C197.326 90.7467 195.15 90.7492 192.975 90.7547C191.206 90.7589 189.438 90.7601 187.67 90.7591C187.418 90.7589 187.167 90.7588 186.908 90.7586C186.397 90.7583 185.886 90.758 185.374 90.7577C180.854 90.7551 176.335 90.7601 171.815 90.7691C167.428 90.7778 163.041 90.7799 158.654 90.7753C153.878 90.7702 149.102 90.769 144.327 90.7743C143.817 90.7748 143.308 90.7754 142.799 90.7759C142.548 90.7762 142.298 90.7765 142.04 90.7768C140.273 90.7785 138.507 90.7775 136.741 90.7755C134.589 90.7731 132.437 90.7752 130.284 90.7828C129.186 90.7865 128.088 90.7884 126.99 90.785C125.984 90.782 124.979 90.7845 123.974 90.7915C123.438 90.7938 122.902 90.7902 122.366 90.7864C120.062 90.7884 120.062 90.7884 118.199 92.1568ZM118.199 105.742C118.071 106.43 118.071 106.43 118.133 107.157C118.142 107.401 118.152 107.645 118.162 107.896C118.174 108.082 118.186 108.267 118.199 108.459C119.21 108.992 120.001 109.138 121.112 109.14C121.432 109.142 121.753 109.144 122.083 109.146C122.437 109.145 122.792 109.144 123.147 109.143C123.524 109.144 123.902 109.146 124.279 109.147C125.316 109.151 126.354 109.151 127.391 109.15C128.51 109.15 129.628 109.153 130.747 109.156C132.939 109.161 135.13 109.163 137.321 109.163C139.102 109.164 140.882 109.165 142.663 109.167C147.709 109.172 152.755 109.175 157.801 109.174C158.209 109.174 158.209 109.174 158.625 109.174C158.897 109.174 159.17 109.174 159.45 109.174C163.868 109.174 168.286 109.18 172.703 109.188C177.237 109.197 181.77 109.201 186.304 109.201C188.85 109.2 191.396 109.202 193.943 109.209C196.11 109.214 198.277 109.215 200.444 109.211C201.55 109.209 202.657 109.209 203.763 109.215C204.775 109.219 205.787 109.218 206.799 109.213C207.165 109.212 207.532 109.213 207.899 109.217C208.396 109.221 208.893 109.217 209.391 109.213C209.667 109.213 209.944 109.213 210.229 109.213C211.129 109.024 211.446 108.665 212.005 107.855C212.111 106.952 211.933 106.349 211.74 105.44C210.827 104.746 210.493 104.76 209.418 104.759C209.098 104.757 208.778 104.756 208.448 104.754C208.09 104.755 207.733 104.756 207.376 104.757C206.998 104.756 206.62 104.755 206.242 104.754C205.2 104.751 204.159 104.751 203.117 104.753C201.995 104.753 200.872 104.751 199.75 104.748C197.55 104.745 195.351 104.744 193.151 104.745C191.364 104.745 189.577 104.745 187.789 104.744C187.408 104.743 187.408 104.743 187.02 104.743C186.503 104.743 185.987 104.742 185.471 104.742C180.628 104.739 175.785 104.739 170.942 104.741C166.508 104.743 162.074 104.739 157.64 104.734C153.091 104.728 148.542 104.725 143.993 104.726C141.437 104.727 138.882 104.726 136.327 104.722C134.151 104.718 131.976 104.718 129.8 104.721C128.69 104.723 127.579 104.724 126.469 104.72C125.453 104.717 124.437 104.718 123.421 104.722C123.053 104.723 122.685 104.722 122.317 104.72C121.817 104.716 121.318 104.72 120.819 104.723C120.541 104.723 120.264 104.723 119.977 104.723C119.156 104.852 118.789 105.086 118.199 105.742ZM118.566 118.979C118.058 119.878 118.048 120.389 118.199 121.44C118.535 122.297 118.535 122.297 119.259 122.949C120.19 123.18 121.109 123.161 122.059 123.15C122.332 123.151 122.605 123.153 122.886 123.154C123.463 123.155 124.04 123.152 124.616 123.146C125.5 123.138 126.384 123.146 127.268 123.156C127.828 123.155 128.388 123.153 128.949 123.15C129.346 123.154 129.346 123.154 129.752 123.159C130.432 123.146 131.05 123.121 131.713 122.949C132.381 122.108 132.485 121.63 132.624 120.515C132.563 119.627 132.563 119.627 132.142 118.979C131.062 118.11 130.007 118.248 128.716 118.261C128.316 118.259 128.316 118.259 127.908 118.257C127.345 118.256 126.782 118.258 126.219 118.264C125.357 118.27 124.495 118.264 123.633 118.256C123.086 118.257 122.539 118.258 121.992 118.261C121.734 118.258 121.476 118.256 121.21 118.253C119.796 118.259 119.796 118.259 118.566 118.979Z" fill="#F57760"/>
<path d="M132.227 0.00600842C132.627 0.00834332 132.627 0.00834332 133.036 0.0107254C134.814 0.0315707 136.57 0.17 138.338 0.383367C138.338 0.582612 138.338 0.781857 138.338 0.98714C138.551 0.962234 138.764 0.937328 138.984 0.911668C142.103 1.16099 145.245 4.15391 147.248 6.72298C148.35 8.05976 149.281 8.23552 150.845 8.42581C151.989 8.59293 152.534 8.91816 153.443 9.74185C154.819 11.9056 155.302 14.269 155.579 16.8928C155.717 18.3167 155.717 18.3167 155.974 19.7147C156.149 20.5939 156.117 21.4463 156.109 22.3456C156.107 22.699 156.104 23.0523 156.102 23.4164C156.097 23.8203 156.097 23.8203 156.092 24.2324C155.691 24.3872 155.287 24.5371 154.883 24.6852C154.659 24.7693 154.435 24.8533 154.203 24.9399C153.314 25.1715 152.497 25.1688 151.588 25.1381C151.582 25.3275 151.577 25.5169 151.572 25.7121C151.476 29.0073 151.371 32.3053 151.124 35.5909C151.111 35.8208 151.098 36.0507 151.084 36.2876C150.945 37.9312 150.549 38.8346 149.468 39.9305C148.744 40.289 148.022 40.466 147.248 40.6286C146.958 40.699 146.958 40.699 146.663 40.7707C144.209 41.3523 141.819 41.4962 139.319 41.4959C138.72 41.4965 138.12 41.502 137.521 41.5077C137.136 41.5086 136.751 41.5092 136.366 41.5095C136.02 41.5107 135.674 41.512 135.317 41.5133C134.369 41.4403 133.662 41.204 132.773 40.8362C132.282 40.7258 131.788 40.6287 131.292 40.5449C131.019 40.4964 130.745 40.448 130.464 40.3981C129.896 40.3004 129.328 40.2037 128.76 40.108C128.349 40.0347 128.349 40.0347 127.93 39.96C127.683 39.918 127.437 39.876 127.183 39.8327C126.414 39.6286 126.414 39.6286 125.508 39.1827C124.555 38.7212 123.703 38.4858 122.685 38.2807C122.335 38.2067 121.985 38.1327 121.635 38.0585C121.091 37.9463 120.548 37.8355 120.004 37.7269C119.472 37.6198 118.942 37.5072 118.412 37.3939C118.098 37.3302 117.784 37.2664 117.46 37.2006C116.512 36.8787 115.984 36.4935 115.284 35.7041C115.069 34.723 115.069 34.723 115.019 33.8928C114.494 33.7931 113.97 33.6935 113.429 33.5909C112.966 29.9668 113.602 26.9021 114.456 23.4211C114.553 23.0231 114.553 23.0231 114.652 22.617C115.097 20.8657 115.669 19.2417 116.344 17.5909C116.61 16.8871 116.875 16.1828 117.139 15.4777C117.281 15.1007 117.423 14.7237 117.564 14.3468C117.634 14.1629 117.703 13.979 117.774 13.7896C118.092 12.9435 118.411 12.0974 118.729 11.2513C118.904 11.2513 119.079 11.2513 119.259 11.2513C119.283 10.9917 119.307 10.7322 119.332 10.4647C119.904 7.40666 122.227 4.10893 124.393 2.2619C126.899 0.437679 129.285 -0.0623349 132.227 0.00600842ZM136.748 20.3079C136.573 20.9056 136.398 21.5033 136.218 22.1192C135.781 22.1192 135.344 22.1192 134.893 22.1192C134.675 27.1796 135.54 31.6535 137.278 36.3079C137.456 36.8106 137.633 37.3136 137.808 37.8173C141.153 38.1104 143.905 36.3761 146.409 34.0104C148.255 32.1152 149.384 29.6703 149.998 26.9494C149.998 26.6505 149.998 26.3516 149.998 26.0437C149.819 26.0441 149.641 26.0444 149.457 26.0448C145.734 26.0281 142.485 25.8802 139.133 23.9305C138.916 23.8048 138.698 23.6791 138.474 23.5496C137.957 23.1947 137.957 23.1947 137.278 22.4211C137.03 21.2701 137.03 21.2701 137.013 20.3079C136.926 20.3079 136.838 20.3079 136.748 20.3079Z" fill="#302F42"/>
<path d="M181.233 18.1381C181.464 18.1344 181.696 18.1307 181.934 18.1269C184.077 18.1214 185.721 18.705 187.643 19.7984C187.952 19.9716 188.261 20.1448 188.579 20.3232C191.212 22.0413 193.324 24.8454 194.251 28.1569C195.278 32.4892 195.083 37.1397 193.303 41.1817C191.462 44.6335 188.756 47.3858 185.241 48.3833C183.604 48.6739 181.995 48.7499 180.339 48.7607C180.101 48.7669 179.863 48.7731 179.617 48.7796C178.036 48.79 176.883 48.5112 175.437 47.7796C175.437 47.5803 175.437 47.3811 175.437 47.1758C175.205 47.1244 175.205 47.1244 174.969 47.072C172.979 46.4064 171.34 44.168 170.137 42.3456C170.137 42.1464 170.137 41.9471 170.137 41.7418C169.962 41.7418 169.787 41.7418 169.607 41.7418C167.624 36.7238 167.129 32.3276 168.801 27.052C169.98 24.0472 172.069 21.4965 174.642 20.006C174.864 19.8698 175.086 19.7336 175.315 19.5933C177.352 18.3798 178.956 18.14 181.233 18.1381ZM184.884 29.0366C184.298 29.8791 183.581 30.491 182.856 31.1758C182.582 31.5557 182.311 31.9395 182.045 32.3267C181.36 33.2642 181.36 33.2642 180.554 33.4777C179.941 33.289 179.941 33.289 179.577 32.8362C179.129 32.2751 179.129 32.2751 178.219 32.2701C177.331 32.31 177.331 32.31 176.778 32.7041C176.332 33.6313 176.413 34.3607 176.497 35.4022C176.983 36.3282 176.983 36.3282 177.656 37.1381C177.871 37.4167 178.086 37.6953 178.308 37.9824C178.497 38.2268 178.686 38.4712 178.881 38.723C179.056 39.0218 179.231 39.3207 179.411 39.6286C180.295 39.854 180.295 39.854 181.266 39.6286C181.879 39.0389 182.324 38.5312 182.823 37.8362C183.098 37.4749 183.373 37.1141 183.649 36.7536C183.85 36.4858 183.85 36.4858 184.056 36.2126C184.926 35.0786 185.888 34.042 186.831 32.9871C188.391 31.3664 188.391 31.3664 189.05 29.1758C189.017 28.1188 189.017 28.1188 188.421 27.2513C186.573 26.8587 186 27.3937 184.884 29.0366Z" fill="#413F57"/>
<path d="M123.42 90.794C123.795 90.7924 124.17 90.7902 124.545 90.7876C125.575 90.782 126.605 90.7839 127.634 90.7871C128.745 90.7892 129.856 90.7843 130.967 90.7804C133.143 90.7739 135.319 90.7739 137.494 90.7764C139.263 90.7783 141.031 90.7779 142.799 90.776C143.05 90.7757 143.302 90.7755 143.561 90.7752C144.072 90.7746 144.583 90.7741 145.094 90.7735C149.888 90.7685 154.681 90.7711 159.474 90.7762C163.86 90.7806 168.247 90.7762 172.633 90.7675C177.136 90.7586 181.639 90.7553 186.142 90.7582C186.652 90.7585 187.161 90.7588 187.67 90.7591C188.046 90.7593 188.046 90.7593 188.429 90.7595C190.195 90.7602 191.962 90.7572 193.728 90.7528C195.88 90.7476 198.032 90.7476 200.185 90.7545C201.283 90.7578 202.381 90.7588 203.479 90.7532C204.485 90.7481 205.49 90.75 206.495 90.7574C207.031 90.7596 207.567 90.7544 208.103 90.7489C210.704 90.7795 210.704 90.7795 211.694 91.6569C212.27 92.4588 212.27 92.4588 212.403 93.4022C212.27 94.2701 212.27 94.2701 211.74 95.1758C210.89 95.5495 210.038 95.5161 209.135 95.5173C208.817 95.5185 208.499 95.5196 208.172 95.5208C207.822 95.5206 207.473 95.5203 207.113 95.52C206.738 95.5208 206.363 95.5217 205.989 95.5228C204.958 95.5252 203.927 95.5257 202.896 95.526C201.785 95.5265 200.674 95.5288 199.562 95.5308C197.132 95.5349 194.702 95.5367 192.271 95.5381C190.754 95.5389 189.237 95.5402 187.72 95.5415C183.521 95.5452 179.322 95.5483 175.123 95.5494C174.72 95.5495 174.72 95.5495 174.309 95.5496C174.039 95.5496 173.77 95.5497 173.492 95.5498C172.946 95.5499 172.4 95.55 171.855 95.5502C171.584 95.5502 171.313 95.5503 171.034 95.5504C166.644 95.5516 162.254 95.5568 157.864 95.5639C153.359 95.571 148.853 95.5748 144.348 95.5751C141.818 95.5754 139.287 95.5771 136.757 95.5826C134.603 95.5873 132.449 95.5888 130.295 95.5863C129.195 95.5851 128.096 95.5854 126.997 95.5897C125.991 95.5935 124.984 95.5932 123.978 95.5895C123.441 95.5886 122.905 95.5922 122.368 95.5959C121.889 95.593 121.889 95.593 121.401 95.5899C120.989 95.5902 120.989 95.5902 120.568 95.5905C119.649 95.4574 119.001 95.0871 118.199 94.572C118.044 92.8031 118.044 92.8031 118.199 92.1569C119.695 90.514 121.445 90.7798 123.42 90.794Z" fill="#F7F9FD"/>
<path d="M120.819 104.723C121.14 104.721 121.461 104.719 121.792 104.716C122.148 104.719 122.505 104.721 122.862 104.723C123.24 104.722 123.619 104.721 123.997 104.72C125.039 104.716 126.08 104.719 127.122 104.722C128.244 104.725 129.367 104.722 130.49 104.72C132.689 104.718 134.889 104.72 137.089 104.723C139.649 104.727 142.209 104.727 144.768 104.726C149.335 104.725 153.901 104.729 158.468 104.735C162.902 104.74 167.336 104.743 171.771 104.741C176.596 104.739 181.422 104.739 186.247 104.743C186.761 104.743 187.275 104.743 187.789 104.744C188.042 104.744 188.295 104.744 188.556 104.744C190.342 104.745 192.128 104.745 193.914 104.745C196.089 104.744 198.264 104.746 200.439 104.75C201.549 104.752 202.66 104.753 203.77 104.752C204.786 104.751 205.801 104.752 206.817 104.756C207.185 104.757 207.554 104.757 207.922 104.756C208.421 104.754 208.92 104.757 209.418 104.759C209.696 104.76 209.974 104.76 210.26 104.76C210.945 104.836 210.945 104.836 211.74 105.44C212.093 107.104 212.093 107.104 212.005 107.855C211.446 108.665 211.129 109.024 210.229 109.213C209.952 109.213 209.676 109.213 209.391 109.213C209.071 109.216 208.751 109.218 208.422 109.221C208.066 109.218 207.711 109.215 207.356 109.212C206.979 109.213 206.602 109.214 206.225 109.216C205.187 109.22 204.15 109.216 203.113 109.212C201.994 109.208 200.876 109.211 199.758 109.213C197.566 109.216 195.375 109.212 193.184 109.207C190.633 109.201 188.082 109.201 185.531 109.201C180.98 109.201 176.429 109.196 171.879 109.187C167.461 109.178 163.043 109.174 158.625 109.174C158.217 109.175 158.217 109.175 157.801 109.175C157.529 109.175 157.257 109.175 156.978 109.175C151.951 109.175 146.925 109.171 141.899 109.166C140.12 109.164 138.341 109.164 136.562 109.163C134.395 109.163 132.228 109.16 130.06 109.155C128.954 109.152 127.848 109.15 126.741 109.151C125.729 109.151 124.717 109.149 123.705 109.145C123.338 109.144 122.971 109.144 122.605 109.145C122.107 109.146 121.609 109.143 121.112 109.14C120.697 109.14 120.697 109.14 120.273 109.139C119.49 109.059 118.91 108.834 118.199 108.459C118.17 108.025 118.15 107.591 118.133 107.157C118.12 106.915 118.108 106.674 118.095 106.425C118.199 105.742 118.199 105.742 118.638 105.253C119.418 104.729 119.915 104.723 120.819 104.723Z" fill="#FDFDFE"/>
<path d="M171.197 53.2136C171.197 53.4128 171.197 53.6121 171.197 53.8173C171.475 53.8646 171.475 53.8646 171.759 53.9129C172.633 54.1492 173.331 54.5364 174.128 55.006C174.399 55.1644 174.67 55.3228 174.949 55.486C175.321 55.706 175.321 55.706 175.702 55.9305C176.054 56.1326 176.408 56.3342 176.761 56.5343C176.424 59.8184 176.038 63.0906 175.548 66.3502C175.472 66.8628 175.398 67.3759 175.327 67.8894C175.217 68.6723 175.096 69.4521 174.973 70.2324C174.941 70.4711 174.909 70.7098 174.876 70.9557C174.657 72.2585 174.409 72.9388 173.451 73.7324C172.941 74.0931 172.436 74.3919 171.892 74.6852C171.364 74.9367 171.364 74.9367 171.197 75.8551C169.43 75.759 167.663 75.6572 165.897 75.5532C165.711 75.5422 165.524 75.5313 165.333 75.52C164.064 75.4451 162.796 75.3687 161.527 75.2908C161.096 75.2645 160.664 75.2386 160.233 75.213C159.618 75.1765 159.002 75.1386 158.387 75.1003C158.202 75.0896 158.017 75.079 157.826 75.0679C156.873 75.0071 155.963 74.8934 155.032 74.6475C155.032 74.5479 155.032 74.4483 155.032 74.3456C155.47 74.3456 155.907 74.3456 156.357 74.3456C156.459 74.094 156.459 74.094 156.562 73.8374C157.082 72.7195 157.762 71.7424 158.421 70.7277C158.804 70.1338 159.178 69.5333 159.543 68.9258C160.51 67.3325 161.406 66.0952 162.832 65.0237C163.289 64.7065 163.289 64.7065 163.512 64.0815C163.687 64.0815 163.862 64.0815 164.042 64.0815C164.071 63.8811 164.1 63.6807 164.13 63.4742C164.172 63.2076 164.214 62.941 164.257 62.6664C164.297 62.4037 164.337 62.141 164.378 61.8704C164.745 60.3403 165.53 59.2871 166.46 58.1381C166.668 57.8789 166.877 57.6197 167.091 57.3527C167.309 57.0826 167.527 56.8126 167.752 56.5343C168.194 55.9751 168.636 55.4154 169.077 54.8551C170.372 53.2136 170.372 53.2136 171.197 53.2136Z" fill="#E5E5E6"/>
<path d="M85.8703 177.893C86.8754 178.073 87.8801 178.255 88.8845 178.44C89.1657 178.49 89.4468 178.54 89.7364 178.591C91.3039 178.882 92.795 179.258 94.3083 179.806C95.0159 180.053 95.723 180.211 96.4533 180.345C97.2053 180.486 97.8646 180.636 98.5898 180.912C98.62 184.249 98.5661 187.546 98.3248 190.874C97.9636 190.79 97.9636 190.79 97.595 190.704C95.5931 190.439 95.5931 190.439 93.7887 191.319C92.0295 193.131 90.6086 195.264 89.3152 197.515C88.6196 198.383 88.6196 198.383 87.9902 199.025C87.8153 199.025 87.6404 199.025 87.4602 199.025C87.4602 199.224 87.4602 199.423 87.4602 199.629C86.6948 200.065 86.1892 200.044 85.3403 199.93C84.4463 199.183 84.0721 198.717 83.8338 197.475C83.7398 196.159 83.8191 194.963 83.9564 193.658C83.9803 193.413 84.0042 193.168 84.0288 192.916C84.105 192.14 84.1843 191.366 84.2638 190.591C84.3163 190.062 84.3686 189.534 84.4206 189.005C84.5481 187.716 84.6784 186.427 84.8103 185.138C85.2733 184.934 85.7372 184.734 86.2015 184.534C86.5889 184.366 86.5889 184.366 86.9841 184.195C87.7252 183.93 87.7252 183.93 88.7852 183.93C88.5614 183.244 88.5614 183.244 87.8567 183.07C87.4555 182.954 87.4555 182.954 87.0462 182.836C86.5707 182.699 86.0952 182.562 85.6053 182.421C85.6927 180.927 85.7802 179.432 85.8703 177.893Z" fill="#333245"/>
<path d="M136.748 20.3078C136.836 20.3078 136.923 20.3078 137.013 20.3078C137.019 20.6254 137.024 20.9429 137.03 21.2701C137.194 22.4584 137.194 22.4584 137.957 23.1946C138.49 23.5703 138.49 23.5703 139.133 23.9305C139.408 24.0904 139.683 24.2504 139.966 24.4151C143.181 26.0962 146.514 26.0503 149.998 26.0437C149.92 26.4717 149.841 26.8993 149.761 27.3267C149.695 27.6839 149.695 27.6839 149.627 28.0484C148.828 31.6157 146.565 34.1236 143.903 36.0059C143.684 36.1643 143.465 36.3227 143.239 36.4859C141.521 37.592 139.759 37.9407 137.808 37.8173C137.624 37.2513 137.44 36.6852 137.256 36.1191C137.101 35.6618 136.937 35.2083 136.762 34.7606C135.198 30.7044 134.704 26.5107 134.893 22.1192C135.331 22.1192 135.768 22.1192 136.218 22.1192C136.393 21.5214 136.568 20.9237 136.748 20.3078Z" fill="#9C6069"/>
<path d="M85.8702 103.629C86.0451 103.629 86.22 103.629 86.4002 103.629C86.391 103.954 86.3818 104.278 86.3723 104.613C86.2463 110.914 87.8029 115.552 91.6048 120.178C93.593 122.525 95.76 124.428 98.1053 126.281C99.0155 127.001 99.9215 127.728 100.826 128.459C101.065 128.651 101.065 128.651 101.31 128.847C102.049 129.445 102.749 130.031 103.36 130.798C101.944 130.561 100.572 130.178 99.1859 129.779C98.951 129.712 98.7161 129.645 98.474 129.576C96.9088 129.124 95.3596 128.637 93.8199 128.081C93.8199 127.882 93.8199 127.683 93.8199 127.478C93.5849 127.446 93.3499 127.415 93.1077 127.383C91.8413 127.18 90.6063 126.827 89.3637 126.487C88.5176 126.256 88.5176 126.256 87.6351 126.129C87.4025 126.076 87.1698 126.023 86.9302 125.968C86.8427 125.769 86.7553 125.57 86.6652 125.364C86.0441 125.09 86.0441 125.09 85.3237 124.874C85.0801 124.795 84.8366 124.717 84.5856 124.636C84.3033 124.548 84.3033 124.548 84.0153 124.459C83.8611 123.738 83.8611 123.738 83.7503 122.949C84.0981 122.402 84.0981 122.402 84.5453 122.044C84.7202 122.044 84.8951 122.044 85.0753 122.044C85.0753 121.844 85.0753 121.645 85.0753 121.44C85.2447 121.353 85.4141 121.266 85.5887 121.176C86.1755 120.888 86.1755 120.888 86.4002 120.232C86.2417 120.164 86.0832 120.095 85.9199 120.025C85.165 119.509 84.9362 119.014 84.5453 118.119C84.455 117.283 84.455 117.283 84.4676 116.387C84.4702 116.065 84.4728 115.743 84.4754 115.411C84.4821 115.078 84.4887 114.745 84.4956 114.402C84.4992 114.063 84.5028 113.725 84.5065 113.376C84.5158 112.542 84.5289 111.708 84.5453 110.874C84.7202 110.874 84.8951 110.874 85.0753 110.874C85.0671 110.581 85.0589 110.288 85.0504 109.986C85.0504 108.647 85.2537 107.375 85.4727 106.063C85.5107 105.827 85.5486 105.592 85.5876 105.35C85.6804 104.776 85.7751 104.202 85.8702 103.629Z" fill="#E0E0E3"/>
<path d="M111.044 100.006C112.056 100.487 112.736 101.229 113.529 102.081C114.288 102.898 115.005 103.618 115.876 104.276C116.779 104.966 117.044 105.486 117.404 106.647C117.607 108.433 117.237 109.729 116.344 111.176C115.578 112.158 114.894 112.63 113.74 112.787C111.803 112.815 111.803 112.815 111.044 112.383C111.044 112.184 111.044 111.985 111.044 111.779C110.891 111.717 110.738 111.655 110.581 111.591C109.698 110.976 109.383 110.428 108.924 109.364C108.838 108.25 108.862 107.16 108.924 106.044C108.759 105.954 108.594 105.865 108.423 105.772C107.854 105.434 107.499 105.072 107.07 104.534C108.295 103.063 108.295 103.063 109.189 102.723C109.266 102.549 109.342 102.374 109.421 102.195C109.82 101.286 110.401 100.7 111.044 100.006Z" fill="#9B606D"/>
<path d="M188.421 27.2512C189.097 28.4057 189.109 28.8978 188.951 30.2701C188.197 31.8779 187.058 33.0417 185.847 34.1982C185.107 34.9311 184.411 35.7078 183.717 36.4965C183.478 36.7681 183.239 37.0398 182.993 37.3196C182.318 38.1006 182.318 38.1006 181.764 38.9588C181.266 39.6286 181.266 39.6286 180.389 39.8927C178.888 39.487 178.395 38.3089 177.556 36.9116C177.343 36.6501 177.13 36.3886 176.911 36.1191C176.337 35.1268 176.364 34.4512 176.497 33.289C176.778 32.7041 176.778 32.7041 177.291 32.3833C178.219 32.2701 178.219 32.2701 179.146 32.3833C179.577 32.8361 179.577 32.8361 179.941 33.289C180.563 33.4579 180.563 33.4579 181.266 33.289C181.961 32.6146 181.961 32.6146 182.591 31.7229C183.444 30.5893 184.311 29.5098 185.241 28.4588C185.4 28.2284 185.558 27.998 185.721 27.7607C186.632 26.9603 187.291 27.1059 188.421 27.2512Z" fill="#F9F8F9"/>
<path d="M121.992 118.261C122.258 118.26 122.525 118.258 122.799 118.257C123.362 118.256 123.926 118.259 124.489 118.264C125.351 118.27 126.212 118.264 127.074 118.256C127.621 118.257 128.169 118.258 128.716 118.261C128.974 118.258 129.231 118.256 129.497 118.253C131.275 118.281 131.275 118.281 132.142 118.979C132.645 119.871 132.639 120.397 132.508 121.44C132.276 122.24 132.276 122.24 131.713 122.949C130.796 123.187 129.886 123.161 128.949 123.15C128.539 123.152 128.539 123.152 128.122 123.154C127.545 123.155 126.968 123.152 126.391 123.146C125.507 123.138 124.624 123.146 123.74 123.156C123.18 123.155 122.619 123.153 122.059 123.15C121.794 123.153 121.53 123.156 121.258 123.159C119.43 123.124 119.43 123.124 118.562 122.24C118.118 121.262 118.037 120.715 118.199 119.629C119.121 117.999 120.457 118.246 121.992 118.261Z" fill="#F6F8FE"/>
<path d="M98.5899 180.912C98.6773 180.912 98.7648 180.912 98.8549 180.912C98.8549 181.709 98.8549 182.506 98.8549 183.327C99.0104 183.323 99.166 183.32 99.3262 183.316C101.094 183.294 102.827 183.431 104.585 183.629C104.984 183.672 104.984 183.672 105.392 183.716C106.039 183.786 106.687 183.858 107.335 183.93C106.76 186.763 106.179 189.587 105.48 192.383C105.917 192.483 106.354 192.582 106.805 192.685C105.811 193.025 105.811 193.025 105.215 192.685C105.215 192.287 105.215 191.888 105.215 191.478C104.914 191.453 104.613 191.428 104.304 191.402C102.277 191.153 100.3 190.524 98.3249 189.968C98.278 186.939 98.4249 183.933 98.5899 180.912Z" fill="#9C636C"/>
<path d="M173.582 46.2702C174.5 46.7185 174.5 46.7185 175.437 47.1758C175.437 47.3751 175.437 47.5743 175.437 47.7796C175.639 47.8232 175.841 47.8668 176.049 47.9117C176.762 48.0815 176.762 48.0815 177.557 48.3834C178.123 48.4085 178.69 48.4158 179.257 48.4129C179.589 48.4119 179.922 48.4109 180.264 48.4099C180.611 48.4074 180.958 48.4049 181.316 48.4022C181.67 48.4007 182.024 48.3994 182.378 48.3981C183.244 48.3946 184.11 48.3896 184.976 48.3834C184.07 49.0719 183.736 49.0533 182.674 49.0249C182.279 49.0167 182.279 49.0167 181.876 49.0084C181.675 49.0014 181.474 48.9944 181.266 48.9872C181.266 49.4853 181.266 49.9834 181.266 50.4966C181.091 50.4966 180.917 50.4966 180.736 50.4966C180.712 50.8328 180.712 50.8328 180.687 51.1758C180.393 52.3073 180.032 52.6126 179.146 53.2136C178.43 53.3949 177.763 53.4586 177.027 53.5154C176.852 54.4121 176.677 55.3087 176.497 56.2324C175.17 56.0674 174.119 55.5558 172.952 54.8551C172.783 54.7556 172.613 54.6562 172.438 54.5538C172.023 54.3105 171.61 54.0642 171.197 53.8173C171.37 52.2197 171.663 51.0322 172.257 49.5909C172.432 49.5909 172.607 49.5909 172.787 49.5909C172.822 49.4018 172.857 49.2127 172.893 49.0178C172.94 48.7711 172.987 48.5244 173.035 48.2702C173.081 48.025 173.127 47.7798 173.175 47.5272C173.317 46.8739 173.317 46.8739 173.582 46.2702Z" fill="#9E646E"/>
<path d="M129.593 131.704C130.038 132.734 130.479 133.766 130.918 134.798C131.045 135.091 131.171 135.383 131.301 135.684C131.421 135.966 131.541 136.248 131.664 136.539C131.83 136.928 131.83 136.928 132 137.325C132.243 138.044 132.243 138.044 132.243 139.251C130.115 139.377 128.215 138.894 126.149 138.346C125.707 138.243 125.266 138.141 124.824 138.044C124.824 137.844 124.824 137.645 124.824 137.44C124.501 137.396 124.179 137.353 123.846 137.308C123.015 137.19 122.198 137.04 121.379 136.836C123.103 132.733 123.103 132.733 124.792 131.958C126.385 131.645 127.981 131.693 129.593 131.704Z" fill="#DEDFE1"/>
<path d="M177.027 125.364C178.511 132.327 177.13 140.824 174.916 147.442C174.387 149.11 173.998 150.826 173.582 152.534C173.384 153.327 173.185 154.119 172.985 154.912C172.852 155.443 172.852 155.443 172.716 155.985C172.652 156.241 172.588 156.497 172.522 156.761C172.347 156.761 172.172 156.761 171.992 156.761C171.947 156.958 171.902 157.156 171.855 157.36C170.553 162.948 170.553 162.948 169.776 164.361C169.112 165.665 168.692 167.067 168.232 168.478C168.135 168.773 168.037 169.069 167.937 169.373C167.697 170.099 167.459 170.826 167.222 171.553C167.047 171.553 166.872 171.553 166.692 171.553C166.588 171.927 166.484 172.3 166.377 172.685C165.86 174.461 165.218 176.174 164.572 177.893C164.397 177.893 164.222 177.893 164.042 177.893C163.955 178.49 163.867 179.088 163.777 179.704C163.427 179.704 163.078 179.704 162.717 179.704C162.324 181.049 162.324 181.049 161.922 182.421C162.185 182.421 162.447 182.421 162.717 182.421C162.664 182.724 162.611 183.027 162.557 183.34C162.195 185.967 162.195 185.967 163.018 188.371C163.733 189.384 164.535 190.289 165.367 191.176C165.699 191.546 166.03 191.917 166.361 192.289C166.501 192.446 166.642 192.603 166.787 192.765C168.933 195.349 168.933 195.349 169.18 196.995C169.118 198.057 168.848 198.675 168.249 199.478C167.015 200.211 165.959 200.024 164.633 199.643C164.275 199.514 163.918 199.384 163.562 199.251C161.189 198.409 158.789 197.793 156.357 197.213C156.27 196.815 156.183 196.416 156.092 196.006C155.913 196.107 155.734 196.208 155.549 196.311C146.054 201.469 133.322 198.606 123.361 197.015C122.768 196.922 122.174 196.834 121.579 196.75C120.056 196.525 118.682 196.233 117.241 195.63C115.834 195.123 114.353 194.919 112.899 194.647C110.298 194.162 107.912 193.545 105.479 192.383C105.662 190.655 105.999 189.008 106.39 187.327C106.448 187.07 106.505 186.814 106.565 186.549C106.622 186.303 106.679 186.057 106.737 185.803C106.788 185.581 106.839 185.359 106.892 185.13C107.069 184.534 107.069 184.534 107.599 183.628C108.229 183.429 108.229 183.429 109.019 183.308C109.307 183.261 109.596 183.214 109.893 183.166C110.356 183.096 110.356 183.096 110.829 183.025C111.464 182.922 112.099 182.819 112.735 182.715C113.04 182.665 113.346 182.615 113.661 182.564C114.622 182.398 115.561 182.186 116.51 181.949C118.126 181.56 119.739 181.332 121.379 181.119C124.38 180.727 127.321 180.094 130.277 179.396C130.609 179.319 130.942 179.242 131.284 179.163C131.578 179.093 131.872 179.022 132.175 178.95C133.093 178.789 133.965 178.772 134.893 178.798C134.087 177.809 133.233 177.121 132.243 176.383C131.933 176.149 131.622 175.914 131.312 175.679C131.151 175.558 130.991 175.436 130.825 175.311C129.299 174.156 127.782 172.989 126.284 171.785C125.362 171.045 124.434 170.315 123.506 169.584C122.77 169.005 122.035 168.424 121.3 167.842C119.649 166.534 117.986 165.249 116.31 163.983C115.335 163.239 114.376 162.47 113.419 161.696C112.912 161.279 112.912 161.279 112.369 160.987C112.369 160.788 112.369 160.589 112.369 160.383C112.177 160.302 111.985 160.221 111.787 160.137C110.828 159.676 109.988 159.062 109.109 158.432C108.276 157.892 107.423 157.484 106.539 157.062C105.706 156.63 104.878 156.181 104.05 155.736C102.517 154.915 100.964 154.161 99.3951 153.435C98.9168 153.21 98.4386 152.986 97.9604 152.761C97.7233 152.653 97.4863 152.545 97.242 152.434C93.677 150.74 90.3282 147.384 88.5201 143.478C88.5201 143.278 88.5201 143.079 88.5201 142.874C88.3452 142.874 88.1704 142.874 87.9902 142.874C85.6921 137.038 85.1889 132.052 86.9302 125.968C87.7717 125.652 88.2135 125.678 89.0336 126.044C90.5946 126.689 92.1997 127.075 93.8199 127.478C93.8199 127.677 93.8199 127.876 93.8199 128.081C94.0789 128.117 94.3378 128.152 94.6045 128.189C95.7522 128.376 96.8473 128.718 97.9604 129.081C98.1691 129.15 98.3778 129.218 98.5928 129.288C99.0136 129.426 99.4343 129.564 99.8549 129.703C100.377 129.871 100.902 130.024 101.428 130.176C103.57 130.825 104.939 131.784 106.539 133.515C106.71 133.698 106.882 133.881 107.058 134.07C109.219 136.397 111.256 138.649 112.755 141.599C113.204 142.336 113.488 142.581 114.224 142.874C115.608 143.02 116.507 142.851 117.669 141.968C117.922 141.57 118.173 141.169 118.4 140.75C119.19 139.326 120.005 137.962 121.114 136.836C122.001 136.618 122.65 136.815 123.499 137.138C123.9 137.222 123.9 137.222 124.31 137.308C124.48 137.351 124.649 137.395 124.824 137.44C124.824 137.639 124.824 137.838 124.824 138.044C125.116 138.084 125.408 138.124 125.71 138.165C127.052 138.356 128.389 138.586 129.726 138.817C130.091 138.88 130.091 138.88 130.463 138.944C131.056 139.046 131.65 139.149 132.243 139.251C131.489 136.892 130.658 134.654 129.604 132.447C129.329 131.704 129.329 131.704 129.593 130.798C129.81 130.765 130.026 130.732 130.248 130.697C131.066 130.57 131.884 130.443 132.702 130.316C133.224 130.234 133.745 130.154 134.267 130.073C136.806 129.677 139.331 129.227 141.85 128.696C147.371 127.534 152.92 126.894 158.519 126.465C158.799 126.444 159.079 126.422 159.368 126.4C159.612 126.382 159.857 126.364 160.108 126.345C160.665 126.29 161.22 126.212 161.773 126.121C163.361 125.864 164.96 125.766 166.56 125.647C166.74 125.634 166.92 125.62 167.105 125.606C170.415 125.361 173.71 125.297 177.027 125.364ZM155.115 144.761C153.798 145.669 152.483 146.44 151.058 147.1C151.058 147.299 151.058 147.499 151.058 147.704C150.792 147.781 150.527 147.858 150.253 147.937C149.178 148.288 148.222 148.815 147.232 149.402C147.063 149.5 146.895 149.598 146.721 149.699C146.311 149.938 145.902 150.179 145.493 150.421C145.493 150.62 145.493 150.819 145.493 151.025C145.214 151.062 145.214 151.062 144.93 151.1C143.995 151.378 143.357 151.895 142.578 152.534C143.127 153.649 143.738 154.559 144.499 155.496C144.711 155.76 144.922 156.023 145.14 156.295C145.344 156.548 145.548 156.801 145.758 157.062C146.961 158.588 148.099 160.156 149.205 161.774C149.785 162.568 150.412 163.28 151.058 164.006C152.458 165.722 153.824 167.472 155.172 169.241C155.635 169.835 156.119 170.399 156.622 170.949C156.88 168.61 156.991 166.275 157.087 163.921C157.105 163.504 157.122 163.087 157.14 162.67C157.176 161.798 157.212 160.926 157.247 160.055C157.283 159.171 157.32 158.288 157.357 157.404C157.656 150.595 157.656 150.595 157.682 143.779C156.477 143.779 156.119 144.049 155.115 144.761Z" fill="#302F42"/>
<path d="M121.114 37.8173C121.65 37.8954 122.185 37.9781 122.72 38.0626C123.018 38.1081 123.317 38.1537 123.624 38.2006C124.452 38.3961 125.095 38.6991 125.858 39.096C127.091 39.6084 128.417 39.7626 129.709 39.9871C130.004 40.0406 130.299 40.0941 130.603 40.1493C131.326 40.2801 132.05 40.4084 132.773 40.5343C132.773 40.6339 132.773 40.7335 132.773 40.8362C132.161 40.9358 131.549 41.0354 130.918 41.1381C131.142 41.2583 131.365 41.3786 131.595 41.5025C132.031 41.7424 132.031 41.7424 132.475 41.9871C132.764 42.1447 133.053 42.3023 133.351 42.4647C134.098 42.9494 134.098 42.9494 134.628 43.8551C134.772 45.4698 134.656 47.0999 134.363 48.6852C134.626 48.7849 134.888 48.8845 135.158 48.9871C135.719 49.7061 136.178 50.4173 136.599 51.2513C137.088 52.1427 137.67 52.7929 138.338 53.5154C138.458 53.6835 138.578 53.8516 138.702 54.0249C139.375 54.6437 140.161 54.7693 140.988 55.0249C143.216 56.0298 144.617 58.2159 145.99 60.3645C146.267 60.7922 146.544 61.2198 146.822 61.6475C146.956 61.8561 147.091 62.0647 147.229 62.2796C147.761 63.1041 148.299 63.9232 148.838 64.7418C149.027 65.0294 149.217 65.317 149.412 65.6133C150.044 66.5662 150.682 67.5132 151.323 68.4588C152.222 69.7878 153.118 71.1196 154.006 72.4588C154.203 72.7561 154.4 73.0534 154.604 73.3597C155.032 74.0437 155.032 74.0437 155.032 74.3456C154.885 74.3469 154.737 74.3482 154.585 74.3495C150.991 74.3807 147.397 74.4135 143.803 74.448C142.065 74.4647 140.327 74.4808 138.589 74.4957C136.912 74.5101 135.235 74.5259 133.558 74.5427C132.918 74.5489 132.278 74.5545 131.638 74.5597C130.742 74.5669 129.846 74.576 128.95 74.5855C128.685 74.5872 128.42 74.589 128.146 74.5908C127.779 74.5952 127.779 74.5952 127.404 74.5997C127.087 74.6026 127.087 74.6026 126.763 74.6056C126.096 74.651 125.476 74.7922 124.824 74.9494C124.202 75.016 123.579 75.0731 122.956 75.1239C122.584 75.156 122.211 75.1884 121.839 75.2212C121.645 75.2382 121.451 75.2553 121.251 75.2729C118.154 75.5505 115.103 75.9066 112.054 76.6097C111.789 76.6705 111.524 76.7314 111.251 76.794C109.861 77.1352 108.632 77.5935 107.334 78.2701C106.566 78.6066 105.791 78.92 105.016 79.2324C104.716 79.3558 104.716 79.3558 104.41 79.4818C103.588 79.8137 102.913 80.0814 102.034 80.0814C102.034 80.2807 102.034 80.4799 102.034 80.6852C101.86 80.6852 101.685 80.6852 101.504 80.6852C101.891 81.4276 102.282 82.1635 102.697 82.8857C103.613 84.511 104.136 85.9567 104.463 87.855C104.627 88.5746 104.627 88.5746 105.179 88.8762C105.366 88.9626 105.552 89.049 105.744 89.138C106.062 89.4156 106.371 89.7054 106.672 90.006C106.822 90.1546 106.972 90.3033 107.127 90.4564C107.283 90.6191 107.439 90.7818 107.599 90.9494C107.77 91.1144 107.941 91.2794 108.117 91.4494C108.883 92.4482 109.308 93.5592 109.785 94.7607C109.93 95.1121 109.93 95.1121 110.077 95.4706C110.779 97.2019 110.779 97.2019 110.779 97.8927C110.954 97.8927 111.129 97.8927 111.309 97.8927C111.574 98.8173 111.574 98.8173 111.574 100.006C111.117 100.623 110.615 101.072 110.054 101.564C109.268 102.292 108.68 103.143 108.06 104.051C107.442 104.699 107.117 104.818 106.274 104.836C105.601 104.509 105.014 104.177 104.386 103.761C104.212 103.649 104.037 103.538 103.857 103.424C103.503 103.198 103.15 102.971 102.798 102.742C102.109 102.299 101.409 101.88 100.71 101.459C99.7598 100.869 98.9034 100.234 98.0493 99.4812C97.3565 98.9733 96.6149 98.6551 95.8569 98.289C94.4425 97.5164 94.4425 97.5164 94.0465 96.5449C93.9192 95.7418 93.9192 95.7418 93.8757 94.9847C93.8134 94.1886 93.6725 93.7301 93.2898 93.0626C92.8663 92.6976 92.8663 92.6976 92.3789 92.4399C91.6868 92.0243 91.1536 91.6378 90.6399 90.9494C90.5744 91.1548 90.5088 91.3603 90.4412 91.572C90.1197 92.4326 89.7315 93.2152 89.3171 94.0213C88.9012 94.8788 88.5865 95.7822 88.255 96.6852C87.9939 97.2912 87.7302 97.8957 87.4601 98.4965C87.1566 97.4594 87.2417 97.1883 87.5263 96.1758C87.6015 95.9069 87.6766 95.638 87.754 95.3609C87.9548 94.6898 88.165 94.0265 88.3875 93.3644C88.6972 92.4412 88.9831 91.513 89.2487 90.572C89.3184 90.3276 89.3881 90.0832 89.4599 89.8314C89.923 87.1573 87.3003 83.6753 86.1351 81.4211C85.9672 81.0948 85.9672 81.0948 85.7959 80.7619C85.2811 79.7654 84.7602 78.7771 84.2098 77.8055C84.0363 77.4918 83.8628 77.1782 83.684 76.855C83.5296 76.5861 83.3752 76.3172 83.2161 76.0402C82.9552 75.2513 82.9552 75.2513 83.0857 74.414C83.6135 73.1272 84.245 71.9422 84.9095 70.7418C85.1658 70.2738 85.4218 69.8057 85.6776 69.3373C85.7998 69.114 85.922 68.8907 86.0479 68.6606C86.5379 67.7498 87.0007 66.824 87.4601 65.8928C87.635 65.8928 87.8099 65.8928 87.99 65.8928C88.0775 65.4943 88.1649 65.0958 88.255 64.6852C88.4299 64.6852 88.6048 64.6852 88.785 64.6852C88.8499 64.5183 88.9148 64.3513 88.9817 64.1793C90.3499 61.2991 92.764 58.4539 94.8798 56.2324C95.0547 56.2324 95.2296 56.2324 95.4097 56.2324C95.4097 56.0332 95.4097 55.8339 95.4097 55.6286C96.3288 54.6525 97.3344 53.7916 98.3246 52.9116C98.5596 52.7 98.7947 52.4883 99.0368 52.2701C103.515 48.3834 103.515 48.3834 105.744 48.3834C105.744 48.1841 105.744 47.9849 105.744 47.7796C106.753 47.4129 107.578 47.1774 108.643 47.1003C110.409 46.909 112.028 46.0343 113.666 45.3057C114.557 44.9174 115.457 44.5613 116.36 44.2135C116.824 44.0332 116.824 44.0332 117.297 43.8492C118.216 43.5476 119.105 43.3793 120.054 43.2513C120.121 43.0439 120.188 42.8364 120.258 42.6227C120.394 42.2147 120.394 42.2147 120.534 41.7985C120.623 41.5288 120.712 41.2591 120.804 40.9812C121.113 40.2329 121.321 39.8071 121.909 39.3268C122.508 39.2383 122.508 39.2383 123.151 39.2702C123.365 39.2783 123.579 39.2865 123.8 39.2949C123.963 39.3054 124.126 39.3159 124.294 39.3268C124.015 39.2396 123.736 39.1524 123.449 39.0626C122.643 38.7917 121.886 38.4923 121.114 38.1192C121.114 38.0196 121.114 37.92 121.114 37.8173Z" fill="#E5E5E6"/>
<path d="M132.227 0.00600842C132.627 0.00834332 132.627 0.00834332 133.036 0.0107254C134.814 0.0315707 136.57 0.17 138.338 0.383367C138.338 0.582612 138.338 0.781857 138.338 0.98714C138.551 0.962234 138.764 0.937328 138.984 0.911668C142.103 1.16099 145.245 4.15391 147.248 6.72298C148.35 8.05976 149.281 8.23552 150.845 8.42581C151.989 8.59293 152.534 8.91816 153.443 9.74185C154.819 11.9056 155.302 14.269 155.579 16.8928C155.717 18.3167 155.717 18.3167 155.974 19.7147C156.149 20.5939 156.117 21.4463 156.109 22.3456C156.107 22.699 156.104 23.0523 156.102 23.4164C156.097 23.8203 156.097 23.8203 156.092 24.2324C155.691 24.3872 155.287 24.5371 154.883 24.6852C154.659 24.7693 154.435 24.8533 154.203 24.9399C153.314 25.1715 152.497 25.1688 151.588 25.1381C151.582 25.3275 151.577 25.5169 151.572 25.7121C151.476 29.0073 151.371 32.3053 151.124 35.5909C151.111 35.8208 151.098 36.0507 151.084 36.2876C150.945 37.9312 150.549 38.8346 149.468 39.9305C148.744 40.289 148.022 40.466 147.248 40.6286C146.958 40.699 146.958 40.699 146.663 40.7707C144.209 41.3523 141.819 41.4962 139.319 41.4959C138.72 41.4965 138.12 41.502 137.521 41.5077C137.136 41.5086 136.751 41.5092 136.366 41.5095C136.02 41.5107 135.674 41.512 135.317 41.5133C134.369 41.4403 133.662 41.204 132.773 40.8362C132.282 40.7258 131.788 40.6287 131.292 40.5449C131.019 40.4964 130.745 40.448 130.464 40.3981C129.896 40.3004 129.328 40.2037 128.76 40.108C128.349 40.0347 128.349 40.0347 127.93 39.96C127.683 39.918 127.437 39.876 127.183 39.8327C126.414 39.6286 126.414 39.6286 125.508 39.1827C124.555 38.7212 123.703 38.4858 122.685 38.2807C122.335 38.2067 121.985 38.1327 121.635 38.0585C121.091 37.9463 120.548 37.8355 120.004 37.7269C119.472 37.6198 118.942 37.5072 118.412 37.3939C118.098 37.3302 117.784 37.2664 117.46 37.2006C116.512 36.8787 115.984 36.4935 115.284 35.7041C115.069 34.723 115.069 34.723 115.019 33.8928C114.494 33.7931 113.97 33.6935 113.429 33.5909C112.966 29.9668 113.602 26.9021 114.456 23.4211C114.553 23.0231 114.553 23.0231 114.652 22.617C115.097 20.8657 115.669 19.2417 116.344 17.5909C116.61 16.8871 116.875 16.1828 117.139 15.4777C117.281 15.1007 117.423 14.7237 117.564 14.3468C117.634 14.1629 117.703 13.979 117.774 13.7896C118.092 12.9435 118.411 12.0974 118.729 11.2513C118.904 11.2513 119.079 11.2513 119.259 11.2513C119.283 10.9917 119.307 10.7322 119.332 10.4647C119.904 7.40666 122.227 4.10893 124.393 2.2619C126.899 0.437679 129.285 -0.0623349 132.227 0.00600842ZM136.748 20.3079C136.573 20.9056 136.398 21.5033 136.218 22.1192C135.781 22.1192 135.344 22.1192 134.893 22.1192C134.675 27.1796 135.54 31.6535 137.278 36.3079C137.456 36.8106 137.633 37.3136 137.808 37.8173C141.153 38.1104 143.905 36.3761 146.409 34.0104C148.255 32.1152 149.384 29.6703 149.998 26.9494C149.998 26.6505 149.998 26.3516 149.998 26.0437C149.819 26.0441 149.641 26.0444 149.457 26.0448C145.734 26.0281 142.485 25.8802 139.133 23.9305C138.916 23.8048 138.698 23.6791 138.474 23.5496C137.957 23.1947 137.957 23.1947 137.278 22.4211C137.03 21.2701 137.03 21.2701 137.013 20.3079C136.926 20.3079 136.838 20.3079 136.748 20.3079Z" fill="#302F42"/>
<path d="M181.233 18.1381C181.464 18.1344 181.696 18.1307 181.934 18.1269C184.077 18.1214 185.721 18.705 187.643 19.7984C187.952 19.9716 188.261 20.1448 188.579 20.3232C191.212 22.0413 193.324 24.8454 194.251 28.1569C195.278 32.4892 195.083 37.1397 193.303 41.1817C191.462 44.6335 188.756 47.3858 185.241 48.3833C183.604 48.6739 181.995 48.7499 180.339 48.7607C180.101 48.7669 179.863 48.7731 179.617 48.7796C178.036 48.79 176.883 48.5112 175.437 47.7796C175.437 47.5803 175.437 47.3811 175.437 47.1758C175.205 47.1244 175.205 47.1244 174.969 47.072C172.979 46.4064 171.34 44.168 170.137 42.3456C170.137 42.1464 170.137 41.9471 170.137 41.7418C169.962 41.7418 169.787 41.7418 169.607 41.7418C167.624 36.7238 167.129 32.3276 168.801 27.052C169.98 24.0472 172.069 21.4965 174.642 20.006C174.864 19.8698 175.086 19.7336 175.315 19.5933C177.352 18.3798 178.956 18.14 181.233 18.1381ZM184.884 29.0366C184.298 29.8791 183.581 30.491 182.856 31.1758C182.582 31.5557 182.311 31.9395 182.045 32.3267C181.36 33.2642 181.36 33.2642 180.554 33.4777C179.941 33.289 179.941 33.289 179.577 32.8362C179.129 32.2751 179.129 32.2751 178.219 32.2701C177.331 32.31 177.331 32.31 176.778 32.7041C176.332 33.6313 176.413 34.3607 176.497 35.4022C176.983 36.3282 176.983 36.3282 177.656 37.1381C177.871 37.4167 178.086 37.6953 178.308 37.9824C178.497 38.2268 178.686 38.4712 178.881 38.723C179.056 39.0218 179.231 39.3207 179.411 39.6286C180.295 39.854 180.295 39.854 181.266 39.6286C181.879 39.0389 182.324 38.5312 182.823 37.8362C183.098 37.4749 183.373 37.1141 183.649 36.7536C183.85 36.4858 183.85 36.4858 184.056 36.2126C184.926 35.0786 185.888 34.042 186.831 32.9871C188.391 31.3664 188.391 31.3664 189.05 29.1758C189.017 28.1188 189.017 28.1188 188.421 27.2513C186.573 26.8587 186 27.3937 184.884 29.0366Z" fill="#413F57"/>
<path d="M123.42 90.794C123.795 90.7924 124.17 90.7902 124.545 90.7876C125.575 90.782 126.605 90.7839 127.634 90.7871C128.745 90.7892 129.856 90.7843 130.967 90.7804C133.143 90.7739 135.319 90.7739 137.494 90.7764C139.263 90.7783 141.031 90.7779 142.799 90.776C143.05 90.7757 143.302 90.7755 143.561 90.7752C144.072 90.7746 144.583 90.7741 145.094 90.7735C149.888 90.7685 154.681 90.7711 159.474 90.7762C163.86 90.7806 168.247 90.7762 172.633 90.7675C177.136 90.7586 181.639 90.7553 186.142 90.7582C186.652 90.7585 187.161 90.7588 187.67 90.7591C188.046 90.7593 188.046 90.7593 188.429 90.7595C190.195 90.7602 191.962 90.7572 193.728 90.7528C195.88 90.7476 198.032 90.7476 200.185 90.7545C201.283 90.7578 202.381 90.7588 203.479 90.7532C204.485 90.7481 205.49 90.75 206.495 90.7574C207.031 90.7596 207.567 90.7544 208.103 90.7489C210.704 90.7795 210.704 90.7795 211.694 91.6569C212.27 92.4588 212.27 92.4588 212.403 93.4022C212.27 94.2701 212.27 94.2701 211.74 95.1758C210.89 95.5495 210.038 95.5161 209.135 95.5173C208.817 95.5185 208.499 95.5196 208.172 95.5208C207.822 95.5206 207.473 95.5203 207.113 95.52C206.738 95.5208 206.363 95.5217 205.989 95.5228C204.958 95.5252 203.927 95.5257 202.896 95.526C201.785 95.5265 200.674 95.5288 199.562 95.5308C197.132 95.5349 194.702 95.5367 192.271 95.5381C190.754 95.5389 189.237 95.5402 187.72 95.5415C183.521 95.5452 179.322 95.5483 175.123 95.5494C174.72 95.5495 174.72 95.5495 174.309 95.5496C174.039 95.5496 173.77 95.5497 173.492 95.5498C172.946 95.5499 172.4 95.55 171.855 95.5502C171.584 95.5502 171.313 95.5503 171.034 95.5504C166.644 95.5516 162.254 95.5568 157.864 95.5639C153.359 95.571 148.853 95.5748 144.348 95.5751C141.818 95.5754 139.287 95.5771 136.757 95.5826C134.603 95.5873 132.449 95.5888 130.295 95.5863C129.195 95.5851 128.096 95.5854 126.997 95.5897C125.991 95.5935 124.984 95.5932 123.978 95.5895C123.441 95.5886 122.905 95.5922 122.368 95.5959C121.889 95.593 121.889 95.593 121.401 95.5899C120.989 95.5902 120.989 95.5902 120.568 95.5905C119.649 95.4574 119.001 95.0871 118.199 94.572C118.044 92.8031 118.044 92.8031 118.199 92.1569C119.695 90.514 121.445 90.7798 123.42 90.794Z" fill="#F7F9FD"/>
<path d="M120.819 104.723C121.14 104.721 121.461 104.719 121.792 104.716C122.148 104.719 122.505 104.721 122.862 104.723C123.24 104.722 123.619 104.721 123.997 104.72C125.039 104.716 126.08 104.719 127.122 104.722C128.244 104.725 129.367 104.722 130.49 104.72C132.689 104.718 134.889 104.72 137.089 104.723C139.649 104.727 142.209 104.727 144.768 104.726C149.335 104.725 153.901 104.729 158.468 104.735C162.902 104.74 167.336 104.743 171.771 104.741C176.596 104.739 181.422 104.739 186.247 104.743C186.761 104.743 187.275 104.743 187.789 104.744C188.042 104.744 188.295 104.744 188.556 104.744C190.342 104.745 192.128 104.745 193.914 104.745C196.089 104.744 198.264 104.746 200.439 104.75C201.549 104.752 202.66 104.753 203.77 104.752C204.786 104.751 205.801 104.752 206.817 104.756C207.185 104.757 207.554 104.757 207.922 104.756C208.421 104.754 208.92 104.757 209.418 104.759C209.696 104.76 209.974 104.76 210.26 104.76C210.945 104.836 210.945 104.836 211.74 105.44C212.093 107.104 212.093 107.104 212.005 107.855C211.446 108.665 211.129 109.024 210.229 109.213C209.952 109.213 209.676 109.213 209.391 109.213C209.071 109.216 208.751 109.218 208.422 109.221C208.066 109.218 207.711 109.215 207.356 109.212C206.979 109.213 206.602 109.214 206.225 109.216C205.187 109.22 204.15 109.216 203.113 109.212C201.994 109.208 200.876 109.211 199.758 109.213C197.566 109.216 195.375 109.212 193.184 109.207C190.633 109.201 188.082 109.201 185.531 109.201C180.98 109.201 176.429 109.196 171.879 109.187C167.461 109.178 163.043 109.174 158.625 109.174C158.217 109.175 158.217 109.175 157.801 109.175C157.529 109.175 157.257 109.175 156.978 109.175C151.951 109.175 146.925 109.171 141.899 109.166C140.12 109.164 138.341 109.164 136.562 109.163C134.395 109.163 132.228 109.16 130.06 109.155C128.954 109.152 127.848 109.15 126.741 109.151C125.729 109.151 124.717 109.149 123.705 109.145C123.338 109.144 122.971 109.144 122.605 109.145C122.107 109.146 121.609 109.143 121.112 109.14C120.697 109.14 120.697 109.14 120.273 109.139C119.49 109.059 118.91 108.834 118.199 108.459C118.17 108.025 118.15 107.591 118.133 107.157C118.12 106.915 118.108 106.674 118.095 106.425C118.199 105.742 118.199 105.742 118.638 105.253C119.418 104.729 119.915 104.723 120.819 104.723Z" fill="#FDFDFE"/>
<path d="M171.197 53.2136C171.197 53.4128 171.197 53.6121 171.197 53.8173C171.475 53.8646 171.475 53.8646 171.759 53.9129C172.633 54.1492 173.331 54.5364 174.128 55.006C174.399 55.1644 174.67 55.3228 174.949 55.486C175.321 55.706 175.321 55.706 175.702 55.9305C176.054 56.1326 176.408 56.3342 176.761 56.5343C176.424 59.8184 176.038 63.0906 175.548 66.3502C175.472 66.8628 175.398 67.3759 175.327 67.8894C175.217 68.6723 175.096 69.4521 174.973 70.2324C174.941 70.4711 174.909 70.7098 174.876 70.9557C174.657 72.2585 174.409 72.9388 173.451 73.7324C172.941 74.0931 172.436 74.3919 171.892 74.6852C171.364 74.9367 171.364 74.9367 171.197 75.8551C169.43 75.759 167.663 75.6572 165.897 75.5532C165.711 75.5422 165.524 75.5313 165.333 75.52C164.064 75.4451 162.796 75.3687 161.527 75.2908C161.096 75.2645 160.664 75.2386 160.233 75.213C159.618 75.1765 159.002 75.1386 158.387 75.1003C158.202 75.0896 158.017 75.079 157.826 75.0679C156.873 75.0071 155.963 74.8934 155.032 74.6475C155.032 74.5479 155.032 74.4483 155.032 74.3456C155.47 74.3456 155.907 74.3456 156.357 74.3456C156.459 74.094 156.459 74.094 156.562 73.8374C157.082 72.7195 157.762 71.7424 158.421 70.7277C158.804 70.1338 159.178 69.5333 159.543 68.9258C160.51 67.3325 161.406 66.0952 162.832 65.0237C163.289 64.7065 163.289 64.7065 163.512 64.0815C163.687 64.0815 163.862 64.0815 164.042 64.0815C164.071 63.8811 164.1 63.6807 164.13 63.4742C164.172 63.2076 164.214 62.941 164.257 62.6664C164.297 62.4037 164.337 62.141 164.378 61.8704C164.745 60.3403 165.53 59.2871 166.46 58.1381C166.668 57.8789 166.877 57.6197 167.091 57.3527C167.309 57.0826 167.527 56.8126 167.752 56.5343C168.194 55.9751 168.636 55.4154 169.077 54.8551C170.372 53.2136 170.372 53.2136 171.197 53.2136Z" fill="#E5E5E6"/>
<path d="M85.8703 177.893C86.8754 178.073 87.8801 178.255 88.8845 178.44C89.1657 178.49 89.4468 178.54 89.7364 178.591C91.3039 178.882 92.795 179.258 94.3083 179.806C95.0159 180.053 95.723 180.211 96.4533 180.345C97.2053 180.486 97.8646 180.636 98.5898 180.912C98.62 184.249 98.5661 187.546 98.3248 190.874C97.9636 190.79 97.9636 190.79 97.595 190.704C95.5931 190.439 95.5931 190.439 93.7887 191.319C92.0295 193.131 90.6086 195.264 89.3152 197.515C88.6196 198.383 88.6196 198.383 87.9902 199.025C87.8153 199.025 87.6404 199.025 87.4602 199.025C87.4602 199.224 87.4602 199.423 87.4602 199.629C86.6948 200.065 86.1892 200.044 85.3403 199.93C84.4463 199.183 84.0721 198.717 83.8338 197.475C83.7398 196.159 83.8191 194.963 83.9564 193.658C83.9803 193.413 84.0042 193.168 84.0288 192.916C84.105 192.14 84.1843 191.366 84.2638 190.591C84.3163 190.062 84.3686 189.534 84.4206 189.005C84.5481 187.716 84.6784 186.427 84.8103 185.138C85.2733 184.934 85.7372 184.734 86.2015 184.534C86.5889 184.366 86.5889 184.366 86.9841 184.195C87.7252 183.93 87.7252 183.93 88.7852 183.93C88.5614 183.244 88.5614 183.244 87.8567 183.07C87.4555 182.954 87.4555 182.954 87.0462 182.836C86.5707 182.699 86.0952 182.562 85.6053 182.421C85.6927 180.927 85.7802 179.432 85.8703 177.893Z" fill="#333245"/>
<path d="M136.748 20.3078C136.836 20.3078 136.923 20.3078 137.013 20.3078C137.019 20.6254 137.024 20.9429 137.03 21.2701C137.194 22.4584 137.194 22.4584 137.957 23.1946C138.49 23.5703 138.49 23.5703 139.133 23.9305C139.408 24.0904 139.683 24.2504 139.966 24.4151C143.181 26.0962 146.514 26.0503 149.998 26.0437C149.92 26.4717 149.841 26.8993 149.761 27.3267C149.695 27.6839 149.695 27.6839 149.627 28.0484C148.828 31.6157 146.565 34.1236 143.903 36.0059C143.684 36.1643 143.465 36.3227 143.239 36.4859C141.521 37.592 139.759 37.9407 137.808 37.8173C137.624 37.2513 137.44 36.6852 137.256 36.1191C137.101 35.6618 136.937 35.2083 136.762 34.7606C135.198 30.7044 134.704 26.5107 134.893 22.1192C135.331 22.1192 135.768 22.1192 136.218 22.1192C136.393 21.5214 136.568 20.9237 136.748 20.3078Z" fill="#9C6069"/>
<path d="M85.8702 103.629C86.0451 103.629 86.22 103.629 86.4002 103.629C86.391 103.954 86.3818 104.278 86.3723 104.613C86.2463 110.914 87.8029 115.552 91.6048 120.178C93.593 122.525 95.76 124.428 98.1053 126.281C99.0155 127.001 99.9215 127.728 100.826 128.459C101.065 128.651 101.065 128.651 101.31 128.847C102.049 129.445 102.749 130.031 103.36 130.798C101.944 130.561 100.572 130.178 99.1859 129.779C98.951 129.712 98.7161 129.645 98.474 129.576C96.9088 129.124 95.3596 128.637 93.8199 128.081C93.8199 127.882 93.8199 127.683 93.8199 127.478C93.5849 127.446 93.3499 127.415 93.1077 127.383C91.8413 127.18 90.6063 126.827 89.3637 126.487C88.5176 126.256 88.5176 126.256 87.6351 126.129C87.4025 126.076 87.1698 126.023 86.9302 125.968C86.8427 125.769 86.7553 125.57 86.6652 125.364C86.0441 125.09 86.0441 125.09 85.3237 124.874C85.0801 124.795 84.8366 124.717 84.5856 124.636C84.3033 124.548 84.3033 124.548 84.0153 124.459C83.8611 123.738 83.8611 123.738 83.7503 122.949C84.0981 122.402 84.0981 122.402 84.5453 122.044C84.7202 122.044 84.8951 122.044 85.0753 122.044C85.0753 121.844 85.0753 121.645 85.0753 121.44C85.2447 121.353 85.4141 121.266 85.5887 121.176C86.1755 120.888 86.1755 120.888 86.4002 120.232C86.2417 120.164 86.0832 120.095 85.9199 120.025C85.165 119.509 84.9362 119.014 84.5453 118.119C84.455 117.283 84.455 117.283 84.4676 116.387C84.4702 116.065 84.4728 115.743 84.4754 115.411C84.4821 115.078 84.4887 114.745 84.4956 114.402C84.4992 114.063 84.5028 113.725 84.5065 113.376C84.5158 112.542 84.5289 111.708 84.5453 110.874C84.7202 110.874 84.8951 110.874 85.0753 110.874C85.0671 110.581 85.0589 110.288 85.0504 109.986C85.0504 108.647 85.2537 107.375 85.4727 106.063C85.5107 105.827 85.5486 105.592 85.5876 105.35C85.6804 104.776 85.7751 104.202 85.8702 103.629Z" fill="#E0E0E3"/>
<path d="M111.044 100.006C112.056 100.487 112.736 101.229 113.529 102.081C114.288 102.898 115.005 103.618 115.876 104.276C116.779 104.966 117.044 105.486 117.404 106.647C117.607 108.433 117.237 109.729 116.344 111.176C115.578 112.158 114.894 112.63 113.74 112.787C111.803 112.815 111.803 112.815 111.044 112.383C111.044 112.184 111.044 111.985 111.044 111.779C110.891 111.717 110.738 111.655 110.581 111.591C109.698 110.976 109.383 110.428 108.924 109.364C108.838 108.25 108.862 107.16 108.924 106.044C108.759 105.954 108.594 105.865 108.423 105.772C107.854 105.434 107.499 105.072 107.07 104.534C108.295 103.063 108.295 103.063 109.189 102.723C109.266 102.549 109.342 102.374 109.421 102.195C109.82 101.286 110.401 100.7 111.044 100.006Z" fill="#9B606D"/>
<path d="M188.421 27.2512C189.097 28.4057 189.109 28.8978 188.951 30.2701C188.197 31.8779 187.058 33.0417 185.847 34.1982C185.107 34.9311 184.411 35.7078 183.717 36.4965C183.478 36.7681 183.239 37.0398 182.993 37.3196C182.318 38.1006 182.318 38.1006 181.764 38.9588C181.266 39.6286 181.266 39.6286 180.389 39.8927C178.888 39.487 178.395 38.3089 177.556 36.9116C177.343 36.6501 177.13 36.3886 176.911 36.1191C176.337 35.1268 176.364 34.4512 176.497 33.289C176.778 32.7041 176.778 32.7041 177.291 32.3833C178.219 32.2701 178.219 32.2701 179.146 32.3833C179.577 32.8361 179.577 32.8361 179.941 33.289C180.563 33.4579 180.563 33.4579 181.266 33.289C181.961 32.6146 181.961 32.6146 182.591 31.7229C183.444 30.5893 184.311 29.5098 185.241 28.4588C185.4 28.2284 185.558 27.998 185.721 27.7607C186.632 26.9603 187.291 27.1059 188.421 27.2512Z" fill="#F9F8F9"/>
<path d="M121.992 118.261C122.258 118.26 122.525 118.258 122.799 118.257C123.362 118.256 123.926 118.259 124.489 118.264C125.351 118.27 126.212 118.264 127.074 118.256C127.621 118.257 128.169 118.258 128.716 118.261C128.974 118.258 129.231 118.256 129.497 118.253C131.275 118.281 131.275 118.281 132.142 118.979C132.645 119.871 132.639 120.397 132.508 121.44C132.276 122.24 132.276 122.24 131.713 122.949C130.796 123.187 129.886 123.161 128.949 123.15C128.539 123.152 128.539 123.152 128.122 123.154C127.545 123.155 126.968 123.152 126.391 123.146C125.507 123.138 124.624 123.146 123.74 123.156C123.18 123.155 122.619 123.153 122.059 123.15C121.794 123.153 121.53 123.156 121.258 123.159C119.43 123.124 119.43 123.124 118.562 122.24C118.118 121.262 118.037 120.715 118.199 119.629C119.121 117.999 120.457 118.246 121.992 118.261Z" fill="#F6F8FE"/>
<path d="M98.5899 180.912C98.6773 180.912 98.7648 180.912 98.8549 180.912C98.8549 181.709 98.8549 182.506 98.8549 183.327C99.0104 183.323 99.166 183.32 99.3262 183.316C101.094 183.294 102.827 183.431 104.585 183.629C104.984 183.672 104.984 183.672 105.392 183.716C106.039 183.786 106.687 183.858 107.335 183.93C106.76 186.763 106.179 189.587 105.48 192.383C105.917 192.483 106.354 192.582 106.805 192.685C105.811 193.025 105.811 193.025 105.215 192.685C105.215 192.287 105.215 191.888 105.215 191.478C104.914 191.453 104.613 191.428 104.304 191.402C102.277 191.153 100.3 190.524 98.3249 189.968C98.278 186.939 98.4249 183.933 98.5899 180.912Z" fill="#9C636C"/>
<path d="M173.582 46.2702C174.5 46.7185 174.5 46.7185 175.437 47.1758C175.437 47.3751 175.437 47.5743 175.437 47.7796C175.639 47.8232 175.841 47.8668 176.049 47.9117C176.762 48.0815 176.762 48.0815 177.557 48.3834C178.123 48.4085 178.69 48.4158 179.257 48.4129C179.589 48.4119 179.922 48.4109 180.264 48.4099C180.611 48.4074 180.958 48.4049 181.316 48.4022C181.67 48.4007 182.024 48.3994 182.378 48.3981C183.244 48.3946 184.11 48.3896 184.976 48.3834C184.07 49.0719 183.736 49.0533 182.674 49.0249C182.279 49.0167 182.279 49.0167 181.876 49.0084C181.675 49.0014 181.474 48.9944 181.266 48.9872C181.266 49.4853 181.266 49.9834 181.266 50.4966C181.091 50.4966 180.917 50.4966 180.736 50.4966C180.712 50.8328 180.712 50.8328 180.687 51.1758C180.393 52.3073 180.032 52.6126 179.146 53.2136C178.43 53.3949 177.763 53.4586 177.027 53.5154C176.852 54.4121 176.677 55.3087 176.497 56.2324C175.17 56.0674 174.119 55.5558 172.952 54.8551C172.783 54.7556 172.613 54.6562 172.438 54.5538C172.023 54.3105 171.61 54.0642 171.197 53.8173C171.37 52.2197 171.663 51.0322 172.257 49.5909C172.432 49.5909 172.607 49.5909 172.787 49.5909C172.822 49.4018 172.857 49.2127 172.893 49.0178C172.94 48.7711 172.987 48.5244 173.035 48.2702C173.081 48.025 173.127 47.7798 173.175 47.5272C173.317 46.8739 173.317 46.8739 173.582 46.2702Z" fill="#9E646E"/>
<path d="M129.593 131.704C130.038 132.734 130.479 133.766 130.918 134.798C131.045 135.091 131.171 135.383 131.301 135.684C131.421 135.966 131.541 136.248 131.664 136.539C131.83 136.928 131.83 136.928 132 137.325C132.243 138.044 132.243 138.044 132.243 139.251C130.115 139.377 128.215 138.894 126.149 138.346C125.707 138.243 125.266 138.141 124.824 138.044C124.824 137.844 124.824 137.645 124.824 137.44C124.501 137.396 124.179 137.353 123.846 137.308C123.015 137.19 122.198 137.04 121.379 136.836C123.103 132.733 123.103 132.733 124.792 131.958C126.385 131.645 127.981 131.693 129.593 131.704Z" fill="#DEDFE1"/>
</svg>
