<svg width="320" height="200" viewBox="0 0 320 200" fill="none" xmlns="http://www.w3.org/2000/svg">
<g opacity="0.1">
<rect x="5.24591" y="11" width="309.508" height="6" rx="3" fill="#F57760"/>
<rect opacity="0.6" x="33.5375" y="29" width="187.964" height="6.26913" rx="3.13456" fill="#F57760"/>
<rect x="227.267" y="29" width="59.1952" height="6.26913" rx="3.13456" fill="#F57760"/>
<rect x="0.576584" y="47.2691" width="253.886" height="6.26913" rx="3.13456" fill="#F57760"/>
<rect opacity="0.6" x="260.228" y="47.2691" width="59.1952" height="6.26913" rx="3.13456" fill="#F57760"/>
<rect width="201.61" height="6.26913" rx="3.13456" transform="matrix(-1 0 0 1 312.12 65.5383)" fill="#F57760"/>
<rect width="96.8649" height="6.26913" rx="3.13456" transform="matrix(-1 0 0 1 104.745 65.5383)" fill="#F57760"/>
<rect opacity="0.6" x="33.224" y="83.8074" width="253.552" height="6" rx="3" fill="#F57760"/>
<rect width="253.886" height="6.26913" rx="3.13456" transform="matrix(-1 0 0 1 319.423 101.807)" fill="#F57760"/>
<rect width="59.1952" height="6.26913" rx="3.13456" transform="matrix(-1 0 0 1 59.7718 101.807)" fill="#F57760"/>
<rect x="6.99454" y="120.077" width="306.011" height="6" rx="3" fill="#F57760"/>
<rect opacity="0.6" width="187.964" height="6.26913" rx="3.13456" transform="matrix(-1 0 0 1 286.462 138.077)" fill="#F57760"/>
<rect width="59.1952" height="6.26913" rx="3.13456" transform="matrix(-1 0 0 1 92.7327 138.077)" fill="#F57760"/>
<rect x="0.576584" y="156.346" width="253.886" height="6.26913" rx="3.13456" fill="#F57760"/>
<rect x="260.228" y="156.346" width="59.1952" height="6.26913" rx="3.13456" fill="#F57760"/>
<rect opacity="0.6" y="174.615" width="320" height="7" rx="3.5" fill="#F57760"/>
<rect y="193.615" width="320" height="6" rx="3" fill="#F57760"/>
</g>
<path d="M189.118 63.5506C189.796 64.177 190.384 64.7855 190.986 65.4772C191.349 65.8743 191.713 66.2705 192.077 66.6659C192.266 66.8714 192.454 67.0769 192.648 67.2886C196.78 71.8466 196.78 71.8466 202.538 73.4737C203.343 73.4854 203.343 73.4854 204.383 73.3878C204.383 73.6116 204.383 73.8355 204.383 74.0662C204.583 74.0828 204.784 74.0994 204.991 74.1165C206.483 74.2577 207.764 74.4222 209.132 75.0838C209.132 75.3077 209.132 75.5316 209.132 75.7623C209.803 75.9861 210.475 76.21 211.167 76.4407C211.167 76.6646 211.167 76.8884 211.167 77.1191C211.398 77.1821 211.629 77.245 211.867 77.3099C213.279 78.0013 214.182 79.0229 215.238 80.172C215.462 80.4147 215.686 80.6574 215.917 80.9074C217.612 82.7871 217.612 82.7871 217.612 83.5642C217.885 83.5957 217.885 83.5957 218.163 83.6278C220.329 84.3688 221.4 86.0159 222.361 87.974C222.361 88.1978 222.361 88.4217 222.361 88.6524C222.585 88.6524 222.809 88.6524 223.039 88.6524C225.414 93.3195 225.414 93.3195 225.414 94.7582C225.638 94.7582 225.862 94.7582 226.092 94.7582C226.185 95.0475 226.185 95.0475 226.279 95.3426C226.691 96.6087 227.116 97.8239 227.661 99.0408C228.145 100.229 228.337 101.288 228.467 102.56C228.691 102.56 228.915 102.56 229.145 102.56C229.649 104.911 229.649 104.911 230.163 107.309C230.387 107.309 230.611 107.309 230.841 107.309C231.617 110.168 231.617 110.168 231.52 111.719C231.744 111.719 231.968 111.719 232.198 111.719C232.646 113.846 233.094 115.973 233.555 118.164C233.779 118.164 234.003 118.164 234.234 118.164C236.269 125.237 236.269 125.237 236.269 127.662C236.493 127.662 236.717 127.662 236.947 127.662C237.118 128.545 237.287 129.429 237.456 130.312C237.505 130.562 237.553 130.813 237.603 131.071C237.798 132.098 237.965 133.059 237.965 134.107C238.189 134.107 238.413 134.107 238.643 134.107C238.681 134.324 238.718 134.541 238.757 134.765C238.929 135.755 239.104 136.743 239.279 137.732C239.338 138.074 239.397 138.416 239.458 138.768C239.517 139.099 239.576 139.43 239.637 139.772C239.69 140.075 239.744 140.379 239.799 140.692C240.007 141.601 240.317 142.407 240.679 143.266C241.705 146.489 242.288 149.7 242.701 153.053C242.89 154.548 243.149 155.778 243.731 157.174C243.864 157.997 243.976 158.825 244.071 159.654C244.252 161.227 244.523 162.699 244.925 164.228C245.247 165.702 245.344 167.206 245.47 168.707C245.499 169.034 245.529 169.362 245.559 169.699C245.63 170.499 245.699 171.299 245.767 172.099C245.991 172.099 246.215 172.099 246.445 172.099C246.78 175.036 246.836 177.944 246.827 180.897C246.828 181.338 246.829 181.779 246.831 182.234C246.83 182.868 246.83 182.868 246.829 183.514C246.829 183.896 246.829 184.277 246.828 184.67C246.791 185.518 246.693 186.217 246.445 187.024C246.221 187.024 245.997 187.024 245.767 187.024C245.685 187.327 245.604 187.63 245.52 187.943C245.048 189.165 244.547 189.753 243.604 190.65C243.343 190.903 243.081 191.156 242.812 191.417C239.996 193.94 236.967 193.912 233.307 193.887C232.735 193.887 232.735 193.887 232.15 193.887C230.901 193.886 229.652 193.879 228.403 193.872C227.534 193.87 226.664 193.867 225.794 193.865C219.554 193.842 213.315 193.766 207.075 193.66C206.665 193.654 206.255 193.647 205.832 193.64C204.681 193.621 203.529 193.599 202.378 193.577C202.034 193.571 201.69 193.565 201.336 193.56C200.87 193.549 200.87 193.549 200.394 193.539C199.987 193.531 199.987 193.531 199.572 193.523C198.955 193.469 198.955 193.469 198.616 193.13C198.539 192.68 198.482 192.225 198.435 191.771C198.405 191.492 198.375 191.213 198.345 190.925C198.316 190.632 198.286 190.338 198.256 190.035C198.225 189.749 198.194 189.463 198.162 189.168C197.994 187.539 197.904 185.948 197.938 184.311C197.714 184.311 197.49 184.311 197.259 184.311C196.827 181.626 196.447 178.941 196.139 176.24C196 174.977 196 174.977 195.563 173.795C195.196 173.792 194.828 173.788 194.45 173.784C190.991 173.751 187.531 173.716 184.072 173.68C182.294 173.661 180.515 173.643 178.737 173.626C177.021 173.61 175.306 173.592 173.59 173.574C172.935 173.567 172.28 173.56 171.625 173.555C170.708 173.546 169.792 173.536 168.876 173.525C168.604 173.524 168.332 173.522 168.051 173.52C166.96 173.505 166.077 173.464 165.034 173.117C163.985 170.226 163.854 166.989 163.6 163.948C163.432 162.007 163.163 160.122 162.787 158.212C162.293 155.69 162.21 153.303 162.32 150.729C162.096 150.729 161.872 150.729 161.642 150.729C161.602 150.401 161.563 150.074 161.523 149.737C161.377 148.528 161.229 147.319 161.081 146.109C161.017 145.585 160.953 145.061 160.89 144.537C160.8 143.785 160.707 143.033 160.615 142.281C160.573 141.928 160.573 141.928 160.53 141.567C160.471 140.454 160.471 140.454 159.946 139.534C159.847 138.578 159.768 137.626 159.702 136.667C159.67 136.233 159.67 136.233 159.637 135.791C159.569 134.862 159.503 133.933 159.437 133.005C159.371 132.081 159.304 131.157 159.236 130.233C159.194 129.657 159.153 129.081 159.113 128.506C159.016 127.182 158.893 125.905 158.589 124.609C158.253 124.497 157.917 124.385 157.571 124.27C157.459 123.934 157.347 123.598 157.232 123.252C156.335 122.637 155.414 122.176 154.433 121.705C153.501 121.217 153.501 121.217 153.161 120.538C148.994 119.842 144.522 120.06 140.306 119.944C139.529 119.921 138.753 119.899 137.976 119.877C135.947 119.818 133.919 119.761 131.89 119.704C129.814 119.646 127.737 119.586 125.661 119.527C121.599 119.411 117.536 119.296 113.473 119.182C113.473 118.734 113.473 118.286 113.473 117.825C113.249 117.825 113.026 117.825 112.795 117.825C112.623 117.338 112.454 116.85 112.286 116.362C112.192 116.09 112.097 115.819 112 115.539C111.777 114.772 111.777 114.772 111.777 113.754C111.553 113.754 111.33 113.754 111.099 113.754C110.928 113.211 110.758 112.666 110.59 112.122C110.496 111.819 110.401 111.516 110.304 111.203C110.081 110.362 110.081 110.362 110.081 109.344C109.857 109.344 109.633 109.344 109.403 109.344C109.179 108.337 108.955 107.33 108.724 106.292C108.501 106.292 108.277 106.292 108.046 106.292C107.98 106.051 107.915 105.81 107.847 105.561C107.759 105.25 107.671 104.938 107.58 104.617C107.45 104.15 107.45 104.15 107.317 103.675C107.107 102.843 107.107 102.843 106.35 102.56C106.046 101.94 106.046 101.94 105.735 101.118C105.618 100.813 105.501 100.507 105.38 100.192C105.252 99.8543 105.125 99.5163 104.993 99.168C104.851 98.8055 104.71 98.443 104.564 98.0695C101.962 91.3995 101.962 91.3995 102.279 90.0092C102.979 89.3308 102.979 89.3308 103.975 88.6524C104.175 88.5042 104.375 88.3559 104.581 88.2032C105.52 87.5071 106.247 86.9906 107.368 86.6171C107.535 86.2813 107.535 86.2813 107.707 85.9387C109.507 84.921 109.507 84.921 110.76 84.921C110.872 84.5852 110.984 84.2494 111.099 83.9034C111.799 83.6702 111.799 83.6702 112.456 83.5642C112.456 83.3403 112.456 83.1164 112.456 82.8857C114.406 81.8681 114.406 81.8681 115.169 81.8681C115.169 81.6442 115.169 81.4203 115.169 81.1897C115.498 81.0987 115.827 81.0078 116.166 80.9141C116.68 80.7147 116.68 80.7147 117.205 80.5113C117.317 80.1754 117.429 79.8396 117.544 79.4936C118.35 78.9636 118.35 78.9636 119.24 78.476C119.576 78.2521 119.912 78.0282 120.258 77.7975C120.593 77.7975 120.929 77.7975 121.275 77.7975C121.702 78.7833 121.954 79.4244 121.954 80.5113C122.178 80.5113 122.401 80.5113 122.632 80.5113C122.714 80.7697 122.797 81.0281 122.881 81.2944C123.519 83.2588 124.196 85.1507 125.097 87.0106C125.346 87.6347 125.346 87.6347 125.346 88.6524C125.57 88.6524 125.794 88.6524 126.024 88.6524C126.196 89.132 126.365 89.6128 126.533 90.094C126.628 90.3617 126.722 90.6293 126.819 90.905C127.042 91.7053 127.042 91.7053 127.042 93.0622C127.266 93.0622 127.49 93.0622 127.72 93.0622C130.434 98.7041 130.434 98.7041 130.434 101.203C130.658 101.203 130.882 101.203 131.112 101.203C131.448 102.379 131.448 102.379 131.791 103.578C133.113 103.018 134.105 102.125 135.183 101.203C135.824 100.664 136.468 100.127 137.112 99.592C137.587 99.1959 137.587 99.1959 138.07 98.7917C138.914 98.1504 138.914 98.1504 139.932 97.8112C140.505 97.2534 141.069 96.6871 141.628 96.1151C142.079 95.7793 142.079 95.7793 142.54 95.4367C143.401 94.692 143.674 94.1383 144.003 93.0622C144.227 93.0622 144.45 93.0622 144.681 93.0622C144.758 92.6844 144.835 92.3066 144.914 91.9173C145.572 89.3094 146.709 87.0407 148.752 85.2602C148.989 85.0154 149.227 84.7705 149.472 84.5182C150.108 83.9034 150.108 83.9034 151.126 83.225C152.335 81.0494 153.235 78.7403 154.179 76.4407C154.515 75.6477 154.855 74.8568 155.197 74.0662C155.421 74.0662 155.644 74.0662 155.875 74.0662C156.001 73.7199 156.001 73.7199 156.13 73.3666C156.269 73.0377 156.409 72.7089 156.554 72.3701C156.714 71.9643 156.875 71.5586 157.041 71.1405C157.547 70.2432 157.858 70.0171 158.829 69.618C159.763 69.3649 160.689 69.1504 161.642 68.978C161.642 68.7541 161.642 68.5302 161.642 68.2996C163.209 68.2996 164.776 68.2996 166.391 68.2996C166.391 68.0757 166.391 67.8518 166.391 67.6211C167.961 67.0194 169.43 66.8082 171.097 66.7307C171.331 66.7176 171.564 66.7045 171.805 66.6909C172.375 66.6593 172.944 66.631 173.514 66.6035C173.514 66.3796 173.514 66.1557 173.514 65.9251C173.94 65.8595 174.366 65.7939 174.805 65.7263C180.026 65.0297 180.026 65.0298 185.048 63.5506C186.514 63.2625 187.692 63.0754 189.118 63.5506ZM220.326 159.887C219.984 163.627 219.951 167.33 219.987 171.081C221.106 171.081 222.225 171.081 223.379 171.081C223.33 170.495 223.281 169.908 223.23 169.322C223.203 168.995 223.175 168.668 223.147 168.332C223.047 167.422 222.895 166.547 222.7 165.654C222.476 165.654 222.252 165.654 222.022 165.654C221.981 165.437 221.94 165.219 221.897 164.995C221.562 163.263 221.179 161.576 220.665 159.887C220.553 159.887 220.441 159.887 220.326 159.887Z" fill="#F57760"/>
<path d="M186.467 63.3135C188.225 63.11 189.824 64.1427 190.986 65.4772C191.349 65.8743 191.713 66.2705 192.077 66.6659C192.266 66.8714 192.454 67.0769 192.648 67.2886C196.733 71.795 196.78 71.8461 202.345 73.419C202.471 73.4546 202.605 73.4748 202.736 73.4765C203.26 73.4834 203.399 73.4787 204.015 73.4221C204.212 73.404 204.383 73.5562 204.383 73.7542C204.383 73.9291 204.517 74.0773 204.691 74.0917C204.79 74.0999 204.89 74.1082 204.991 74.1165C206.378 74.2478 207.583 74.3993 208.845 74.9517C209.022 75.0291 209.132 75.204 209.132 75.397C209.132 75.6136 209.27 75.8085 209.476 75.877C209.932 76.0289 210.389 76.1814 210.854 76.3365C211.041 76.3987 211.167 76.5708 211.167 76.7676C211.167 76.9736 211.305 77.1567 211.504 77.211C211.598 77.2367 211.693 77.2627 211.789 77.2889C211.841 77.3029 211.891 77.3217 211.938 77.3456C213.31 78.0362 214.2 79.0425 215.238 80.172C215.462 80.4147 215.686 80.6574 215.917 80.9074C217.173 82.3006 217.499 82.6612 217.583 83.0709C217.639 83.3473 217.802 83.5861 218.082 83.6184C218.122 83.623 218.183 83.6343 218.22 83.6476C220.306 84.383 221.367 85.9688 222.304 87.8592C222.342 87.9345 222.361 88.0177 222.361 88.1017C222.361 88.145 222.361 88.1884 222.361 88.2318C222.361 88.4641 222.547 88.6524 222.779 88.6524C222.937 88.6524 223.086 88.7445 223.158 88.8856C225.186 92.8715 225.391 93.2939 225.412 94.3658C225.416 94.5823 225.587 94.7582 225.803 94.7582C225.974 94.7582 226.128 94.8685 226.18 95.031C226.205 95.1101 226.228 95.1834 226.279 95.3426C226.691 96.6087 227.116 97.8239 227.661 99.0408C228.1 100.117 228.298 101.086 228.428 102.204C228.452 102.406 228.619 102.56 228.822 102.56C229.009 102.56 229.174 102.692 229.213 102.875C229.627 104.809 229.67 105.007 230.09 106.967C230.132 107.166 230.306 107.309 230.509 107.309C230.704 107.309 230.877 107.441 230.928 107.629C231.552 109.932 231.608 110.196 231.543 111.334C231.531 111.543 231.694 111.719 231.902 111.719C232.073 111.719 232.223 111.839 232.259 112.006C232.663 113.926 233.067 115.848 233.483 117.82C233.525 118.02 233.699 118.164 233.904 118.164C234.098 118.164 234.272 118.297 234.325 118.483C236.162 124.867 236.263 125.25 236.268 127.289C236.269 127.494 236.433 127.662 236.638 127.662C236.816 127.662 236.972 127.788 237.005 127.963C237.156 128.746 237.307 129.529 237.456 130.312C237.505 130.562 237.553 130.813 237.603 131.071C237.775 131.977 237.925 132.831 237.958 133.739C237.965 133.942 238.127 134.107 238.331 134.107C238.51 134.107 238.666 134.236 238.696 134.413C238.716 134.529 238.736 134.646 238.757 134.765C238.929 135.755 239.104 136.743 239.279 137.732C239.338 138.074 239.397 138.416 239.458 138.768C239.517 139.099 239.576 139.43 239.637 139.772C239.69 140.075 239.744 140.379 239.799 140.692C240.007 141.601 240.317 142.407 240.679 143.266C241.705 146.489 242.288 149.7 242.701 153.053C242.778 153.666 242.867 154.234 242.986 154.787C243.334 156.414 243.882 158.001 244.071 159.654C244.252 161.227 244.523 162.699 244.925 164.228C245.247 165.702 245.344 167.206 245.47 168.707C245.499 169.034 245.529 169.362 245.559 169.699C245.62 170.385 245.679 171.07 245.738 171.756C245.754 171.95 245.914 172.099 246.108 172.099C246.299 172.099 246.462 172.242 246.482 172.431C246.784 175.255 246.835 178.055 246.827 180.897C246.828 181.338 246.829 181.779 246.831 182.234C246.83 182.868 246.83 182.868 246.829 183.514C246.829 183.896 246.829 184.277 246.828 184.67C246.796 185.404 246.718 186.027 246.537 186.704C246.486 186.895 246.313 187.024 246.115 187.024C245.911 187.024 245.73 187.161 245.677 187.358C245.625 187.551 245.573 187.745 245.52 187.943C245.048 189.165 244.547 189.753 243.604 190.65C243.343 190.903 243.081 191.156 242.812 191.417C239.996 193.94 236.967 193.912 233.307 193.887C232.735 193.887 232.735 193.887 232.15 193.887C230.901 193.886 229.652 193.879 228.403 193.872C227.534 193.87 226.664 193.867 225.794 193.865C219.554 193.842 213.315 193.766 207.075 193.66C206.665 193.654 206.255 193.647 205.832 193.64C204.681 193.621 203.529 193.599 202.378 193.577C202.034 193.571 201.69 193.565 201.336 193.56C200.87 193.549 200.87 193.549 200.394 193.539C199.987 193.531 199.987 193.531 199.572 193.523C198.875 193.462 198.547 192.76 198.467 192.065C198.456 191.967 198.445 191.869 198.435 191.771C198.405 191.492 198.375 191.213 198.345 190.925C198.316 190.632 198.286 190.338 198.256 190.035C198.225 189.749 198.194 189.463 198.162 189.168C198.007 187.662 197.918 186.188 197.932 184.68C197.934 184.477 197.773 184.311 197.57 184.311C197.393 184.311 197.238 184.182 197.21 184.006C196.798 181.423 196.435 178.839 196.139 176.24C196.059 175.512 196.025 175.204 195.927 174.847C195.75 174.201 195.12 173.791 194.45 173.784C190.991 173.751 187.531 173.716 184.072 173.68C182.294 173.661 180.515 173.643 178.737 173.626C177.021 173.61 175.306 173.592 173.59 173.574C172.935 173.567 172.28 173.56 171.625 173.555C170.708 173.546 169.792 173.536 168.876 173.525C168.604 173.524 168.332 173.522 168.051 173.52C166.12 173.494 164.604 172.063 164.258 170.163C163.885 168.112 163.77 165.986 163.6 163.948C163.432 162.007 163.163 160.122 162.787 158.212C162.317 155.811 162.219 153.531 162.306 151.095C162.313 150.895 162.156 150.729 161.956 150.729C161.778 150.729 161.626 150.596 161.605 150.419C161.578 150.194 161.55 149.968 161.523 149.737C161.377 148.528 161.229 147.319 161.081 146.109C161.017 145.585 160.953 145.061 160.89 144.537C160.8 143.785 160.707 143.033 160.615 142.281C160.573 141.928 160.573 141.928 160.53 141.567C160.455 140.149 159.862 138.806 159.754 137.39C159.736 137.149 159.718 136.909 159.702 136.667C159.67 136.233 159.67 136.233 159.637 135.791C159.569 134.862 159.503 133.933 159.437 133.005C159.371 132.081 159.304 131.157 159.236 130.233C159.194 129.657 159.153 129.081 159.113 128.506C159.03 127.37 158.928 126.27 158.708 125.162C158.64 124.817 158.389 124.543 158.056 124.431C157.753 124.331 157.512 124.092 157.411 123.789C157.397 123.746 157.383 123.704 157.368 123.661C157.28 123.396 157.108 123.165 156.872 123.014C156.089 122.514 155.283 122.113 154.433 121.705C153.442 121.186 152.51 120.419 151.398 120.297C147.749 119.897 143.932 120.044 140.306 119.944C139.529 119.921 138.753 119.899 137.976 119.877C135.947 119.818 133.919 119.761 131.89 119.704C129.814 119.646 127.737 119.586 125.661 119.527C121.822 119.417 117.982 119.308 114.142 119.2C113.77 119.19 113.473 118.885 113.473 118.513C113.473 118.416 113.473 118.319 113.473 118.222C113.473 118.003 113.298 117.825 113.079 117.825C112.91 117.825 112.757 117.718 112.702 117.559C112.562 117.161 112.424 116.761 112.286 116.362C112.192 116.09 112.097 115.819 112 115.539C111.81 114.886 111.782 114.789 111.778 114.146C111.777 113.93 111.605 113.754 111.389 113.754C111.218 113.754 111.064 113.643 111.013 113.48C110.871 113.028 110.73 112.575 110.59 112.122C110.496 111.819 110.401 111.516 110.304 111.203C110.113 110.481 110.086 110.379 110.082 109.721C110.081 109.514 109.915 109.344 109.707 109.344C109.531 109.344 109.376 109.222 109.337 109.05C109.16 108.25 108.982 107.449 108.8 106.631C108.756 106.433 108.583 106.292 108.38 106.292C108.184 106.292 108.01 106.161 107.959 105.972C107.922 105.837 107.885 105.7 107.847 105.561C107.759 105.25 107.671 104.938 107.58 104.617C107.45 104.15 107.45 104.15 107.317 103.675C107.315 103.664 107.312 103.654 107.309 103.644C107.063 102.667 106.092 102.06 105.735 101.118C105.618 100.813 105.501 100.507 105.38 100.192C105.252 99.8543 105.125 99.5163 104.993 99.168C104.851 98.8055 104.71 98.443 104.564 98.0695C103.3 94.8301 102.65 93.164 102.352 92.1477C101.952 90.7842 102.801 89.4521 103.975 88.6524C104.175 88.5042 104.375 88.3559 104.581 88.2032C105.401 87.5958 106.058 87.1251 106.957 86.7668C107.217 86.6633 107.43 86.4916 107.555 86.2416C107.649 86.0539 107.805 85.8829 107.988 85.7799C109.184 85.1056 109.481 84.9607 110.126 84.9296C110.504 84.9113 110.839 84.6829 110.959 84.3241C111.046 84.0617 111.253 83.8496 111.516 83.7661C111.732 83.6978 111.859 83.6661 112.065 83.6291C112.29 83.5888 112.456 83.3989 112.456 83.1705C112.456 82.9971 112.553 82.8347 112.707 82.7546C114.055 82.0522 114.355 81.9063 114.784 81.876C114.996 81.8611 115.169 81.6982 115.169 81.4855C115.169 81.3122 115.285 81.1577 115.452 81.1115C115.687 81.0464 115.924 80.981 116.166 80.9141C116.389 80.8277 116.515 80.7788 116.629 80.7345C116.994 80.5931 117.275 80.3004 117.399 79.9293C117.492 79.6496 117.677 79.4049 117.924 79.2439C118.381 78.9463 118.517 78.8718 119.24 78.476C119.489 78.3101 119.738 78.1442 119.991 77.9756C120.165 77.8595 120.366 77.7975 120.576 77.7975C120.999 77.7975 121.389 78.0468 121.544 78.4404C121.762 78.9967 121.902 79.4871 121.942 80.1196C121.955 80.3356 122.127 80.5113 122.343 80.5113C122.514 80.5113 122.667 80.6217 122.719 80.7843C122.773 80.9525 122.826 81.1218 122.881 81.2944C123.519 83.2588 124.196 85.1507 125.097 87.0106C125.308 87.5401 125.34 87.6204 125.345 88.2538C125.347 88.4738 125.522 88.6524 125.742 88.6524C125.91 88.6524 126.062 88.7579 126.119 88.9162C126.258 89.3083 126.396 89.701 126.533 90.094C126.628 90.3617 126.722 90.6293 126.819 90.905C127.016 91.6133 127.039 91.6947 127.042 92.6449C127.042 92.875 127.226 93.0622 127.456 93.0622C127.616 93.0622 127.766 93.1579 127.836 93.3022C130.29 98.4057 130.426 98.7197 130.434 100.815C130.434 101.029 130.605 101.203 130.818 101.203C130.991 101.203 131.145 101.318 131.193 101.484C131.274 101.769 131.332 101.973 131.384 102.154C131.6 102.911 132.435 103.307 133.09 102.871C133.827 102.382 134.487 101.799 135.183 101.203C135.824 100.664 136.468 100.127 137.112 99.592C137.587 99.1959 137.587 99.1959 138.07 98.7917C138.171 98.715 138.26 98.6474 138.34 98.5873C139.28 97.8824 140.372 97.389 141.198 96.5534C141.485 96.2625 141.793 95.9925 142.121 95.7483C142.223 95.6723 142.337 95.5878 142.54 95.4367C143.315 94.7664 143.613 94.2508 143.905 93.3698C143.965 93.1879 144.131 93.0622 144.323 93.0622C144.53 93.0622 144.711 92.9164 144.752 92.7134C144.806 92.451 144.859 92.1869 144.914 91.9173C145.572 89.3094 146.709 87.0407 148.752 85.2602C148.989 85.0154 149.227 84.7705 149.472 84.5182C150.467 83.5569 151.492 82.6014 152.085 81.3518C152.847 79.7451 153.502 78.0905 154.179 76.4407C154.472 75.7485 154.769 75.058 155.067 74.3678C155.145 74.1847 155.323 74.0662 155.523 74.0662C155.733 74.0662 155.923 73.9347 155.995 73.7373C156.029 73.6434 156.061 73.5555 156.13 73.3666C156.269 73.0377 156.409 72.7089 156.554 72.3701C156.714 71.9643 156.875 71.5586 157.041 71.1405C157.547 70.2432 157.858 70.0171 158.829 69.618C159.663 69.3919 160.492 69.1965 161.338 69.0345C161.514 69.0009 161.642 68.8504 161.642 68.6717C161.642 68.4675 161.807 68.2996 162.011 68.2996C163.325 68.2996 164.642 68.2996 165.989 68.2996C166.211 68.2996 166.391 68.1222 166.391 67.9002C166.391 67.7337 166.493 67.5812 166.65 67.525C168.124 66.9964 169.522 66.8039 171.097 66.7307C171.331 66.7176 171.564 66.7045 171.805 66.6909C172.256 66.6659 172.707 66.643 173.158 66.6208C173.357 66.611 173.514 66.449 173.514 66.249C173.514 66.0641 173.649 65.9043 173.832 65.8761C174.153 65.8268 174.475 65.7771 174.805 65.7263C180.026 65.0297 180.026 65.0298 185.048 63.5506C185.547 63.4524 186.013 63.366 186.467 63.3135ZM220.514 159.887C220.408 159.887 220.318 159.968 220.309 160.074C220.031 163.212 219.967 166.324 219.976 169.463C219.979 170.359 220.7 171.081 221.596 171.081C222.547 171.081 223.312 170.269 223.23 169.322C223.203 168.995 223.175 168.668 223.147 168.332C223.06 167.534 222.931 166.762 222.77 165.981C222.73 165.79 222.564 165.654 222.368 165.654C222.169 165.654 221.995 165.512 221.958 165.316C221.938 165.21 221.918 165.104 221.897 164.995C221.571 163.312 221.201 161.673 220.709 160.033C220.683 159.946 220.604 159.887 220.514 159.887Z" fill="#F57760"/>
<path d="M82.1386 117.747C82.3855 117.747 82.6323 117.747 82.8866 117.747C83.6974 117.748 84.508 117.754 85.3188 117.761C85.8905 117.764 86.4623 117.766 87.034 117.768C95.7363 117.816 104.444 118.04 113.134 118.503C113.246 118.279 113.358 118.055 113.474 117.825C113.474 118.272 113.474 118.72 113.474 119.182C113.715 119.18 113.957 119.178 114.206 119.177C121.326 119.135 128.434 119.271 135.551 119.476C136.655 119.508 137.759 119.537 138.864 119.567C139.947 119.596 141.03 119.626 142.114 119.657C142.621 119.671 143.128 119.685 143.636 119.698C146.819 119.785 149.987 119.944 153.162 120.199C153.273 120.535 153.385 120.871 153.501 121.217C153.889 121.269 153.889 121.269 154.285 121.323C155.288 121.579 155.533 121.833 156.214 122.574C156.452 122.686 156.69 122.798 156.935 122.913C157.571 123.252 157.571 123.252 157.911 124.27C158.162 124.522 158.162 124.522 158.419 124.779C159.579 125.938 159.397 127.672 159.499 129.215C159.541 129.804 159.584 130.392 159.626 130.981C159.691 131.907 159.755 132.833 159.818 133.759C159.879 134.654 159.943 135.549 160.008 136.444C160.026 136.718 160.043 136.992 160.062 137.274C160.181 138.902 160.482 140.341 160.963 141.909C161.051 142.426 161.125 142.946 161.178 143.467C161.221 143.876 161.221 143.876 161.264 144.293C161.291 144.569 161.318 144.846 161.345 145.131C161.374 145.408 161.404 145.685 161.434 145.97C161.595 147.565 161.672 149.126 161.642 150.728C161.866 150.728 162.09 150.728 162.32 150.728C162.329 150.977 162.338 151.225 162.347 151.481C162.509 154.58 162.992 157.571 163.526 160.625C163.907 162.842 164.149 164.992 164.263 167.239C164.391 168.804 164.687 170.325 164.98 171.866C165.378 174.015 165.614 176.166 165.802 178.342C165.918 179.597 166.081 180.789 166.397 182.01C167.084 184.657 167.114 187.356 167.069 190.077C167.293 190.189 167.517 190.301 167.748 190.416C167.524 191.2 167.3 191.984 167.069 192.791C167.684 192.743 168.299 192.693 168.914 192.643C169.256 192.615 169.599 192.587 169.951 192.559C170.779 192.543 170.779 192.543 171.14 192.113C171.9 191.994 172.664 191.896 173.428 191.806C173.661 191.778 173.893 191.75 174.132 191.722C174.88 191.631 175.628 191.543 176.376 191.455C180.943 191.059 180.943 191.059 185.387 190.077C185.888 189.074 185.747 188.129 185.726 187.024C189.7 186.982 193.635 187.083 197.599 187.364C197.599 186.356 197.599 185.349 197.599 184.311C197.71 184.311 197.822 184.311 197.938 184.311C198.274 187.221 198.609 190.132 198.955 193.13C205.112 193.242 211.269 193.354 217.612 193.469C216.934 194.826 216.934 194.826 216.255 195.165C215.775 195.234 215.293 195.286 214.81 195.328C214.509 195.355 214.207 195.382 213.896 195.41C213.401 195.451 213.401 195.451 212.895 195.493C212.549 195.522 212.204 195.551 211.848 195.582C207.612 195.929 203.369 196.15 199.125 196.374C197.919 196.438 196.714 196.502 195.508 196.568C194.767 196.608 194.026 196.647 193.285 196.685C191.538 196.78 189.832 196.933 188.101 197.201C187.603 197.238 187.105 197.267 186.606 197.284C186.194 197.3 186.194 197.3 185.774 197.317C185.478 197.327 185.183 197.338 184.878 197.349C180.966 197.51 177.061 197.757 173.154 198.016C172.934 198.03 172.713 198.044 172.486 198.059C171.012 198.155 169.539 198.263 168.067 198.379C160.503 198.955 152.94 199.102 145.358 199.238C143.892 199.264 142.426 199.292 140.96 199.32C136.208 199.411 131.455 199.495 126.703 199.575C126.384 199.581 126.065 199.586 125.736 199.592C114.186 199.787 102.636 199.941 91.0846 199.974C90.2045 199.977 89.3244 199.98 88.4442 199.985C87.2509 199.991 86.0576 199.993 84.8643 199.993C84.5144 199.995 84.1645 199.997 83.8041 200C83.4845 199.999 83.1649 199.998 82.8357 199.997C82.422 199.998 82.422 199.998 82 199.998C80.6053 199.843 79.8167 199.202 78.8737 198.218C78.37 197.883 78.37 197.883 77.8561 197.54C77.8561 197.204 77.8561 196.868 77.8561 196.522C77.5202 196.41 77.1844 196.298 76.8384 196.183C75.7516 194.553 75.7777 192.508 75.7254 190.61C75.7129 190.184 75.7004 189.759 75.6876 189.32C75.6817 189.095 75.6757 188.87 75.6696 188.638C75.6509 187.928 75.6304 187.217 75.6094 186.507C75.5653 184.997 75.5233 183.488 75.4816 181.979C75.4332 180.23 75.3838 178.482 75.3324 176.734C75.3124 176.038 75.2939 175.342 75.2755 174.646C75.2118 172.129 75.2118 172.129 74.972 169.624C74.7663 168.093 74.7024 166.577 74.6455 165.035C74.6192 164.384 74.5929 163.732 74.5665 163.081C74.5533 162.743 74.54 162.405 74.5264 162.057C74.3352 157.208 74.1306 152.366 73.7643 147.527C73.3887 142.491 73.2157 137.459 73.1071 132.411C73.0973 132.012 73.0876 131.612 73.0776 131.201C73.0526 130.085 73.0357 128.969 73.0223 127.853C73.015 127.528 73.0077 127.203 73.0002 126.868C72.9869 124.122 73.5379 121.918 75.4816 119.86C77.4341 118.013 79.5197 117.738 82.1386 117.747Z" fill="#3F3D56"/>
<path d="M182.673 3.50971C182.966 3.67456 183.258 3.83941 183.56 4.00925C184.347 4.51292 184.829 4.96897 185.408 5.69339C185.989 6.40457 186.55 7.04329 187.21 7.68628C187.762 8.2587 187.762 8.2587 187.762 8.93713C188.097 9.04907 188.433 9.16101 188.779 9.27634C189.276 9.89382 189.276 9.89382 189.776 10.6756C189.953 10.9515 190.13 11.2274 190.312 11.5117C190.732 12.1954 191.14 12.882 191.535 13.5801C192.151 14.7056 192.151 14.7056 192.871 15.7214C193.437 16.5973 193.847 17.4314 194.234 18.3954C194.642 19.3359 195.115 20.2375 195.585 21.1488C196.164 22.2899 196.685 23.3639 197.005 24.6046C197.089 24.9194 197.173 25.2342 197.259 25.5586C197.483 25.6705 197.707 25.7825 197.938 25.8978C198.227 26.7114 198.227 26.7114 198.489 27.7211C198.577 28.0525 198.666 28.384 198.757 28.7255C198.956 29.6292 198.956 29.6292 198.956 30.6468C199.291 30.7588 199.627 30.8707 199.973 30.986C200.296 31.615 200.296 31.615 200.568 32.4317C200.669 32.7275 200.77 33.0233 200.874 33.3281C201.026 33.7954 201.026 33.7954 201.182 34.2722C201.285 34.5772 201.388 34.8821 201.494 35.1964C201.694 35.7905 201.892 36.3853 202.087 36.9808C202.295 37.6101 202.511 38.2366 202.729 38.8621C203.068 39.9377 203.294 41.0107 203.514 42.1165C203.792 43.4773 204.085 44.7354 204.616 46.0174C205.147 47.5082 205.172 48.9667 205.189 50.5332C205.193 50.7765 205.198 51.0197 205.203 51.2704C205.188 52.9958 204.81 54.2033 204.044 55.7486C203.26 55.7486 202.477 55.7486 201.669 55.7486C201.664 55.9493 201.66 56.15 201.655 56.3568C201.639 56.6249 201.622 56.8929 201.606 57.1691C201.594 57.4328 201.582 57.6964 201.57 57.9681C201.214 59.2056 200.643 59.7092 199.634 60.4976C198.693 60.7628 197.877 60.9439 196.92 61.07C195.364 61.3012 193.968 61.5858 192.51 62.1937C190.317 62.7804 188.099 63.2506 185.878 63.7202C184.516 64.016 183.29 64.3876 181.995 64.9074C181.118 65.1109 180.251 65.2958 179.366 65.4586C179.127 65.5034 178.887 65.5481 178.64 65.5942C176.908 65.9019 175.277 66.0195 173.515 65.925C173.515 66.1489 173.515 66.3728 173.515 66.6035C173.171 66.6485 172.827 66.6936 172.473 66.74C172.015 66.8004 171.556 66.861 171.098 66.9215C170.872 66.951 170.646 66.9805 170.414 67.0109C169.068 67.1891 167.729 67.3898 166.391 67.6211C166.391 67.845 166.391 68.0689 166.391 68.2995C159.056 69.0667 150.857 69.4294 143.664 67.6211C143.368 67.5483 143.073 67.4755 142.768 67.4005C141.826 67.1614 140.889 66.9079 139.954 66.6459C139.666 66.5671 139.378 66.4883 139.082 66.4072C137.419 65.9032 136.445 65.4538 135.523 63.8898C135.523 63.6659 135.523 63.442 135.523 63.2113C135.299 63.2113 135.075 63.2113 134.844 63.2113C134.142 56.2146 133.819 49.202 133.487 42.1801C132.867 42.1184 132.867 42.1184 132.235 42.0555C131.684 41.9982 131.134 41.9408 130.583 41.8833C130.311 41.8566 130.04 41.8299 129.761 41.8024C128.105 41.6267 126.594 41.3302 125.007 40.8232C124.977 39.5866 124.959 38.35 124.943 37.1131C124.931 36.5933 124.931 36.5933 124.917 36.063C124.899 34.0875 125.083 32.5352 125.787 30.6919C126.187 29.473 126.205 28.2531 126.237 26.9791C126.342 23.973 126.342 23.973 126.703 22.8449C126.927 22.8449 127.151 22.8449 127.381 22.8449C127.392 22.3726 127.392 22.3726 127.403 21.8909C127.72 19.6393 129.264 17.5292 130.878 15.9944C133.262 14.3962 136.434 13.9521 139.254 13.6861C139.59 13.5742 139.926 13.4622 140.272 13.3469C140.507 12.7854 140.732 12.2195 140.95 11.6508C143.125 8.90678 146.387 6.15934 149.77 5.20577C149.77 4.98189 149.77 4.75801 149.77 4.52735C150.553 4.30347 151.337 4.07958 152.144 3.84892C152.144 3.62504 152.144 3.40116 152.144 3.17049C153.111 2.83576 154.08 2.50408 155.049 2.17405C155.32 2.07982 155.591 1.98559 155.871 1.8885C163.677 -0.756183 175.598 -0.973334 182.673 3.50971ZM160.285 32.3429C160.285 34.022 160.285 35.7011 160.285 37.4311C159.949 37.543 159.614 37.655 159.268 37.7703C159.268 37.9942 159.268 38.2181 159.268 38.4487C158.988 38.5327 158.708 38.6166 158.419 38.7031C157.055 39.1906 155.801 39.8136 154.519 40.484C154.519 40.7079 154.519 40.9318 154.519 41.1624C154.318 41.2035 154.117 41.2446 153.91 41.287C152.223 41.641 152.223 41.641 150.596 42.2013C148.629 42.958 146.425 42.9074 144.342 42.8916C144.097 42.8912 143.853 42.8907 143.601 42.8902C142.83 42.8883 142.06 42.884 141.289 42.8797C140.762 42.878 140.235 42.8765 139.708 42.8751C138.426 42.8714 137.144 42.8655 135.862 42.8585C136.086 43.9779 136.31 45.0973 136.54 46.2506C136.764 46.2506 136.988 46.2506 137.219 46.2506C137.233 46.5725 137.247 46.8943 137.261 47.2259C137.525 49.0694 138.59 50.4889 139.593 52.0173C139.779 52.3129 139.965 52.6085 140.156 52.913C140.854 54.0188 140.854 54.0188 141.628 55.0702C141.852 55.0702 142.076 55.0702 142.307 55.0702C142.307 55.2941 142.307 55.518 142.307 55.7486C142.524 55.7836 142.741 55.8186 142.964 55.8546C143.195 55.9316 143.426 56.0086 143.664 56.0878C143.776 56.4237 143.888 56.7595 144.003 57.1055C144.672 57.646 145.327 58.1324 146.038 58.6108C146.24 58.7468 146.441 58.8828 146.649 59.023C150.411 61.5176 154.711 62.8119 159.268 62.5329C160.094 60.5607 160.822 58.5966 161.401 56.537C161.642 55.7486 161.642 55.7486 161.97 54.9609C162.558 53.4383 162.847 51.8502 163.19 50.2576C163.265 49.9216 163.34 49.5855 163.417 49.2393C164.105 46.0702 164.414 43.0029 164.377 39.7632C164.375 39.5034 164.374 39.2437 164.372 38.9761C164.368 38.348 164.362 37.7199 164.356 37.0919C163.684 37.0919 163.012 37.0919 162.32 37.0919C162.292 36.875 162.264 36.6581 162.236 36.4346C161.881 34.9869 161.255 33.6892 160.624 32.3429C160.512 32.3429 160.401 32.3429 160.285 32.3429Z" fill="#302F42"/>
<path d="M160.285 32.3429C161.304 32.8524 161.387 33.6538 161.756 34.6909C162.009 35.4836 162.192 36.2697 162.32 37.0919C162.992 37.0919 163.664 37.0919 164.356 37.0919C164.512 44.1855 163.568 51.1453 160.964 57.7839C160.783 58.3126 160.605 58.8424 160.434 59.374C160.082 60.4443 159.703 61.4933 159.267 62.5329C153.579 62.8812 148.559 60.7598 144.165 57.2685C143.664 56.7663 143.664 56.7663 143.664 56.0878C143.216 55.9759 142.768 55.864 142.307 55.7486C142.307 55.5247 142.307 55.3009 142.307 55.0702C141.803 54.9023 141.803 54.9023 141.289 54.731C140.89 54.2235 140.89 54.2235 140.505 53.5649C140.361 53.3209 140.217 53.0769 140.069 52.8256C139.912 52.5588 139.755 52.2921 139.593 52.0173C139.412 51.7365 139.23 51.4558 139.043 51.1666C137.98 49.4984 137.305 48.2402 137.219 46.2506C136.995 46.2506 136.771 46.2506 136.54 46.2506C136.316 45.1312 136.092 44.0118 135.862 42.8585C136.183 42.862 136.504 42.8656 136.835 42.8693C138.043 42.8809 139.25 42.8894 140.458 42.8958C140.978 42.8991 141.498 42.9038 142.017 42.9097C145.517 42.9485 148.799 42.8543 152.123 41.6288C153.027 41.2973 153.535 41.1624 154.518 41.1624C154.518 40.9385 154.518 40.7147 154.518 40.484C155.182 40.1431 155.846 39.8043 156.511 39.4664C156.881 39.2775 157.251 39.0886 157.632 38.8939C158.589 38.4487 158.589 38.4487 159.267 38.4487C159.435 37.945 159.435 37.945 159.607 37.4311C159.831 37.4311 160.054 37.4311 160.285 37.4311C160.285 35.752 160.285 34.0729 160.285 32.3429Z" fill="#9C6069"/>
<path d="M105.672 48.9644C106.485 49.7777 106.466 50.0949 106.562 51.2116C106.587 51.4889 106.613 51.7661 106.639 52.0517C106.655 52.2642 106.672 52.4768 106.689 52.6957C106.913 52.6957 107.137 52.6957 107.368 52.6957C109.383 57.7042 109.383 57.7042 109.933 59.2044C110.842 61.6546 111.84 64.0633 113.028 66.3915C113.882 68.066 114.491 69.4464 114.491 71.3525C114.715 71.3525 114.939 71.3525 115.17 71.3525C115.281 71.9122 115.393 72.4719 115.509 73.0485C115.733 73.0485 115.957 73.0485 116.187 73.0485C116.491 73.9726 116.786 74.898 117.078 75.8259C117.164 76.0867 117.251 76.3475 117.34 76.6162C117.711 77.8178 117.936 78.5759 117.661 79.8222C117.01 80.8053 116.285 80.9229 115.17 81.1897C115.17 81.4136 115.17 81.6374 115.17 81.8681C113.219 82.8857 113.219 82.8857 112.456 82.8857C112.456 83.1096 112.456 83.3335 112.456 83.5642C112.239 83.6621 112.022 83.7601 111.799 83.861C111.047 84.1843 111.047 84.1843 110.76 84.921C108.959 85.9387 108.959 85.9387 107.707 85.9387C107.539 86.4424 107.539 86.4424 107.368 86.9563C106.92 86.8444 106.472 86.7324 106.011 86.6171C106.011 86.0574 106.011 85.4977 106.011 84.921C105.787 84.921 105.563 84.921 105.332 84.921C105.105 84.0874 104.879 83.2535 104.654 82.4193C104.589 82.1823 104.524 81.9453 104.458 81.7011C103.975 79.9097 103.975 79.9097 103.975 79.1544C103.752 79.1544 103.528 79.1544 103.297 79.1544C103.235 78.8881 103.174 78.6218 103.11 78.3474C102.564 75.9965 102.564 75.9965 101.707 73.7482C101.27 72.7295 101.163 72.1044 101.262 71.0133C101.038 71.0133 100.814 71.0133 100.583 71.0133C100.469 70.5882 100.354 70.1632 100.236 69.7253C100.083 69.1652 99.9306 68.6052 99.7777 68.0451C99.6649 67.6254 99.6649 67.6254 99.5498 67.1971C99.4755 66.926 99.4011 66.6549 99.3245 66.3756C99.257 66.1269 99.1895 65.8782 99.12 65.6219C98.9062 64.8947 98.9062 64.8947 98.5207 64.222C98.2089 63.5506 98.2089 63.5506 98.2089 62.1937C97.8101 62.2077 97.4113 62.2217 97.0004 62.2361C95.5887 62.2411 94.4555 61.9602 93.1206 61.5153C93.1206 61.2914 93.1206 61.0675 93.1206 60.8368C92.9317 60.7669 92.7428 60.6969 92.5482 60.6248C91.4259 59.9575 90.8426 59.1779 90.0677 58.1231C90.0677 57.7873 90.0677 57.4515 90.0677 57.1055C89.8438 57.1055 89.62 57.1055 89.3893 57.1055C89.0501 56.4271 89.0501 56.4271 89.0501 54.0526C96.6061 53.8847 96.6061 53.8847 104.315 53.7133C104.427 53.3775 104.539 53.0417 104.654 52.6957C104.878 52.5838 105.102 52.4718 105.332 52.3565C105.491 51.5573 105.491 51.5573 105.544 50.6392C105.57 50.3275 105.595 50.0157 105.621 49.6945C105.638 49.4535 105.654 49.2126 105.672 48.9644Z" fill="#A1636C"/>
<path d="M165.034 173.117C169.003 173.137 172.972 173.163 176.94 173.197C178.783 173.212 180.626 173.225 182.469 173.234C184.246 173.243 186.023 173.257 187.8 173.274C188.479 173.279 189.158 173.283 189.838 173.285C190.786 173.289 191.735 173.298 192.684 173.309C192.967 173.309 193.25 173.308 193.541 173.308C194.323 173.321 194.323 173.321 195.563 173.456C196.297 174.556 196.379 175.09 196.519 176.38C196.561 176.753 196.603 177.127 196.647 177.511C196.688 177.901 196.729 178.291 196.772 178.692C196.856 179.462 196.941 180.232 197.027 181.002C197.064 181.344 197.101 181.685 197.138 182.037C197.242 182.821 197.401 183.547 197.599 184.311C197.621 184.847 197.628 185.385 197.62 185.922C197.617 186.193 197.614 186.464 197.61 186.743C197.607 186.948 197.603 187.153 197.599 187.364C193.627 187.409 189.69 187.284 185.726 187.024C185.726 186.8 185.726 186.577 185.726 186.346C185.473 186.337 185.221 186.329 184.961 186.32C175.694 186.004 175.694 186.004 171.818 185.668C171.723 185.929 171.629 186.19 171.531 186.46C171.039 187.597 170.348 188.222 169.444 189.06C169.269 189.263 169.094 189.465 168.914 189.674C168.426 190.077 168.426 190.077 167.069 190.077C167.052 189.886 167.035 189.695 167.018 189.498C166.938 188.616 166.855 187.736 166.772 186.855C166.746 186.554 166.719 186.253 166.692 185.943C166.663 185.646 166.635 185.348 166.606 185.042C166.581 184.772 166.556 184.502 166.53 184.224C166.403 183.244 166.403 183.244 166.067 182.122C165.612 180.328 165.478 178.519 165.331 176.678C165.302 176.335 165.272 175.991 165.242 175.637C165.171 174.797 165.101 173.957 165.034 173.117Z" fill="#9D606C"/>
<path d="M172.635 185.478C172.981 185.492 173.327 185.505 173.684 185.519C174.098 185.534 174.511 185.548 174.938 185.563C175.481 185.596 176.024 185.631 176.567 185.668C176.937 185.692 177.306 185.716 177.687 185.742C180.368 185.924 183.047 186.128 185.726 186.346C185.802 186.833 185.871 187.321 185.938 187.809C185.978 188.08 186.017 188.352 186.057 188.632C186.065 189.399 186.065 189.399 185.387 190.417C184.444 190.703 184.444 190.703 183.182 190.925C182.953 190.966 182.723 191.007 182.487 191.049C179.685 191.522 176.856 191.814 174.031 192.112C173.477 192.171 173.477 192.171 172.912 192.232C172.412 192.283 172.412 192.283 171.902 192.336C171.152 192.373 171.152 192.373 170.801 192.791C170.172 192.816 169.543 192.819 168.914 192.812C168.571 192.809 168.227 192.806 167.874 192.803C167.608 192.799 167.343 192.795 167.069 192.791C166.921 191.901 166.921 191.901 167.069 190.756C167.765 189.945 168.544 189.295 169.444 188.72C169.668 188.72 169.892 188.72 170.122 188.72C170.213 188.532 170.304 188.343 170.398 188.148C170.597 187.76 170.597 187.76 170.801 187.364C170.939 187.071 171.076 186.778 171.218 186.476C171.818 185.668 171.818 185.668 172.635 185.478Z" fill="#343144"/>
<path d="M76.1599 27.5938C83.4361 27.5938 90.7122 27.5938 98.2088 27.5938C98.548 29.2899 98.548 29.2899 98.2088 29.9683C90.9327 29.9683 83.6566 29.9683 76.1599 29.9683C75.8207 28.2723 75.8207 28.2723 76.1599 27.5938Z" fill="#F57760"/>
<path d="M78.8353 32.9774C79.2541 32.9763 79.6729 32.9753 80.1045 32.9742C80.5635 32.9748 81.0224 32.9755 81.4814 32.9763C81.9504 32.976 82.4193 32.9757 82.8882 32.9753C83.8715 32.9748 84.8547 32.9755 85.8379 32.9771C87.0995 32.979 88.3611 32.9779 89.6227 32.9759C90.5912 32.9746 91.5596 32.975 92.5281 32.9759C92.9933 32.9761 93.4586 32.9759 93.9238 32.9751C94.5735 32.9742 95.2232 32.9758 95.8728 32.9774C96.2429 32.9777 96.613 32.978 96.9943 32.9782C97.8697 33.0213 97.8697 33.0213 98.5481 33.3605C98.5626 33.9257 98.5619 34.4914 98.5481 35.0566C97.9367 35.6681 97.0068 35.4391 96.1829 35.4397C95.7494 35.4408 95.3159 35.4418 94.8692 35.4429C94.3924 35.4423 93.9156 35.4416 93.4387 35.4409C92.9533 35.4411 92.4678 35.4414 91.9824 35.4418C90.9638 35.4423 89.9452 35.4416 88.9266 35.44C87.6181 35.4381 86.3097 35.4392 85.0013 35.4412C83.9985 35.4425 82.9958 35.4421 81.993 35.4412C81.5104 35.441 81.0279 35.4413 80.5453 35.442C79.8719 35.4429 79.1986 35.4414 78.5252 35.4397C77.9494 35.4393 77.9494 35.4393 77.3619 35.4389C76.4992 35.3958 76.4992 35.3958 76.16 35.0566C76.1462 34.4914 76.1455 33.9257 76.16 33.3605C77.081 32.9 77.8043 32.9782 78.8353 32.9774Z" fill="#F57760"/>
<path d="M76.1599 38.4487C83.436 38.4487 90.7121 38.4487 98.2088 38.4487C98.3767 39.2883 98.3767 39.2883 98.548 40.1448C98.2088 40.484 98.2088 40.484 97.3309 40.5248C96.94 40.5241 96.549 40.5233 96.1462 40.5225C95.4841 40.5225 95.4841 40.5225 94.8086 40.5224C94.3232 40.5207 93.8378 40.5189 93.3524 40.5171C92.8586 40.5165 92.3647 40.516 91.8709 40.5157C90.5687 40.5144 89.2666 40.5111 87.9644 40.5073C86.6366 40.5038 85.3088 40.5023 83.981 40.5006C81.3739 40.4969 78.7669 40.4911 76.1599 40.484C76.1599 39.8124 76.1599 39.1407 76.1599 38.4487Z" fill="#F57760"/>
<path d="M82.1386 117.747C82.3855 117.747 82.6323 117.747 82.8866 117.747C83.6974 117.748 84.508 117.754 85.3188 117.761C85.8905 117.764 86.4623 117.766 87.034 117.768C95.7363 117.816 104.444 118.04 113.134 118.503C113.246 118.279 113.358 118.055 113.474 117.825C113.474 118.272 113.474 118.72 113.474 119.182C113.715 119.18 113.957 119.178 114.206 119.177C121.326 119.135 128.434 119.271 135.551 119.476C136.655 119.508 137.759 119.537 138.864 119.567C139.947 119.596 141.03 119.626 142.114 119.657C142.621 119.671 143.128 119.685 143.636 119.698C146.819 119.785 149.987 119.944 153.162 120.199C153.273 120.535 153.385 120.871 153.501 121.217C153.889 121.269 153.889 121.269 154.285 121.323C155.288 121.579 155.533 121.833 156.214 122.574C156.452 122.686 156.69 122.798 156.935 122.913C157.571 123.252 157.571 123.252 157.911 124.27C158.162 124.522 158.162 124.522 158.419 124.779C159.579 125.938 159.397 127.672 159.499 129.215C159.541 129.804 159.584 130.392 159.626 130.981C159.691 131.907 159.755 132.833 159.818 133.759C159.879 134.654 159.943 135.549 160.008 136.444C160.026 136.718 160.043 136.992 160.062 137.274C160.181 138.902 160.482 140.341 160.963 141.909C161.051 142.426 161.125 142.946 161.178 143.467C161.221 143.876 161.221 143.876 161.264 144.293C161.291 144.569 161.318 144.846 161.345 145.131C161.374 145.408 161.404 145.685 161.434 145.97C161.595 147.565 161.672 149.126 161.642 150.728C161.866 150.728 162.09 150.728 162.32 150.728C162.329 150.977 162.338 151.225 162.347 151.481C162.509 154.58 162.992 157.571 163.526 160.625C163.907 162.842 164.149 164.992 164.263 167.239C164.391 168.804 164.687 170.325 164.98 171.866C165.378 174.015 165.614 176.166 165.802 178.342C165.918 179.597 166.081 180.789 166.397 182.01C167.084 184.657 167.114 187.356 167.069 190.077C167.293 190.189 167.517 190.301 167.748 190.416C167.524 191.2 167.3 191.984 167.069 192.791C167.684 192.743 168.299 192.693 168.914 192.643C169.256 192.615 169.599 192.587 169.951 192.559C170.779 192.543 170.779 192.543 171.14 192.113C171.9 191.994 172.664 191.896 173.428 191.806C173.661 191.778 173.893 191.75 174.132 191.722C174.88 191.631 175.628 191.543 176.376 191.455C180.943 191.059 180.943 191.059 185.387 190.077C185.888 189.074 185.747 188.129 185.726 187.024C189.7 186.982 193.635 187.083 197.599 187.364C197.599 186.356 197.599 185.349 197.599 184.311C197.71 184.311 197.822 184.311 197.938 184.311C198.274 187.221 198.609 190.132 198.955 193.13C205.112 193.242 211.269 193.354 217.612 193.469C216.934 194.826 216.934 194.826 216.255 195.165C215.775 195.234 215.293 195.286 214.81 195.328C214.509 195.355 214.207 195.382 213.896 195.41C213.401 195.451 213.401 195.451 212.895 195.493C212.549 195.522 212.204 195.551 211.848 195.582C207.612 195.929 203.369 196.15 199.125 196.374C197.919 196.438 196.714 196.502 195.508 196.568C194.767 196.608 194.026 196.647 193.285 196.685C191.538 196.78 189.832 196.933 188.101 197.201C187.603 197.238 187.105 197.267 186.606 197.284C186.194 197.3 186.194 197.3 185.774 197.317C185.478 197.327 185.183 197.338 184.878 197.349C180.966 197.51 177.061 197.757 173.154 198.016C172.934 198.03 172.713 198.044 172.486 198.059C171.012 198.155 169.539 198.263 168.067 198.379C160.503 198.955 152.94 199.102 145.358 199.238C143.892 199.264 142.426 199.292 140.96 199.32C136.208 199.411 131.455 199.495 126.703 199.575C126.384 199.581 126.065 199.586 125.736 199.592C114.186 199.787 102.636 199.941 91.0846 199.974C90.2045 199.977 89.3244 199.98 88.4442 199.985C87.2509 199.991 86.0576 199.993 84.8643 199.993C84.5144 199.995 84.1645 199.997 83.8041 200C83.4845 199.999 83.1649 199.998 82.8357 199.997C82.422 199.998 82.422 199.998 82 199.998C80.6053 199.843 79.8167 199.202 78.8737 198.218C78.37 197.883 78.37 197.883 77.8561 197.54C77.8561 197.204 77.8561 196.868 77.8561 196.522C77.5202 196.41 77.1844 196.298 76.8384 196.183C75.7516 194.553 75.7777 192.508 75.7254 190.61C75.7129 190.184 75.7004 189.759 75.6876 189.32C75.6817 189.095 75.6757 188.87 75.6696 188.638C75.6509 187.928 75.6304 187.217 75.6094 186.507C75.5653 184.997 75.5233 183.488 75.4816 181.979C75.4332 180.23 75.3838 178.482 75.3324 176.734C75.3124 176.038 75.2939 175.342 75.2755 174.646C75.2118 172.129 75.2118 172.129 74.972 169.624C74.7663 168.093 74.7024 166.577 74.6455 165.035C74.6192 164.384 74.5929 163.732 74.5665 163.081C74.5533 162.743 74.54 162.405 74.5264 162.057C74.3352 157.208 74.1306 152.366 73.7643 147.527C73.3887 142.491 73.2157 137.459 73.1071 132.411C73.0973 132.012 73.0876 131.612 73.0776 131.201C73.0526 130.085 73.0357 128.969 73.0223 127.853C73.015 127.528 73.0077 127.203 73.0002 126.868C72.9869 124.122 73.5379 121.918 75.4816 119.86C77.4341 118.013 79.5197 117.738 82.1386 117.747Z" fill="#3F3D56"/>
<path d="M182.673 3.50971C182.966 3.67456 183.258 3.83941 183.56 4.00925C184.347 4.51292 184.829 4.96897 185.408 5.69339C185.989 6.40457 186.55 7.04329 187.21 7.68628C187.762 8.2587 187.762 8.2587 187.762 8.93713C188.097 9.04907 188.433 9.16101 188.779 9.27634C189.276 9.89382 189.276 9.89382 189.776 10.6756C189.953 10.9515 190.13 11.2274 190.312 11.5117C190.732 12.1954 191.14 12.882 191.535 13.5801C192.151 14.7056 192.151 14.7056 192.871 15.7214C193.437 16.5973 193.847 17.4314 194.234 18.3954C194.642 19.3359 195.115 20.2375 195.585 21.1488C196.164 22.2899 196.685 23.3639 197.005 24.6046C197.089 24.9194 197.173 25.2342 197.259 25.5586C197.483 25.6705 197.707 25.7825 197.938 25.8978C198.227 26.7114 198.227 26.7114 198.489 27.7211C198.577 28.0525 198.666 28.384 198.757 28.7255C198.956 29.6292 198.956 29.6292 198.956 30.6468C199.291 30.7588 199.627 30.8707 199.973 30.986C200.296 31.615 200.296 31.615 200.568 32.4317C200.669 32.7275 200.77 33.0233 200.874 33.3281C201.026 33.7954 201.026 33.7954 201.182 34.2722C201.285 34.5772 201.388 34.8821 201.494 35.1964C201.694 35.7905 201.892 36.3853 202.087 36.9808C202.295 37.6101 202.511 38.2366 202.729 38.8621C203.068 39.9377 203.294 41.0107 203.514 42.1165C203.792 43.4773 204.085 44.7354 204.616 46.0174C205.147 47.5082 205.172 48.9667 205.189 50.5332C205.193 50.7765 205.198 51.0197 205.203 51.2704C205.188 52.9958 204.81 54.2033 204.044 55.7486C203.26 55.7486 202.477 55.7486 201.669 55.7486C201.664 55.9493 201.66 56.15 201.655 56.3568C201.639 56.6249 201.622 56.8929 201.606 57.1691C201.594 57.4328 201.582 57.6964 201.57 57.9681C201.214 59.2056 200.643 59.7092 199.634 60.4976C198.693 60.7628 197.877 60.9439 196.92 61.07C195.364 61.3012 193.968 61.5858 192.51 62.1937C190.317 62.7804 188.099 63.2506 185.878 63.7202C184.516 64.016 183.29 64.3876 181.995 64.9074C181.118 65.1109 180.251 65.2958 179.366 65.4586C179.127 65.5034 178.887 65.5481 178.64 65.5942C176.908 65.9019 175.277 66.0195 173.515 65.925C173.515 66.1489 173.515 66.3728 173.515 66.6035C173.171 66.6485 172.827 66.6936 172.473 66.74C172.015 66.8004 171.556 66.861 171.098 66.9215C170.872 66.951 170.646 66.9805 170.414 67.0109C169.068 67.1891 167.729 67.3898 166.391 67.6211C166.391 67.845 166.391 68.0689 166.391 68.2995C159.056 69.0667 150.857 69.4294 143.664 67.6211C143.368 67.5483 143.073 67.4755 142.768 67.4005C141.826 67.1614 140.889 66.9079 139.954 66.6459C139.666 66.5671 139.378 66.4883 139.082 66.4072C137.419 65.9032 136.445 65.4538 135.523 63.8898C135.523 63.6659 135.523 63.442 135.523 63.2113C135.299 63.2113 135.075 63.2113 134.844 63.2113C134.142 56.2146 133.819 49.202 133.487 42.1801C132.867 42.1184 132.867 42.1184 132.235 42.0555C131.684 41.9982 131.134 41.9408 130.583 41.8833C130.311 41.8566 130.04 41.8299 129.761 41.8024C128.105 41.6267 126.594 41.3302 125.007 40.8232C124.977 39.5866 124.959 38.35 124.943 37.1131C124.931 36.5933 124.931 36.5933 124.917 36.063C124.899 34.0875 125.083 32.5352 125.787 30.6919C126.187 29.473 126.205 28.2531 126.237 26.9791C126.342 23.973 126.342 23.973 126.703 22.8449C126.927 22.8449 127.151 22.8449 127.381 22.8449C127.392 22.3726 127.392 22.3726 127.403 21.8909C127.72 19.6393 129.264 17.5292 130.878 15.9944C133.262 14.3962 136.434 13.9521 139.254 13.6861C139.59 13.5742 139.926 13.4622 140.272 13.3469C140.507 12.7854 140.732 12.2195 140.95 11.6508C143.125 8.90678 146.387 6.15934 149.77 5.20577C149.77 4.98189 149.77 4.75801 149.77 4.52735C150.553 4.30347 151.337 4.07958 152.144 3.84892C152.144 3.62504 152.144 3.40116 152.144 3.17049C153.111 2.83576 154.08 2.50408 155.049 2.17405C155.32 2.07982 155.591 1.98559 155.871 1.8885C163.677 -0.756183 175.598 -0.973334 182.673 3.50971ZM160.285 32.3429C160.285 34.022 160.285 35.7011 160.285 37.4311C159.949 37.543 159.614 37.655 159.268 37.7703C159.268 37.9942 159.268 38.2181 159.268 38.4487C158.988 38.5327 158.708 38.6166 158.419 38.7031C157.055 39.1906 155.801 39.8136 154.519 40.484C154.519 40.7079 154.519 40.9318 154.519 41.1624C154.318 41.2035 154.117 41.2446 153.91 41.287C152.223 41.641 152.223 41.641 150.596 42.2013C148.629 42.958 146.425 42.9074 144.342 42.8916C144.097 42.8912 143.853 42.8907 143.601 42.8902C142.83 42.8883 142.06 42.884 141.289 42.8797C140.762 42.878 140.235 42.8765 139.708 42.8751C138.426 42.8714 137.144 42.8655 135.862 42.8585C136.086 43.9779 136.31 45.0973 136.54 46.2506C136.764 46.2506 136.988 46.2506 137.219 46.2506C137.233 46.5725 137.247 46.8943 137.261 47.2259C137.525 49.0694 138.59 50.4889 139.593 52.0173C139.779 52.3129 139.965 52.6085 140.156 52.913C140.854 54.0188 140.854 54.0188 141.628 55.0702C141.852 55.0702 142.076 55.0702 142.307 55.0702C142.307 55.2941 142.307 55.518 142.307 55.7486C142.524 55.7836 142.741 55.8186 142.964 55.8546C143.195 55.9316 143.426 56.0086 143.664 56.0878C143.776 56.4237 143.888 56.7595 144.003 57.1055C144.672 57.646 145.327 58.1324 146.038 58.6108C146.24 58.7468 146.441 58.8828 146.649 59.023C150.411 61.5176 154.711 62.8119 159.268 62.5329C160.094 60.5607 160.822 58.5966 161.401 56.537C161.642 55.7486 161.642 55.7486 161.97 54.9609C162.558 53.4383 162.847 51.8502 163.19 50.2576C163.265 49.9216 163.34 49.5855 163.417 49.2393C164.105 46.0702 164.414 43.0029 164.377 39.7632C164.375 39.5034 164.374 39.2437 164.372 38.9761C164.368 38.348 164.362 37.7199 164.356 37.0919C163.684 37.0919 163.012 37.0919 162.32 37.0919C162.292 36.875 162.264 36.6581 162.236 36.4346C161.881 34.9869 161.255 33.6892 160.624 32.3429C160.512 32.3429 160.401 32.3429 160.285 32.3429Z" fill="#302F42"/>
<path d="M160.285 32.3429C161.304 32.8524 161.387 33.6538 161.756 34.6909C162.009 35.4836 162.192 36.2697 162.32 37.0919C162.992 37.0919 163.664 37.0919 164.356 37.0919C164.512 44.1855 163.568 51.1453 160.964 57.7839C160.783 58.3126 160.605 58.8424 160.434 59.374C160.082 60.4443 159.703 61.4933 159.267 62.5329C153.579 62.8812 148.559 60.7598 144.165 57.2685C143.664 56.7663 143.664 56.7663 143.664 56.0878C143.216 55.9759 142.768 55.864 142.307 55.7486C142.307 55.5247 142.307 55.3009 142.307 55.0702C141.803 54.9023 141.803 54.9023 141.289 54.731C140.89 54.2235 140.89 54.2235 140.505 53.5649C140.361 53.3209 140.217 53.0769 140.069 52.8256C139.912 52.5588 139.755 52.2921 139.593 52.0173C139.412 51.7365 139.23 51.4558 139.043 51.1666C137.98 49.4984 137.305 48.2402 137.219 46.2506C136.995 46.2506 136.771 46.2506 136.54 46.2506C136.316 45.1312 136.092 44.0118 135.862 42.8585C136.183 42.862 136.504 42.8656 136.835 42.8693C138.043 42.8809 139.25 42.8894 140.458 42.8958C140.978 42.8991 141.498 42.9038 142.017 42.9097C145.517 42.9485 148.799 42.8543 152.123 41.6288C153.027 41.2973 153.535 41.1624 154.518 41.1624C154.518 40.9385 154.518 40.7147 154.518 40.484C155.182 40.1431 155.846 39.8043 156.511 39.4664C156.881 39.2775 157.251 39.0886 157.632 38.8939C158.589 38.4487 158.589 38.4487 159.267 38.4487C159.435 37.945 159.435 37.945 159.607 37.4311C159.831 37.4311 160.054 37.4311 160.285 37.4311C160.285 35.752 160.285 34.0729 160.285 32.3429Z" fill="#9C6069"/>
<path d="M105.672 48.9644C106.485 49.7777 106.466 50.0949 106.562 51.2116C106.587 51.4889 106.613 51.7661 106.639 52.0517C106.655 52.2642 106.672 52.4768 106.689 52.6957C106.913 52.6957 107.137 52.6957 107.368 52.6957C109.383 57.7042 109.383 57.7042 109.933 59.2044C110.842 61.6546 111.84 64.0633 113.028 66.3915C113.882 68.066 114.491 69.4464 114.491 71.3525C114.715 71.3525 114.939 71.3525 115.17 71.3525C115.281 71.9122 115.393 72.4719 115.509 73.0485C115.733 73.0485 115.957 73.0485 116.187 73.0485C116.491 73.9726 116.786 74.898 117.078 75.8259C117.164 76.0867 117.251 76.3475 117.34 76.6162C117.711 77.8178 117.936 78.5759 117.661 79.8222C117.01 80.8053 116.285 80.9229 115.17 81.1897C115.17 81.4136 115.17 81.6374 115.17 81.8681C113.219 82.8857 113.219 82.8857 112.456 82.8857C112.456 83.1096 112.456 83.3335 112.456 83.5642C112.239 83.6621 112.022 83.7601 111.799 83.861C111.047 84.1843 111.047 84.1843 110.76 84.921C108.959 85.9387 108.959 85.9387 107.707 85.9387C107.539 86.4424 107.539 86.4424 107.368 86.9563C106.92 86.8444 106.472 86.7324 106.011 86.6171C106.011 86.0574 106.011 85.4977 106.011 84.921C105.787 84.921 105.563 84.921 105.332 84.921C105.105 84.0874 104.879 83.2535 104.654 82.4193C104.589 82.1823 104.524 81.9453 104.458 81.7011C103.975 79.9097 103.975 79.9097 103.975 79.1544C103.752 79.1544 103.528 79.1544 103.297 79.1544C103.235 78.8881 103.174 78.6218 103.11 78.3474C102.564 75.9965 102.564 75.9965 101.707 73.7482C101.27 72.7295 101.163 72.1044 101.262 71.0133C101.038 71.0133 100.814 71.0133 100.583 71.0133C100.469 70.5882 100.354 70.1632 100.236 69.7253C100.083 69.1652 99.9306 68.6052 99.7777 68.0451C99.6649 67.6254 99.6649 67.6254 99.5498 67.1971C99.4755 66.926 99.4011 66.6549 99.3245 66.3756C99.257 66.1269 99.1895 65.8782 99.12 65.6219C98.9062 64.8947 98.9062 64.8947 98.5207 64.222C98.2089 63.5506 98.2089 63.5506 98.2089 62.1937C97.8101 62.2077 97.4113 62.2217 97.0004 62.2361C95.5887 62.2411 94.4555 61.9602 93.1206 61.5153C93.1206 61.2914 93.1206 61.0675 93.1206 60.8368C92.9317 60.7669 92.7428 60.6969 92.5482 60.6248C91.4259 59.9575 90.8426 59.1779 90.0677 58.1231C90.0677 57.7873 90.0677 57.4515 90.0677 57.1055C89.8438 57.1055 89.62 57.1055 89.3893 57.1055C89.0501 56.4271 89.0501 56.4271 89.0501 54.0526C96.6061 53.8847 96.6061 53.8847 104.315 53.7133C104.427 53.3775 104.539 53.0417 104.654 52.6957C104.878 52.5838 105.102 52.4718 105.332 52.3565C105.491 51.5573 105.491 51.5573 105.544 50.6392C105.57 50.3275 105.595 50.0157 105.621 49.6945C105.638 49.4535 105.654 49.2126 105.672 48.9644Z" fill="#A1636C"/>
<path d="M165.034 173.117C169.003 173.137 172.972 173.163 176.94 173.197C178.783 173.212 180.626 173.225 182.469 173.234C184.246 173.243 186.023 173.257 187.8 173.274C188.479 173.279 189.158 173.283 189.838 173.285C190.786 173.289 191.735 173.298 192.684 173.309C192.967 173.309 193.25 173.308 193.541 173.308C194.323 173.321 194.323 173.321 195.563 173.456C196.297 174.556 196.379 175.09 196.519 176.38C196.561 176.753 196.603 177.127 196.647 177.511C196.688 177.901 196.729 178.291 196.772 178.692C196.856 179.462 196.941 180.232 197.027 181.002C197.064 181.344 197.101 181.685 197.138 182.037C197.242 182.821 197.401 183.547 197.599 184.311C197.621 184.847 197.628 185.385 197.62 185.922C197.617 186.193 197.614 186.464 197.61 186.743C197.607 186.948 197.603 187.153 197.599 187.364C193.627 187.409 189.69 187.284 185.726 187.024C185.726 186.8 185.726 186.577 185.726 186.346C185.473 186.337 185.221 186.329 184.961 186.32C175.694 186.004 175.694 186.004 171.818 185.668C171.723 185.929 171.629 186.19 171.531 186.46C171.039 187.597 170.348 188.222 169.444 189.06C169.269 189.263 169.094 189.465 168.914 189.674C168.426 190.077 168.426 190.077 167.069 190.077C167.052 189.886 167.035 189.695 167.018 189.498C166.938 188.616 166.855 187.736 166.772 186.855C166.746 186.554 166.719 186.253 166.692 185.943C166.663 185.646 166.635 185.348 166.606 185.042C166.581 184.772 166.556 184.502 166.53 184.224C166.403 183.244 166.403 183.244 166.067 182.122C165.612 180.328 165.478 178.519 165.331 176.678C165.302 176.335 165.272 175.991 165.242 175.637C165.171 174.797 165.101 173.957 165.034 173.117Z" fill="#9D606C"/>
<path d="M172.635 185.478C172.981 185.492 173.327 185.505 173.684 185.519C174.098 185.534 174.511 185.548 174.938 185.563C175.481 185.596 176.024 185.631 176.567 185.668C176.937 185.692 177.306 185.716 177.687 185.742C180.368 185.924 183.047 186.128 185.726 186.346C185.802 186.833 185.871 187.321 185.938 187.809C185.978 188.08 186.017 188.352 186.057 188.632C186.065 189.399 186.065 189.399 185.387 190.417C184.444 190.703 184.444 190.703 183.182 190.925C182.953 190.966 182.723 191.007 182.487 191.049C179.685 191.522 176.856 191.814 174.031 192.112C173.477 192.171 173.477 192.171 172.912 192.232C172.412 192.283 172.412 192.283 171.902 192.336C171.152 192.373 171.152 192.373 170.801 192.791C170.172 192.816 169.543 192.819 168.914 192.812C168.571 192.809 168.227 192.806 167.874 192.803C167.608 192.799 167.343 192.795 167.069 192.791C166.921 191.901 166.921 191.901 167.069 190.756C167.765 189.945 168.544 189.295 169.444 188.72C169.668 188.72 169.892 188.72 170.122 188.72C170.213 188.532 170.304 188.343 170.398 188.148C170.597 187.76 170.597 187.76 170.801 187.364C170.939 187.071 171.076 186.778 171.218 186.476C171.818 185.668 171.818 185.668 172.635 185.478Z" fill="#343144"/>
<path d="M76.1599 27.5938C83.4361 27.5938 90.7122 27.5938 98.2088 27.5938C98.548 29.2899 98.548 29.2899 98.2088 29.9683C90.9327 29.9683 83.6566 29.9683 76.1599 29.9683C75.8207 28.2723 75.8207 28.2723 76.1599 27.5938Z" fill="#F57760"/>
<path d="M78.8353 32.9774C79.2541 32.9763 79.6729 32.9753 80.1045 32.9742C80.5635 32.9748 81.0224 32.9755 81.4814 32.9763C81.9504 32.976 82.4193 32.9757 82.8882 32.9753C83.8715 32.9748 84.8547 32.9755 85.8379 32.9771C87.0995 32.979 88.3611 32.9779 89.6227 32.9759C90.5912 32.9746 91.5596 32.975 92.5281 32.9759C92.9933 32.9761 93.4586 32.9759 93.9238 32.9751C94.5735 32.9742 95.2232 32.9758 95.8728 32.9774C96.2429 32.9777 96.613 32.978 96.9943 32.9782C97.8697 33.0213 97.8697 33.0213 98.5481 33.3605C98.5626 33.9257 98.5619 34.4914 98.5481 35.0566C97.9367 35.6681 97.0068 35.4391 96.1829 35.4397C95.7494 35.4408 95.3159 35.4418 94.8692 35.4429C94.3924 35.4423 93.9156 35.4416 93.4387 35.4409C92.9533 35.4411 92.4678 35.4414 91.9824 35.4418C90.9638 35.4423 89.9452 35.4416 88.9266 35.44C87.6181 35.4381 86.3097 35.4392 85.0013 35.4412C83.9985 35.4425 82.9958 35.4421 81.993 35.4412C81.5104 35.441 81.0279 35.4413 80.5453 35.442C79.8719 35.4429 79.1986 35.4414 78.5252 35.4397C77.9494 35.4393 77.9494 35.4393 77.3619 35.4389C76.4992 35.3958 76.4992 35.3958 76.16 35.0566C76.1462 34.4914 76.1455 33.9257 76.16 33.3605C77.081 32.9 77.8043 32.9782 78.8353 32.9774Z" fill="#F57760"/>
<path d="M76.1599 38.4487C83.436 38.4487 90.7121 38.4487 98.2088 38.4487C98.3767 39.2883 98.3767 39.2883 98.548 40.1448C98.2088 40.484 98.2088 40.484 97.3309 40.5248C96.94 40.5241 96.549 40.5233 96.1462 40.5225C95.4841 40.5225 95.4841 40.5225 94.8086 40.5224C94.3232 40.5207 93.8378 40.5189 93.3524 40.5171C92.8586 40.5165 92.3647 40.516 91.8709 40.5157C90.5687 40.5144 89.2666 40.5111 87.9644 40.5073C86.6366 40.5038 85.3088 40.5023 83.981 40.5006C81.3739 40.4969 78.7669 40.4911 76.1599 40.484C76.1599 39.8124 76.1599 39.1407 76.1599 38.4487Z" fill="#F57760"/>
<path d="M95.4953 10.6332C97.3803 11.286 98.84 12.312 99.9051 14.0254C99.9051 14.2492 99.9051 14.4731 99.9051 14.7038C100.129 14.7038 100.353 14.7038 100.583 14.7038C101.221 16.6163 101.282 18.7805 100.603 20.6904C99.4792 22.8118 98.1363 24.114 95.8345 24.8802C94.74 24.9703 94.74 24.9703 93.5872 24.965C93.205 24.9668 92.8229 24.9685 92.4291 24.9703C91.4247 24.8802 91.4247 24.8802 90.4071 24.2018C90.8682 24.2313 90.8682 24.2313 91.3386 24.2614C94.0554 24.362 96.0661 24.2852 98.209 22.5057C99.7156 20.8861 99.9216 19.2179 99.9051 17.0783C99.8097 15.2477 99.2655 14.2688 97.9122 13.0289C96.129 11.5407 94.3589 11.4505 92.1031 11.6509C90.0001 12.094 88.8783 12.9263 87.6934 14.7038C87.2444 15.7936 87.2444 15.7936 87.0149 16.7391C86.5808 15.7525 86.7 15.2949 86.9937 14.2374C88.5836 10.7902 92.1197 10.2887 95.4953 10.6332Z" fill="#F57760"/>
<path d="M92.7815 13.3469C94.3518 13.8141 94.3518 13.8141 94.9162 14.762C95.0163 15.0506 95.1164 15.3392 95.2196 15.6366C95.3276 15.9405 95.4356 16.2444 95.5469 16.5575C95.6418 16.8413 95.7367 17.125 95.8344 17.4174C95.9744 17.7882 96.1143 18.159 96.2585 18.5411C96.5139 19.4563 96.5684 20.2039 96.5129 21.1488C96.177 21.1488 95.8412 21.1488 95.4952 21.1488C95.3833 20.1413 95.2713 19.1339 95.156 18.0959C94.0366 18.0959 92.9172 18.0959 91.7639 18.0959C91.6519 19.1033 91.54 20.1108 91.4247 21.1488C91.0888 21.1488 90.753 21.1488 90.407 21.1488C90.4189 18.1214 91.2913 15.9581 92.7815 13.3469Z" fill="#F57760"/>
<path d="M79.5734 20.7672C79.8264 20.7659 80.0793 20.7646 80.34 20.7632C82.223 20.7667 82.223 20.7667 82.6051 21.1488C82.6475 21.9969 82.6475 21.9969 82.6051 22.8449C81.9687 23.4814 81.0648 23.2291 80.2194 23.2305C79.8157 23.2285 79.8157 23.2285 79.4038 23.2265C79.136 23.2278 78.8682 23.2291 78.5922 23.2305C76.5852 23.2271 76.5852 23.2271 75.8209 22.8449C75.9481 22.0181 75.9481 22.0181 76.1601 21.1488C77.2367 20.6105 78.3927 20.7611 79.5734 20.7672Z" fill="#F57760"/>
<path d="M86.6757 14.7037C87.2831 15.9184 87.1538 17.345 87.2256 18.6855C87.3491 19.7487 87.59 20.5212 88.0326 21.488C88.1235 21.7329 88.2145 21.9777 88.3082 22.23C88.8607 23.0732 89.4733 23.1964 90.4071 23.5233C90.631 23.7471 90.8549 23.971 91.0855 24.2017C90.0614 24.302 89.5658 24.3402 88.7402 23.6915C86.783 21.3367 85.7448 19.5314 85.9973 16.3998C86.3365 15.3821 86.3365 15.3821 86.6757 14.7037Z" fill="#F57760"/>
<path d="M95.4953 10.6332C97.3803 11.286 98.84 12.312 99.9051 14.0254C99.9051 14.2492 99.9051 14.4731 99.9051 14.7038C100.129 14.7038 100.353 14.7038 100.583 14.7038C101.221 16.6163 101.282 18.7805 100.603 20.6904C99.4792 22.8118 98.1363 24.114 95.8345 24.8802C94.74 24.9703 94.74 24.9703 93.5872 24.965C93.205 24.9668 92.8229 24.9685 92.4291 24.9703C91.4247 24.8802 91.4247 24.8802 90.4071 24.2018C90.8682 24.2313 90.8682 24.2313 91.3386 24.2614C94.0554 24.362 96.0661 24.2852 98.209 22.5057C99.7156 20.8861 99.9216 19.2179 99.9051 17.0783C99.8097 15.2477 99.2655 14.2688 97.9122 13.0289C96.129 11.5407 94.3589 11.4505 92.1031 11.6509C90.0001 12.094 88.8783 12.9263 87.6934 14.7038C87.2444 15.7936 87.2444 15.7936 87.0149 16.7391C86.5808 15.7525 86.7 15.2949 86.9937 14.2374C88.5836 10.7902 92.1197 10.2887 95.4953 10.6332Z" fill="#F57760"/>
<path d="M92.7815 13.3469C94.3518 13.8141 94.3518 13.8141 94.9162 14.762C95.0163 15.0506 95.1164 15.3392 95.2196 15.6366C95.3276 15.9405 95.4356 16.2444 95.5469 16.5575C95.6418 16.8413 95.7367 17.125 95.8344 17.4174C95.9744 17.7882 96.1143 18.159 96.2585 18.5411C96.5139 19.4563 96.5684 20.2039 96.5129 21.1488C96.177 21.1488 95.8412 21.1488 95.4952 21.1488C95.3833 20.1413 95.2713 19.1339 95.156 18.0959C94.0366 18.0959 92.9172 18.0959 91.7639 18.0959C91.6519 19.1033 91.54 20.1108 91.4247 21.1488C91.0888 21.1488 90.753 21.1488 90.407 21.1488C90.4189 18.1214 91.2913 15.9581 92.7815 13.3469Z" fill="#F57760"/>
<path d="M79.5734 20.7672C79.8264 20.7659 80.0793 20.7646 80.34 20.7632C82.223 20.7667 82.223 20.7667 82.6051 21.1488C82.6475 21.9969 82.6475 21.9969 82.6051 22.8449C81.9687 23.4814 81.0648 23.2291 80.2194 23.2305C79.8157 23.2285 79.8157 23.2285 79.4038 23.2265C79.136 23.2278 78.8682 23.2291 78.5922 23.2305C76.5852 23.2271 76.5852 23.2271 75.8209 22.8449C75.9481 22.0181 75.9481 22.0181 76.1601 21.1488C77.2367 20.6105 78.3927 20.7611 79.5734 20.7672Z" fill="#F57760"/>
<path d="M86.6757 14.7037C87.2831 15.9184 87.1538 17.345 87.2256 18.6855C87.3491 19.7487 87.59 20.5212 88.0326 21.488C88.1235 21.7329 88.2145 21.9777 88.3082 22.23C88.8607 23.0732 89.4733 23.1964 90.4071 23.5233C90.631 23.7471 90.8549 23.971 91.0855 24.2017C90.0614 24.302 89.5658 24.3402 88.7402 23.6915C86.783 21.3367 85.7448 19.5314 85.9973 16.3998C86.3365 15.3821 86.3365 15.3821 86.6757 14.7037Z" fill="#F57760"/>
</svg>
