<svg width="320" height="222" viewBox="0 0 320 222" fill="none" xmlns="http://www.w3.org/2000/svg">
<g opacity="0.1">
<rect x="5.24585" y="33" width="309.508" height="6" rx="3" fill="#F57760"/>
<rect opacity="0.6" x="33.5376" y="51" width="187.964" height="6.26913" rx="3.13456" fill="#F57760"/>
<rect x="227.267" y="51" width="59.1952" height="6.26913" rx="3.13456" fill="#F57760"/>
<rect x="0.576538" y="69.2691" width="253.886" height="6.26913" rx="3.13456" fill="#F57760"/>
<rect opacity="0.6" x="260.228" y="69.2691" width="59.1952" height="6.26913" rx="3.13456" fill="#F57760"/>
<rect width="201.61" height="6.26913" rx="3.13456" transform="matrix(-1 0 0 1 312.12 87.5383)" fill="#F57760"/>
<rect width="96.8649" height="6.26913" rx="3.13456" transform="matrix(-1 0 0 1 104.745 87.5383)" fill="#F57760"/>
<rect opacity="0.6" x="33.224" y="105.807" width="253.552" height="6" rx="3" fill="#F57760"/>
<rect width="253.886" height="6.26913" rx="3.13456" transform="matrix(-1 0 0 1 319.423 123.807)" fill="#F57760"/>
<rect width="59.1952" height="6.26913" rx="3.13456" transform="matrix(-1 0 0 1 59.7717 123.807)" fill="#F57760"/>
<rect x="6.99451" y="142.077" width="306.011" height="6" rx="3" fill="#F57760"/>
<rect opacity="0.6" width="187.964" height="6.26913" rx="3.13456" transform="matrix(-1 0 0 1 286.462 160.077)" fill="#F57760"/>
<rect width="59.1952" height="6.26913" rx="3.13456" transform="matrix(-1 0 0 1 92.7327 160.077)" fill="#F57760"/>
<rect x="0.576538" y="178.346" width="253.886" height="6.26913" rx="3.13456" fill="#F57760"/>
<rect x="260.228" y="178.346" width="59.1952" height="6.26913" rx="3.13456" fill="#F57760"/>
<rect opacity="0.6" y="196.615" width="320" height="7" rx="3.5" fill="#F57760"/>
<rect y="215.615" width="320" height="6" rx="3" fill="#F57760"/>
</g>
<path d="M173.068 153.208C173.435 153.208 173.435 153.208 173.81 153.209C174.195 153.21 174.195 153.21 174.588 153.21C177.559 153.239 180.507 153.501 183.464 153.78C184.403 153.869 185.342 153.954 186.281 154.038C189.773 154.356 193.252 154.729 196.727 155.194C196.727 155.406 196.727 155.618 196.727 155.836C197.016 155.848 197.016 155.848 197.311 155.861C198.194 155.898 199.076 155.937 199.959 155.977C200.413 155.996 200.413 155.996 200.877 156.015C205.362 156.218 205.362 156.218 206.4 156.973C208.286 159.21 209.76 161.639 211.181 164.187C211.336 164.465 211.492 164.743 211.652 165.03C216.03 173.336 218.253 183.877 216.795 193.193C216.614 194.581 216.633 195.901 216.68 197.296C216.695 197.88 216.711 198.464 216.727 199.048C216.74 199.507 216.74 199.507 216.754 199.975C216.966 207.319 216.988 214.652 216.962 222C208.695 222 200.427 222 191.91 222C191.274 218.82 190.638 215.641 189.982 212.364C189.331 209.511 189.331 209.511 188.66 206.662C188.431 205.653 188.304 204.734 188.376 203.693C188.165 203.693 187.953 203.693 187.734 203.693C187.31 209.734 186.886 215.775 186.449 222C178.712 222 170.975 222 163.003 222C162.948 212.008 162.979 202.097 163.645 192.13C163.683 191.559 163.683 191.559 163.721 190.976C163.892 188.383 164.075 185.791 164.271 183.2C164.335 182.341 164.396 181.482 164.456 180.623C164.796 175.789 165.347 171.336 166.963 166.754C167.457 165.285 167.792 163.769 168.142 162.26C168.354 162.26 168.566 162.26 168.784 162.26C168.857 161.842 168.93 161.425 169.005 160.995C169.333 159.348 169.778 157.747 170.25 156.137C170.321 155.892 170.392 155.648 170.466 155.395C171.111 153.226 171.111 153.226 173.068 153.208Z" fill="#2F2E41"/>
<path d="M154.331 27.3627C155.954 28.6237 156.439 30.0337 157.041 31.9195C157.182 32.342 157.182 32.342 157.327 32.773C157.618 33.6446 157.902 34.5181 158.185 35.3923C158.525 36.4299 158.866 37.467 159.209 38.5037C159.328 38.8667 159.328 38.8667 159.45 39.2369C159.921 40.6507 160.443 42.0113 161.076 43.3616C161.487 44.2609 161.856 45.1725 162.22 46.0917C162.409 46.5668 162.409 46.5668 162.603 47.0515C163.647 50.1511 164.154 53.0353 164.147 56.3094C164.146 56.875 164.146 56.875 164.145 57.4522C164.05 61.9665 162.883 65.846 160.112 69.4377C159.782 69.9447 159.454 70.4532 159.129 70.9634C156.78 74.4505 152.63 77.4331 148.644 78.8166C147.76 79.1245 146.893 79.4661 146.022 79.8072C143.739 80.6879 141.432 81.4806 139.115 82.265C136.289 83.2268 133.501 84.2319 130.744 85.3765C128.801 86.1263 126.81 86.7208 124.82 87.3287C124.049 87.5644 123.324 87.8161 122.576 88.1216C121.891 88.3876 121.891 88.3876 120.928 88.3876C120.928 88.5996 120.928 88.8115 120.928 89.0299C120.664 89.122 120.664 89.122 120.394 89.2159C119.87 89.3986 119.347 89.5815 118.823 89.7644C118.231 89.9712 117.638 90.1777 117.046 90.3838C115.507 90.9208 113.978 91.475 112.457 92.0611C110.251 92.8503 110.251 92.8503 109.044 92.563C107.694 91.1701 106.995 89.8135 106.334 88.0062C106.24 87.7579 106.146 87.5096 106.05 87.2538C105.167 84.8779 104.406 82.4646 103.668 80.0406C103.437 79.2824 103.188 78.5705 102.888 77.8349C102.62 77.1461 102.62 77.1461 102.62 76.1826C102.408 76.1826 102.196 76.1826 101.978 76.1826C101.896 75.9425 101.814 75.7024 101.729 75.455C100.237 71.0987 98.7364 66.7458 97.1803 62.4118C97.0632 62.0844 96.946 61.7569 96.8253 61.4195C96.3644 60.1418 95.9027 58.8725 95.3548 57.6292C94.8993 56.5606 94.5562 55.4964 94.2294 54.3823C93.948 53.1414 93.948 53.1414 93.306 52.0938C93.1154 49.7679 93.1154 49.7679 93.8443 48.8368C94.6776 48.1701 95.336 47.9152 96.3573 47.6173C97.695 47.2223 98.9644 46.7447 100.247 46.1996C102.267 45.3468 104.318 44.6255 106.394 43.9237C111.668 42.1444 111.668 42.1444 116.831 40.0733C118.366 39.4092 119.949 38.8848 121.53 38.3431C122.193 38.114 122.857 37.8849 123.52 37.6556C123.845 37.5436 124.169 37.4316 124.504 37.3162C127.942 36.1285 131.364 34.9025 134.774 33.6384C136.304 33.0719 137.837 32.5203 139.376 31.9797C140.759 31.4913 142.106 30.9584 143.451 30.3738C145.045 29.6914 146.621 29.2732 148.309 28.8908C149.146 28.66 149.802 28.3666 150.557 27.9448C151.901 27.2237 152.812 27.1386 154.331 27.3627ZM138.752 46.1356C138.406 46.2582 138.406 46.2582 138.052 46.3833C137.564 46.5568 137.075 46.7316 136.587 46.9074C135.854 47.1717 135.119 47.4322 134.384 47.692C131.954 48.5562 129.554 49.4647 127.18 50.4754C126.225 50.8777 125.259 51.2324 124.28 51.5719C122.429 52.2238 120.583 52.8853 118.74 53.5592C118.491 53.6494 118.241 53.7396 117.984 53.8326C116.255 54.4665 114.573 55.1806 112.898 55.948C112.898 56.372 112.898 56.7959 112.898 57.2328C115.394 57.0674 117.622 56.2385 119.964 55.406C120.382 55.2595 120.8 55.1131 121.218 54.9669C124.423 53.8425 127.625 52.7026 130.773 51.4276C131.454 51.159 132.134 50.928 132.832 50.7087C133.991 50.3288 135.104 49.885 136.224 49.4039C138.469 48.4499 140.77 47.6997 143.09 46.9549C142.931 46.16 142.931 46.16 142.768 45.349C141.305 45.2387 140.107 45.6441 138.752 46.1356ZM117.716 50.1667C117.264 50.329 116.809 50.4823 116.351 50.6284C114.739 51.1448 113.178 51.7714 111.614 52.415C111.614 52.945 111.614 53.4749 111.614 54.0209C113.762 53.8256 115.695 53.1483 117.716 52.415C118.077 52.2879 118.438 52.1608 118.81 52.0298C119.158 51.8986 119.506 51.7673 119.864 51.6321C120.343 51.4539 120.343 51.4539 120.831 51.272C121.653 50.8686 121.653 50.8686 121.837 49.9547C121.855 49.7067 121.873 49.4587 121.891 49.2032C120.163 49.0995 119.224 49.3522 117.716 50.1667ZM139.878 50.1667C139.878 50.3787 139.878 50.5907 139.878 50.8091C139.597 50.848 139.315 50.8869 139.026 50.927C137.989 51.123 137.137 51.4128 136.164 51.8128C134.27 52.5625 132.357 53.2234 130.423 53.8603C127.778 54.7324 125.152 55.6414 122.534 56.5904C121.764 56.8651 120.995 57.1394 120.225 57.4134C119.858 57.5463 119.492 57.6792 119.114 57.8162C118.407 58.0657 117.696 58.3029 116.981 58.5263C116.66 58.6294 116.34 58.7325 116.01 58.8387C115.726 58.9248 115.443 59.0109 115.15 59.0996C114.419 59.4359 114.419 59.4359 114.229 60.3041C114.214 60.5624 114.199 60.8208 114.183 61.087C114.289 61.193 114.395 61.2989 114.504 61.4081C116.432 61.2764 118.018 60.6324 119.784 59.8825C122.195 58.8857 124.598 58.0261 127.103 57.298C128.04 56.9994 128.923 56.6743 129.831 56.3031C131.64 55.566 133.484 54.9641 135.341 54.3622C138.437 53.3452 141.465 52.2906 144.374 50.8091C144.374 50.2791 144.374 49.7492 144.374 49.2032C142.633 49.0726 141.461 49.5115 139.878 50.1667ZM141.574 54.0949C141.375 54.1696 141.175 54.2442 140.97 54.321C140.337 54.5588 139.706 54.8015 139.075 55.0447C138.249 55.3585 137.422 55.6704 136.596 55.9819C136.391 56.0592 136.187 56.1365 135.977 56.2162C134.098 56.9225 132.2 57.5595 130.293 58.1848C128.526 58.7645 126.853 59.3971 125.204 60.2639C123.634 61.069 122.038 61.5633 120.351 62.0631C119.383 62.3533 118.426 62.6542 117.475 62.994C117.09 63.1275 117.09 63.1275 116.697 63.2637C116.021 63.6249 116.021 63.6249 115.864 64.5008C115.839 64.7521 115.814 65.0034 115.789 65.2623C117.806 65.0673 119.588 64.4591 121.49 63.7769C121.813 63.6627 122.136 63.5486 122.469 63.431C125.886 62.2187 129.289 60.9676 132.681 59.6881C133.91 59.2267 135.143 58.7765 136.376 58.3268C136.582 58.2515 136.789 58.1761 137.001 58.0985C138.731 57.4674 138.731 57.4674 139.587 57.1561C140.223 56.9246 140.859 56.6923 141.495 56.4599C141.87 56.3231 142.246 56.1862 142.633 56.0453C143.764 55.6144 144.871 55.1476 145.98 54.6633C145.98 54.2393 145.98 53.8154 145.98 53.3786C144.327 53.3037 143.117 53.5064 141.574 54.0949ZM138.717 59.6717C134.776 61.3082 130.715 62.668 126.682 64.057C125.167 64.5795 123.659 65.114 122.161 65.6837C121.583 65.9 121 66.1026 120.417 66.3049C120.062 66.4312 119.708 66.5575 119.342 66.6876C118.801 66.8758 118.801 66.8758 118.249 67.0678C117.344 67.4195 117.344 67.4195 117.113 68.2044C117.1 68.3994 117.087 68.5945 117.074 68.7954C118.469 69.2012 119.303 69.0065 120.659 68.5244C121.043 68.3899 121.427 68.2555 121.822 68.117C122.234 67.9685 122.645 67.8199 123.056 67.6712C123.479 67.5213 123.902 67.3716 124.326 67.2223C126.874 66.3208 129.413 65.3966 131.945 64.4519C133.745 63.7808 135.554 63.142 137.368 62.5122C139.381 61.8113 141.391 61.1029 143.391 60.3643C143.598 60.2891 143.804 60.214 144.018 60.1365C145.178 59.7033 146.278 59.2742 147.265 58.5175C147.265 58.0935 147.265 57.6696 147.265 57.2328C144.299 57.0853 141.392 58.525 138.717 59.6717Z" fill="#FDFDFE"/>
<path d="M201.824 81.5569C202.829 81.6427 202.829 81.6427 203.408 82.1571C203.545 82.3943 203.683 82.6316 203.824 82.876C203.982 83.1383 204.14 83.4006 204.303 83.6708C204.459 83.9489 204.616 84.2269 204.777 84.5133C205.094 85.0518 205.413 85.59 205.731 86.128C205.887 86.3954 206.042 86.6628 206.202 86.9384C206.957 88.2032 207.782 89.4186 208.611 90.6359C208.929 91.1129 208.929 91.1129 209.253 91.5994C210.238 92.0401 211.24 92.3968 212.255 92.7625C213.107 93.2054 213.107 93.2054 213.44 93.7561C213.423 94.8597 213.013 95.7796 212.585 96.7785C212.453 97.0972 212.453 97.0972 212.319 97.4223C210.381 102.034 210.381 102.034 209.574 102.841C209.319 104.831 209.311 106.567 210.397 108.301C211.626 109.872 212.667 110.73 214.671 110.99C216.815 111.078 218.099 110.805 219.852 109.586C220.064 109.586 220.276 109.586 220.495 109.586C220.231 111.832 219.94 113.878 218.929 115.914C218.512 116.766 218.172 117.636 217.825 118.519C215.661 123.704 212.202 128.166 208.534 132.371C208.387 132.542 208.24 132.712 208.089 132.888C207.647 133.353 207.647 133.353 206.734 134.026C205.589 135.569 205.9 137.254 205.981 139.115C206.006 139.86 206.028 140.606 206.048 141.352C206.061 141.681 206.075 142.011 206.089 142.35C206.036 143.414 205.761 144.24 205.399 145.237C205.238 146.214 205.238 146.214 205.399 147.164C205.717 147.532 205.717 147.532 206.041 147.907C206.847 148.99 206.814 149.648 206.792 150.959C206.673 151.728 206.394 152.259 206.041 152.946C206.171 154.176 206.598 155.313 207.005 156.479C205.832 156.873 204.847 156.759 203.627 156.62C203.025 156.554 203.025 156.554 202.41 156.485C201.783 156.412 201.783 156.412 201.143 156.338C200.716 156.29 200.288 156.242 199.861 156.194C198.816 156.077 197.771 155.958 196.727 155.836C196.727 155.624 196.727 155.412 196.727 155.194C196.351 155.203 195.976 155.212 195.589 155.221C193.579 155.221 191.591 155.015 189.593 154.819C188.906 154.751 188.219 154.685 187.532 154.62C185.577 154.433 183.623 154.241 181.671 154.023C178.11 153.629 174.615 153.515 171.032 153.588C171.013 153.389 170.994 153.191 170.975 152.987C170.948 152.726 170.922 152.466 170.894 152.198C170.869 151.94 170.843 151.682 170.817 151.416C170.734 150.652 170.734 150.652 170.35 149.814C169.989 148.888 170.078 148.421 170.39 147.485C170.852 146.743 170.852 146.743 171.353 146.201C171.565 146.201 171.777 146.201 171.996 146.201C171.949 146.018 171.903 145.836 171.855 145.647C171.482 144.094 171.199 142.669 171.353 141.062C171.585 140.695 171.585 140.695 171.822 140.321C172.398 139.314 172.512 138.562 172.633 137.411C172.675 137.02 172.717 136.63 172.76 136.228C172.799 135.822 172.839 135.417 172.879 134.999C172.923 134.597 172.968 134.194 173.013 133.779C173.297 131.012 173.389 128.814 172.036 126.307C170.403 123.179 169.682 120.604 169.647 117.093C169.638 116.789 169.628 116.485 169.619 116.171C169.599 113.915 170.082 112.259 171.032 110.228C171.19 109.825 171.347 109.422 171.504 109.019C172.032 107.902 172.652 107.081 173.441 106.133C175.026 104.167 176.279 102.062 177.506 99.8577C178.369 98.3132 179.252 96.847 180.347 95.4536C180.559 95.4536 180.771 95.4536 180.989 95.4536C181.074 95.2671 181.159 95.0806 181.247 94.8884C181.645 94.1426 182.099 93.5788 182.646 92.9356C184.18 90.9953 185.199 88.8147 186.268 86.601C186.474 86.1808 186.681 85.7607 186.888 85.3408C187.387 84.3239 187.883 83.3051 188.376 82.2851C190.073 82.1929 191.77 82.1014 193.467 82.0107C194.044 81.9797 194.62 81.9486 195.197 81.9172C196.029 81.872 196.86 81.8276 197.692 81.7833C197.947 81.7692 198.202 81.7552 198.466 81.7407C198.947 81.7153 199.429 81.6925 199.91 81.6725C200.549 81.6442 201.186 81.6009 201.824 81.5569Z" fill="#335EF5"/>
<path d="M241.171 30.153C243.037 30.3138 244.624 31.0835 245.868 32.5016C246.674 34.2818 246.893 36.2009 246.256 38.0646C245.948 38.7221 245.666 39.3114 245.226 39.8888C244.749 40.0478 244.749 40.0478 244.262 40.21C244.224 40.4065 244.186 40.6029 244.146 40.8054C243.148 45.901 242.075 50.9765 240.942 56.0438C240.686 57.1862 240.432 58.3289 240.179 59.4716C240.013 60.2129 239.848 60.9542 239.683 61.6955C239.572 62.1969 239.572 62.1969 239.458 62.7085C238.499 66.9871 237.533 71.1638 235.49 75.0785C234.26 77.4531 233.344 79.9725 232.368 82.4587C229.175 90.581 229.175 90.581 227.541 93.9681C226.13 96.9069 224.973 99.958 223.791 102.994C221.507 108.831 221.507 108.831 218.708 110.81C216.849 111.452 214.879 111.581 212.997 110.932C211.269 109.971 210.001 108.523 209.253 106.695C208.923 104.546 209.039 103.065 210.217 101.235C210.535 100.53 210.842 99.8206 211.14 99.1071C211.71 97.753 212.289 96.4054 212.907 95.0722C214.113 92.4461 215.207 89.7695 216.319 87.1028C216.531 87.1028 216.743 87.1028 216.962 87.1028C217.031 86.6557 217.031 86.6557 217.102 86.1995C217.283 85.1757 217.283 85.1757 217.604 84.2122C217.816 84.2122 218.028 84.2122 218.246 84.2122C218.458 83.3643 218.67 82.5163 218.889 81.6427C219.101 81.6427 219.313 81.6427 219.531 81.6427C219.589 81.299 219.589 81.299 219.648 80.9483C219.86 80.0035 220.167 79.1905 220.546 78.3004C220.69 77.9621 220.834 77.6239 220.983 77.2754C221.732 75.554 222.489 73.8366 223.258 72.124C223.526 71.5264 223.792 70.9281 224.059 70.3298C225.042 68.1297 226.069 65.9587 227.166 63.813C227.594 62.9459 227.941 62.0763 228.263 61.166C228.596 60.247 228.962 59.3436 229.327 58.4372C230.762 54.8688 232.161 51.2864 233.564 47.7055C233.941 46.7444 234.32 45.7843 234.701 44.8245C234.904 44.3101 235.107 43.7957 235.309 43.2813C235.446 42.9402 235.446 42.9402 235.585 42.5922C236.232 40.9606 236.232 40.9606 236.554 39.2465C236.349 38.9616 236.143 38.6768 235.932 38.3833C235.029 36.9334 235.008 35.7752 235.269 34.1075C235.818 32.5612 236.767 31.4367 238.16 30.5745C239.17 30.3111 240.133 30.2491 241.171 30.153Z" fill="#FEB6B6"/>
<path d="M211.48 46.4339C213.926 48.3077 216.252 50.4482 217.925 53.0574C217.925 53.2693 217.925 53.4813 217.925 53.6997C218.137 53.6997 218.349 53.6997 218.568 53.6997C221.296 58.5822 223.158 63.4335 221.678 69.0889C220.682 72.1267 218.774 74.2844 215.998 75.8614C215.68 75.8614 215.362 75.8614 215.035 75.8614C214.611 74.8015 214.187 73.7416 213.75 72.6496C213.691 72.8897 213.633 73.1298 213.573 73.3773C213.492 73.6936 213.411 74.0099 213.328 74.3358C213.25 74.6488 213.172 74.9618 213.091 75.2843C212.581 76.7881 212.581 76.7881 211.823 77.4673C210.881 77.7705 209.931 77.9009 208.952 78.0294C208.68 78.0689 208.407 78.1083 208.127 78.149C206.035 78.434 203.977 78.5446 201.866 78.4309C201.866 78.2189 201.866 78.0069 201.866 77.7885C202.336 77.4947 202.821 77.2246 203.311 76.9655C206 75.4003 207.732 73.2411 208.932 70.4013C209.111 70.0523 209.111 70.0523 209.293 69.6962C210.438 67.288 210.342 64.9818 210.217 62.3717C208.69 62.5041 207.175 62.642 205.67 62.935C200.37 63.9425 195.032 63.7476 189.661 63.6564C189.661 62.2785 189.661 60.9007 189.661 59.481C188.687 60.3921 188.687 60.3921 188.055 61.4081C187.128 62.7988 187.128 62.7988 186.449 63.3352C185.75 63.4151 185.75 63.4151 184.95 63.3591C184.663 63.3415 184.377 63.3239 184.081 63.3058C183.634 63.2707 183.634 63.2707 183.177 63.2349C182.875 63.2152 182.573 63.1955 182.262 63.1753C181.516 63.1261 180.771 63.0722 180.026 63.0141C180.026 62.8021 180.026 62.5901 180.026 62.3717C179.695 62.3425 179.695 62.3425 179.357 62.3127C179.067 62.2858 178.778 62.2589 178.48 62.2312C178.193 62.2051 177.906 62.179 177.61 62.1521C176.814 62.0505 176.814 62.0505 175.85 61.7293C175.003 58.1986 175.17 54.1247 176.963 50.9358C177.42 50.2149 177.86 49.527 178.42 48.882C178.632 48.882 178.844 48.882 179.062 48.882C179.062 48.67 179.062 48.458 179.062 48.2396C179.763 47.8674 180.465 47.5003 181.17 47.1355C181.365 47.031 181.561 46.9265 181.763 46.8188C183.122 46.1211 184.282 45.88 185.807 45.6701C186.52 45.281 186.52 45.281 187.132 44.7668C194.096 39.7892 204.903 41.7445 211.48 46.4339Z" fill="#313043"/>
<path d="M147.907 82.2851C147.925 82.8404 147.937 83.3958 147.947 83.9513C147.955 84.2605 147.962 84.5698 147.97 84.8885C147.907 85.8181 147.907 85.8181 147.564 86.6173C146.921 88.3539 147.798 90.0914 148.429 91.74C148.514 91.9642 148.599 92.1884 148.686 92.4194C149.35 94.1398 150.103 95.8057 150.899 97.4681C152.32 100.448 153.52 103.525 154.732 106.595C155.184 107.734 155.687 108.822 156.258 109.907C156.556 109.682 156.854 109.456 157.161 109.224C158.385 108.351 159.67 107.653 160.994 106.945C162.938 105.883 164.837 104.745 166.74 103.613C167.255 103.307 167.77 103.002 168.285 102.697C169.095 102.218 169.903 101.737 170.711 101.255C170.978 101.096 171.245 100.937 171.52 100.773C172.869 99.9631 174.199 99.135 175.51 98.2665C175.761 98.1009 176.011 97.9352 176.269 97.7646C176.743 97.4485 177.214 97.1293 177.684 96.8068C178.235 96.4383 178.808 96.1031 179.383 95.7748C179.701 95.8808 180.019 95.9868 180.347 96.096C180.227 96.2473 180.108 96.3985 179.985 96.5544C178.738 98.1681 177.717 99.8336 176.734 101.616C175.66 103.531 174.544 105.289 173.14 106.976C171.77 108.668 171.116 110.217 170.59 112.321C170.39 113.119 170.39 113.119 170.069 113.44C169.993 114.305 169.933 115.163 169.888 116.029C169.867 116.395 169.867 116.395 169.846 116.768C169.812 117.371 169.78 117.975 169.748 118.579C169.426 118.713 169.104 118.846 168.772 118.984C167.739 119.426 166.746 119.922 165.751 120.443C162.889 121.936 159.965 123.036 156.9 124.039C156.582 124.145 156.264 124.251 155.937 124.36C153.749 124.527 151.736 124.603 149.834 123.397C146.09 120.116 144.594 115.133 143.09 110.549C142.967 110.188 142.844 109.827 142.718 109.455C141.836 106.757 141.305 104.028 140.841 101.235C140.799 100.982 140.756 100.729 140.712 100.468C140.254 97.7368 139.808 95.0178 139.624 92.2519C139.574 91.5348 139.574 91.5348 139.235 90.6359C139.003 90.5034 138.772 90.3709 138.533 90.2344C137.115 89.3523 135.894 88.203 135.486 86.5483C135.452 86.3074 135.417 86.0664 135.381 85.8181C137.905 84.6891 140.49 83.7245 143.09 82.787C143.416 82.6655 143.742 82.5439 144.078 82.4187C144.387 82.3088 144.697 82.1989 145.017 82.0856C145.295 81.9848 145.573 81.8841 145.86 81.7802C146.776 81.615 147.137 81.7895 147.907 82.2851Z" fill="#FEB6B7"/>
<path d="M173.068 153.208C173.435 153.208 173.435 153.208 173.81 153.209C174.195 153.21 174.195 153.21 174.588 153.21C177.559 153.239 180.507 153.501 183.464 153.78C184.403 153.869 185.342 153.954 186.281 154.038C189.773 154.356 193.252 154.729 196.727 155.194C196.727 155.406 196.727 155.618 196.727 155.836C197.016 155.848 197.016 155.848 197.311 155.861C198.194 155.898 199.076 155.937 199.959 155.977C200.413 155.996 200.413 155.996 200.877 156.015C205.362 156.218 205.362 156.218 206.4 156.973C208.286 159.21 209.76 161.639 211.181 164.187C211.336 164.465 211.492 164.743 211.652 165.03C216.03 173.336 218.253 183.877 216.795 193.193C216.614 194.581 216.633 195.901 216.68 197.296C216.695 197.88 216.711 198.464 216.727 199.048C216.74 199.507 216.74 199.507 216.754 199.975C216.966 207.319 216.988 214.652 216.962 222C208.695 222 200.427 222 191.91 222C191.274 218.82 190.638 215.641 189.982 212.364C189.331 209.511 189.331 209.511 188.66 206.662C188.431 205.653 188.304 204.734 188.376 203.693C188.165 203.693 187.953 203.693 187.734 203.693C187.31 209.734 186.886 215.775 186.449 222C178.712 222 170.975 222 163.003 222C162.948 212.008 162.979 202.097 163.645 192.13C163.683 191.559 163.683 191.559 163.721 190.976C163.892 188.383 164.075 185.791 164.271 183.2C164.335 182.341 164.396 181.482 164.456 180.623C164.796 175.789 165.347 171.336 166.963 166.754C167.457 165.285 167.792 163.769 168.142 162.26C168.354 162.26 168.566 162.26 168.784 162.26C168.857 161.842 168.93 161.425 169.005 160.995C169.333 159.348 169.778 157.747 170.25 156.137C170.321 155.892 170.392 155.648 170.466 155.395C171.111 153.226 171.111 153.226 173.068 153.208Z" fill="#2F2E41"/>
<path d="M154.331 27.3627C155.954 28.6237 156.439 30.0337 157.041 31.9195C157.182 32.342 157.182 32.342 157.327 32.773C157.618 33.6446 157.902 34.5181 158.185 35.3923C158.525 36.4299 158.866 37.467 159.209 38.5037C159.328 38.8667 159.328 38.8667 159.45 39.2369C159.921 40.6507 160.443 42.0113 161.076 43.3616C161.487 44.2609 161.856 45.1725 162.22 46.0917C162.409 46.5668 162.409 46.5668 162.603 47.0515C163.647 50.1511 164.154 53.0353 164.147 56.3094C164.146 56.875 164.146 56.875 164.145 57.4522C164.05 61.9665 162.883 65.846 160.112 69.4377C159.782 69.9447 159.454 70.4532 159.129 70.9634C156.78 74.4505 152.63 77.4331 148.644 78.8166C147.76 79.1245 146.893 79.4661 146.022 79.8072C143.739 80.6879 141.432 81.4806 139.115 82.265C136.289 83.2268 133.501 84.2319 130.744 85.3765C128.801 86.1263 126.81 86.7208 124.82 87.3287C124.049 87.5644 123.324 87.8161 122.576 88.1216C121.891 88.3876 121.891 88.3876 120.928 88.3876C120.928 88.5996 120.928 88.8115 120.928 89.0299C120.664 89.122 120.664 89.122 120.394 89.2159C119.87 89.3986 119.347 89.5815 118.823 89.7644C118.231 89.9712 117.638 90.1777 117.046 90.3838C115.507 90.9208 113.978 91.475 112.457 92.0611C110.251 92.8503 110.251 92.8503 109.044 92.563C107.694 91.1701 106.995 89.8135 106.334 88.0062C106.24 87.7579 106.146 87.5096 106.05 87.2538C105.167 84.8779 104.406 82.4646 103.668 80.0406C103.437 79.2824 103.188 78.5705 102.888 77.8349C102.62 77.1461 102.62 77.1461 102.62 76.1826C102.408 76.1826 102.196 76.1826 101.978 76.1826C101.896 75.9425 101.814 75.7024 101.729 75.455C100.237 71.0987 98.7364 66.7458 97.1803 62.4118C97.0632 62.0844 96.946 61.7569 96.8253 61.4195C96.3644 60.1418 95.9027 58.8725 95.3548 57.6292C94.8993 56.5606 94.5562 55.4964 94.2294 54.3823C93.948 53.1414 93.948 53.1414 93.306 52.0938C93.1154 49.7679 93.1154 49.7679 93.8443 48.8368C94.6776 48.1701 95.336 47.9152 96.3573 47.6173C97.695 47.2223 98.9644 46.7447 100.247 46.1996C102.267 45.3468 104.318 44.6255 106.394 43.9237C111.668 42.1444 111.668 42.1444 116.831 40.0733C118.366 39.4092 119.949 38.8848 121.53 38.3431C122.193 38.114 122.857 37.8849 123.52 37.6556C123.845 37.5436 124.169 37.4316 124.504 37.3162C127.942 36.1285 131.364 34.9025 134.774 33.6384C136.304 33.0719 137.837 32.5203 139.376 31.9797C140.759 31.4913 142.106 30.9584 143.451 30.3738C145.045 29.6914 146.621 29.2732 148.309 28.8908C149.146 28.66 149.802 28.3666 150.557 27.9448C151.901 27.2237 152.812 27.1386 154.331 27.3627ZM138.752 46.1356C138.406 46.2582 138.406 46.2582 138.052 46.3833C137.564 46.5568 137.075 46.7316 136.587 46.9074C135.854 47.1717 135.119 47.4322 134.384 47.692C131.954 48.5562 129.554 49.4647 127.18 50.4754C126.225 50.8777 125.259 51.2324 124.28 51.5719C122.429 52.2238 120.583 52.8853 118.74 53.5592C118.491 53.6494 118.241 53.7396 117.984 53.8326C116.255 54.4665 114.573 55.1806 112.898 55.948C112.898 56.372 112.898 56.7959 112.898 57.2328C115.394 57.0674 117.622 56.2385 119.964 55.406C120.382 55.2595 120.8 55.1131 121.218 54.9669C124.423 53.8425 127.625 52.7026 130.773 51.4276C131.454 51.159 132.134 50.928 132.832 50.7087C133.991 50.3288 135.104 49.885 136.224 49.4039C138.469 48.4499 140.77 47.6997 143.09 46.9549C142.931 46.16 142.931 46.16 142.768 45.349C141.305 45.2387 140.107 45.6441 138.752 46.1356ZM117.716 50.1667C117.264 50.329 116.809 50.4823 116.351 50.6284C114.739 51.1448 113.178 51.7714 111.614 52.415C111.614 52.945 111.614 53.4749 111.614 54.0209C113.762 53.8256 115.695 53.1483 117.716 52.415C118.077 52.2879 118.438 52.1608 118.81 52.0298C119.158 51.8986 119.506 51.7673 119.864 51.6321C120.343 51.4539 120.343 51.4539 120.831 51.272C121.653 50.8686 121.653 50.8686 121.837 49.9547C121.855 49.7067 121.873 49.4587 121.891 49.2032C120.163 49.0995 119.224 49.3522 117.716 50.1667ZM139.878 50.1667C139.878 50.3787 139.878 50.5907 139.878 50.8091C139.597 50.848 139.315 50.8869 139.026 50.927C137.989 51.123 137.137 51.4128 136.164 51.8128C134.27 52.5625 132.357 53.2234 130.423 53.8603C127.778 54.7324 125.152 55.6414 122.534 56.5904C121.764 56.8651 120.995 57.1394 120.225 57.4134C119.858 57.5463 119.492 57.6792 119.114 57.8162C118.407 58.0657 117.696 58.3029 116.981 58.5263C116.66 58.6294 116.34 58.7325 116.01 58.8387C115.726 58.9248 115.443 59.0109 115.15 59.0996C114.419 59.4359 114.419 59.4359 114.229 60.3041C114.214 60.5624 114.199 60.8208 114.183 61.087C114.289 61.193 114.395 61.2989 114.504 61.4081C116.432 61.2764 118.018 60.6324 119.784 59.8825C122.195 58.8857 124.598 58.0261 127.103 57.298C128.04 56.9994 128.923 56.6743 129.831 56.3031C131.64 55.566 133.484 54.9641 135.341 54.3622C138.437 53.3452 141.465 52.2906 144.374 50.8091C144.374 50.2791 144.374 49.7492 144.374 49.2032C142.633 49.0726 141.461 49.5115 139.878 50.1667ZM141.574 54.0949C141.375 54.1696 141.175 54.2442 140.97 54.321C140.337 54.5588 139.706 54.8015 139.075 55.0447C138.249 55.3585 137.422 55.6704 136.596 55.9819C136.391 56.0592 136.187 56.1365 135.977 56.2162C134.098 56.9225 132.2 57.5595 130.293 58.1848C128.526 58.7645 126.853 59.3971 125.204 60.2639C123.634 61.069 122.038 61.5633 120.351 62.0631C119.383 62.3533 118.426 62.6542 117.475 62.994C117.09 63.1275 117.09 63.1275 116.697 63.2637C116.021 63.6249 116.021 63.6249 115.864 64.5008C115.839 64.7521 115.814 65.0034 115.789 65.2623C117.806 65.0673 119.588 64.4591 121.49 63.7769C121.813 63.6627 122.136 63.5486 122.469 63.431C125.886 62.2187 129.289 60.9676 132.681 59.6881C133.91 59.2267 135.143 58.7765 136.376 58.3268C136.582 58.2515 136.789 58.1761 137.001 58.0985C138.731 57.4674 138.731 57.4674 139.587 57.1561C140.223 56.9246 140.859 56.6923 141.495 56.4599C141.87 56.3231 142.246 56.1862 142.633 56.0453C143.764 55.6144 144.871 55.1476 145.98 54.6633C145.98 54.2393 145.98 53.8154 145.98 53.3786C144.327 53.3037 143.117 53.5064 141.574 54.0949ZM138.717 59.6717C134.776 61.3082 130.715 62.668 126.682 64.057C125.167 64.5795 123.659 65.114 122.161 65.6837C121.583 65.9 121 66.1026 120.417 66.3049C120.062 66.4312 119.708 66.5575 119.342 66.6876C118.801 66.8758 118.801 66.8758 118.249 67.0678C117.344 67.4195 117.344 67.4195 117.113 68.2044C117.1 68.3994 117.087 68.5945 117.074 68.7954C118.469 69.2012 119.303 69.0065 120.659 68.5244C121.043 68.3899 121.427 68.2555 121.822 68.117C122.234 67.9685 122.645 67.8199 123.056 67.6712C123.479 67.5213 123.902 67.3716 124.326 67.2223C126.874 66.3208 129.413 65.3966 131.945 64.4519C133.745 63.7808 135.554 63.142 137.368 62.5122C139.381 61.8113 141.391 61.1029 143.391 60.3643C143.598 60.2891 143.804 60.214 144.018 60.1365C145.178 59.7033 146.278 59.2742 147.265 58.5175C147.265 58.0935 147.265 57.6696 147.265 57.2328C144.299 57.0853 141.392 58.525 138.717 59.6717Z" fill="#F57760"/>
<path d="M201.824 81.5569C202.83 81.6427 202.83 81.6427 203.408 82.1571C203.545 82.3943 203.683 82.6316 203.824 82.876C203.982 83.1383 204.14 83.4006 204.303 83.6708C204.459 83.9489 204.616 84.2269 204.777 84.5133C205.095 85.0518 205.413 85.59 205.731 86.128C205.887 86.3954 206.042 86.6628 206.202 86.9384C206.957 88.2032 207.782 89.4186 208.611 90.6359C208.929 91.1129 208.929 91.1129 209.253 91.5994C210.238 92.0401 211.241 92.3968 212.256 92.7625C213.107 93.2054 213.107 93.2054 213.44 93.7561C213.423 94.8597 213.013 95.7796 212.585 96.7785C212.453 97.0972 212.453 97.0972 212.319 97.4223C210.381 102.034 210.381 102.034 209.574 102.841C209.319 104.831 209.311 106.567 210.397 108.301C211.626 109.872 212.667 110.73 214.671 110.99C216.815 111.078 218.099 110.805 219.852 109.586C220.064 109.586 220.276 109.586 220.495 109.586C220.231 111.832 219.94 113.878 218.929 115.914C218.512 116.766 218.172 117.636 217.825 118.519C215.662 123.704 212.202 128.166 208.534 132.371C208.387 132.542 208.241 132.712 208.089 132.888C207.647 133.353 207.647 133.353 206.734 134.026C205.589 135.569 205.9 137.254 205.981 139.115C206.006 139.86 206.029 140.606 206.048 141.352C206.061 141.681 206.075 142.011 206.089 142.35C206.036 143.414 205.762 144.24 205.399 145.237C205.238 146.214 205.238 146.214 205.399 147.164C205.717 147.532 205.717 147.532 206.041 147.907C206.847 148.99 206.814 149.648 206.792 150.959C206.673 151.728 206.394 152.259 206.041 152.946C206.171 154.176 206.598 155.313 207.005 156.479C205.832 156.873 204.847 156.759 203.627 156.62C203.025 156.554 203.025 156.554 202.41 156.485C201.783 156.412 201.783 156.412 201.143 156.338C200.716 156.29 200.289 156.242 199.861 156.194C198.816 156.077 197.772 155.958 196.727 155.836C196.727 155.624 196.727 155.412 196.727 155.194C196.352 155.203 195.976 155.212 195.589 155.221C193.579 155.221 191.591 155.015 189.593 154.819C188.906 154.751 188.219 154.685 187.532 154.62C185.577 154.433 183.623 154.241 181.672 154.023C178.11 153.629 174.615 153.515 171.032 153.588C171.013 153.389 170.994 153.191 170.975 152.987C170.948 152.726 170.922 152.466 170.894 152.198C170.869 151.94 170.843 151.682 170.817 151.416C170.734 150.652 170.734 150.652 170.35 149.814C169.99 148.888 170.078 148.421 170.39 147.485C170.852 146.743 170.852 146.743 171.354 146.201C171.566 146.201 171.777 146.201 171.996 146.201C171.95 146.018 171.903 145.836 171.855 145.647C171.482 144.094 171.199 142.669 171.354 141.062C171.585 140.695 171.585 140.695 171.822 140.321C172.398 139.314 172.512 138.562 172.633 137.411C172.675 137.02 172.717 136.63 172.76 136.228C172.799 135.822 172.839 135.417 172.879 134.999C172.923 134.597 172.968 134.194 173.013 133.779C173.297 131.012 173.389 128.814 172.036 126.307C170.403 123.179 169.682 120.604 169.647 117.093C169.638 116.789 169.629 116.485 169.619 116.171C169.599 113.915 170.082 112.259 171.032 110.228C171.19 109.825 171.348 109.422 171.504 109.019C172.033 107.902 172.652 107.081 173.441 106.133C175.027 104.167 176.279 102.062 177.506 99.8577C178.369 98.3132 179.252 96.847 180.347 95.4536C180.559 95.4536 180.771 95.4536 180.989 95.4536C181.074 95.2671 181.159 95.0806 181.247 94.8884C181.645 94.1426 182.099 93.5788 182.646 92.9356C184.18 90.9953 185.199 88.8147 186.268 86.601C186.475 86.1808 186.681 85.7607 186.888 85.3408C187.387 84.3239 187.883 83.3051 188.376 82.2851C190.073 82.1929 191.77 82.1014 193.467 82.0107C194.044 81.9797 194.621 81.9486 195.197 81.9172C196.029 81.872 196.86 81.8276 197.692 81.7833C197.947 81.7692 198.203 81.7552 198.466 81.7407C198.947 81.7153 199.429 81.6925 199.91 81.6725C200.549 81.6442 201.186 81.6009 201.824 81.5569Z" fill="#F57760"/>
<path d="M241.171 30.153C243.037 30.3138 244.624 31.0835 245.868 32.5016C246.674 34.2818 246.893 36.2009 246.256 38.0646C245.948 38.7221 245.666 39.3114 245.226 39.8888C244.749 40.0478 244.749 40.0478 244.262 40.21C244.224 40.4065 244.186 40.6029 244.146 40.8054C243.148 45.901 242.075 50.9765 240.942 56.0438C240.686 57.1862 240.432 58.3289 240.179 59.4716C240.013 60.2129 239.848 60.9542 239.683 61.6955C239.572 62.1969 239.572 62.1969 239.458 62.7085C238.499 66.9871 237.533 71.1638 235.49 75.0785C234.26 77.4531 233.344 79.9725 232.368 82.4587C229.175 90.581 229.175 90.581 227.541 93.9681C226.13 96.9069 224.973 99.958 223.791 102.994C221.507 108.831 221.507 108.831 218.708 110.81C216.849 111.452 214.879 111.581 212.997 110.932C211.269 109.971 210.001 108.523 209.253 106.695C208.923 104.546 209.039 103.065 210.217 101.235C210.535 100.53 210.842 99.8206 211.14 99.1071C211.71 97.753 212.289 96.4054 212.907 95.0722C214.113 92.4461 215.207 89.7695 216.319 87.1028C216.531 87.1028 216.743 87.1028 216.962 87.1028C217.031 86.6557 217.031 86.6557 217.102 86.1995C217.283 85.1757 217.283 85.1757 217.604 84.2122C217.816 84.2122 218.028 84.2122 218.246 84.2122C218.458 83.3643 218.67 82.5163 218.889 81.6427C219.101 81.6427 219.313 81.6427 219.531 81.6427C219.589 81.299 219.589 81.299 219.648 80.9483C219.86 80.0035 220.167 79.1905 220.546 78.3004C220.69 77.9621 220.834 77.6239 220.983 77.2754C221.732 75.554 222.489 73.8366 223.258 72.124C223.526 71.5264 223.792 70.9281 224.059 70.3298C225.042 68.1297 226.069 65.9587 227.166 63.813C227.594 62.9459 227.941 62.0763 228.263 61.166C228.596 60.247 228.962 59.3436 229.327 58.4372C230.762 54.8688 232.161 51.2864 233.564 47.7055C233.941 46.7444 234.32 45.7843 234.701 44.8245C234.904 44.3101 235.107 43.7957 235.309 43.2813C235.446 42.9402 235.446 42.9402 235.585 42.5922C236.232 40.9606 236.232 40.9606 236.554 39.2465C236.349 38.9616 236.143 38.6768 235.932 38.3833C235.029 36.9334 235.008 35.7752 235.269 34.1075C235.818 32.5612 236.767 31.4367 238.16 30.5745C239.17 30.3111 240.133 30.2491 241.171 30.153Z" fill="#FEB6B6"/>
<path d="M211.48 46.4339C213.926 48.3077 216.252 50.4482 217.925 53.0574C217.925 53.2693 217.925 53.4813 217.925 53.6997C218.137 53.6997 218.349 53.6997 218.568 53.6997C221.296 58.5822 223.158 63.4335 221.678 69.0889C220.682 72.1267 218.774 74.2844 215.998 75.8614C215.68 75.8614 215.362 75.8614 215.035 75.8614C214.611 74.8015 214.187 73.7416 213.75 72.6496C213.691 72.8897 213.633 73.1298 213.573 73.3773C213.492 73.6936 213.411 74.0099 213.328 74.3358C213.25 74.6488 213.172 74.9618 213.091 75.2843C212.581 76.7881 212.581 76.7881 211.823 77.4673C210.881 77.7705 209.931 77.9009 208.952 78.0294C208.68 78.0689 208.407 78.1083 208.127 78.149C206.035 78.434 203.977 78.5446 201.866 78.4309C201.866 78.2189 201.866 78.0069 201.866 77.7885C202.336 77.4947 202.821 77.2246 203.311 76.9655C206 75.4003 207.732 73.2411 208.932 70.4013C209.111 70.0523 209.111 70.0523 209.293 69.6962C210.438 67.288 210.342 64.9818 210.217 62.3717C208.69 62.5041 207.175 62.642 205.67 62.935C200.37 63.9425 195.032 63.7476 189.661 63.6564C189.661 62.2785 189.661 60.9007 189.661 59.481C188.687 60.3921 188.687 60.3921 188.055 61.4081C187.128 62.7988 187.128 62.7988 186.449 63.3352C185.75 63.4151 185.75 63.4151 184.95 63.3591C184.663 63.3415 184.377 63.3239 184.081 63.3058C183.634 63.2707 183.634 63.2707 183.177 63.2349C182.875 63.2152 182.573 63.1955 182.262 63.1753C181.516 63.1261 180.771 63.0722 180.026 63.0141C180.026 62.8021 180.026 62.5901 180.026 62.3717C179.695 62.3425 179.695 62.3425 179.357 62.3127C179.067 62.2858 178.778 62.2589 178.48 62.2312C178.193 62.2051 177.906 62.179 177.61 62.1521C176.814 62.0505 176.814 62.0505 175.85 61.7293C175.003 58.1986 175.17 54.1247 176.963 50.9358C177.42 50.2149 177.86 49.527 178.42 48.882C178.632 48.882 178.844 48.882 179.062 48.882C179.062 48.67 179.062 48.458 179.062 48.2396C179.763 47.8674 180.465 47.5003 181.17 47.1355C181.365 47.031 181.561 46.9265 181.763 46.8188C183.122 46.1211 184.282 45.88 185.807 45.6701C186.52 45.281 186.52 45.281 187.132 44.7668C194.096 39.7892 204.903 41.7445 211.48 46.4339Z" fill="#313043"/>
<path d="M147.907 82.2851C147.925 82.8404 147.937 83.3958 147.947 83.9513C147.955 84.2605 147.962 84.5698 147.97 84.8885C147.907 85.8181 147.907 85.8181 147.564 86.6173C146.921 88.3539 147.798 90.0914 148.429 91.74C148.514 91.9642 148.599 92.1884 148.686 92.4194C149.35 94.1398 150.103 95.8057 150.899 97.4681C152.32 100.448 153.52 103.525 154.732 106.595C155.184 107.734 155.687 108.822 156.258 109.907C156.556 109.682 156.854 109.456 157.161 109.224C158.385 108.351 159.67 107.653 160.994 106.945C162.938 105.883 164.837 104.745 166.74 103.613C167.255 103.307 167.77 103.002 168.285 102.697C169.095 102.218 169.903 101.737 170.711 101.255C170.978 101.096 171.245 100.937 171.52 100.773C172.869 99.9631 174.199 99.135 175.51 98.2665C175.761 98.1009 176.011 97.9352 176.269 97.7646C176.743 97.4485 177.214 97.1293 177.684 96.8068C178.235 96.4383 178.808 96.1031 179.383 95.7748C179.701 95.8808 180.019 95.9868 180.347 96.096C180.227 96.2473 180.108 96.3985 179.985 96.5544C178.738 98.1681 177.717 99.8336 176.734 101.616C175.66 103.531 174.544 105.289 173.14 106.976C171.77 108.668 171.116 110.217 170.59 112.321C170.39 113.119 170.39 113.119 170.069 113.44C169.993 114.305 169.933 115.163 169.888 116.029C169.867 116.395 169.867 116.395 169.846 116.768C169.812 117.371 169.78 117.975 169.748 118.579C169.426 118.713 169.104 118.846 168.772 118.984C167.739 119.426 166.746 119.922 165.751 120.443C162.889 121.936 159.965 123.036 156.9 124.039C156.582 124.145 156.264 124.251 155.937 124.36C153.749 124.527 151.736 124.603 149.834 123.397C146.09 120.116 144.594 115.133 143.09 110.549C142.967 110.188 142.844 109.827 142.718 109.455C141.836 106.757 141.305 104.028 140.841 101.235C140.799 100.982 140.756 100.729 140.712 100.468C140.254 97.7368 139.808 95.0178 139.624 92.2519C139.574 91.5348 139.574 91.5348 139.235 90.6359C139.003 90.5034 138.772 90.3709 138.533 90.2344C137.115 89.3523 135.894 88.203 135.486 86.5483C135.452 86.3074 135.417 86.0664 135.381 85.8181C137.905 84.6891 140.49 83.7245 143.09 82.787C143.416 82.6655 143.742 82.5439 144.078 82.4187C144.387 82.3088 144.697 82.1989 145.017 82.0856C145.295 81.9848 145.573 81.8841 145.86 81.7802C146.776 81.615 147.137 81.7895 147.907 82.2851Z" fill="#FEB6B7"/>
<path d="M155.616 25.4356C156.664 26.313 157.128 27.0826 157.554 28.3714C157.662 28.689 157.769 29.0065 157.88 29.3337C157.987 29.6637 158.095 29.9937 158.205 30.3336C158.423 30.9845 158.641 31.6352 158.859 32.2858C158.963 32.5974 159.066 32.9089 159.173 33.2299C159.754 34.9468 160.401 36.626 161.136 38.2829C162.11 40.5912 162.86 42.9693 163.639 45.3489C164.25 47.2009 164.887 49.0272 165.633 50.8292C166.423 52.7411 167.087 54.6731 167.728 56.6393C168.168 57.9734 168.652 59.29 169.146 60.6052C169.223 60.8128 169.301 61.0204 169.381 61.2343C169.763 62.2455 170.166 63.242 170.605 64.2298C171.014 65.2178 171.128 65.817 171.033 66.8683C171.245 66.8683 171.457 66.8683 171.675 66.8683C172.174 68.054 172.402 69.1654 172.478 70.4414C172.495 70.7073 172.511 70.9731 172.528 71.2469C172.272 72.1708 171.887 72.4879 171.072 72.9692C169.52 73.7041 167.883 74.2182 166.255 74.7574C165.52 75.0051 164.785 75.2531 164.049 75.5013C163.702 75.6179 163.355 75.7344 162.998 75.8545C161.812 76.2605 160.642 76.701 159.47 77.1462C159.016 77.2969 158.561 77.4449 158.105 77.5878C156.269 78.1915 154.504 78.9619 152.725 79.7156C150.997 80.4474 149.45 81.0348 147.586 81.3215C147.48 81.5335 147.374 81.7455 147.265 81.9639C146.603 82.1873 146.603 82.1873 145.731 82.3968C143.671 82.9268 141.694 83.6222 139.697 84.3527C139.357 84.4755 139.017 84.5982 138.666 84.7247C137.103 85.2922 135.549 85.8742 134.009 86.5019C132.456 87.1302 130.882 87.6203 129.276 88.0877C127.871 88.51 126.564 89.0477 125.23 89.6568C123.849 90.2612 122.428 90.753 121.008 91.2582C120.384 91.4829 119.759 91.7079 119.135 91.9332C118.687 92.0948 118.687 92.0948 118.23 92.2597C115.084 93.391 115.084 93.391 112.035 94.751C110.593 95.268 109.275 95.2148 107.759 95.1324C106.003 92.3345 105.011 89.2251 104.066 86.0791C103.548 84.3563 102.914 82.8062 102.061 81.2237C101.351 79.7016 100.914 78.0893 100.44 76.4812C100.05 75.1791 99.5748 73.9177 99.0875 72.6496C98.0034 69.761 96.9292 66.8723 95.976 63.9375C95.4744 62.4046 94.9151 60.9456 94.2346 59.4848C93.8501 58.6163 93.5681 57.7276 93.2824 56.8225C93.0385 56.1052 92.7759 55.4061 92.497 54.7022C92.4091 54.478 92.3213 54.2539 92.2308 54.0229C92.055 53.5764 91.8762 53.1311 91.6942 52.6872C91.1424 51.2753 90.8569 50.0986 91.0579 48.5608C91.9493 47.2563 93.2022 46.8767 94.6511 46.4129C95.1398 46.2486 95.6282 46.0838 96.1165 45.9186C96.384 45.829 96.6515 45.7395 96.927 45.6473C98.5854 45.0824 100.231 44.4802 101.878 43.8836C105.711 42.4986 105.711 42.4986 107.312 41.9389C107.711 41.799 108.111 41.659 108.522 41.5148C108.856 41.3993 109.19 41.2838 109.533 41.1648C110.39 40.8608 110.39 40.8608 111.292 40.21C111.897 40.0083 112.507 39.8232 113.119 39.648C114.737 39.1642 116.32 38.6248 117.897 38.022C120.063 37.195 122.244 36.417 124.435 35.6583C126.003 35.114 127.565 34.5574 129.123 33.9871C129.479 33.8572 129.835 33.7273 130.202 33.5935C130.894 33.3403 131.586 33.0856 132.277 32.8293C134.157 32.1433 135.987 31.6023 137.951 31.2169C137.951 31.0049 137.951 30.7929 137.951 30.5745C138.201 30.489 138.451 30.4035 138.709 30.3154C139.667 29.9874 140.625 29.6588 141.584 29.3297C142.011 29.1829 142.439 29.0363 142.867 28.89C144.977 28.1681 147.084 27.4447 149.163 26.6375C149.437 26.5318 149.711 26.426 149.993 26.317C150.488 26.1234 150.981 25.9256 151.472 25.7228C152.981 25.1338 154.05 24.9885 155.616 25.4356ZM149.911 28.3049C149.084 28.6988 148.299 28.8893 147.406 29.089C145.208 29.5984 143.18 30.4339 141.105 31.2969C138.713 32.2838 136.284 33.1746 133.844 34.0335C133.608 34.1166 133.373 34.1998 133.13 34.2854C130.206 35.3131 127.273 36.312 124.34 37.3118C123.614 37.5595 122.887 37.8076 122.161 38.0558C121.946 38.1291 121.73 38.2024 121.508 38.2779C118.626 39.2445 118.626 39.2445 115.869 40.5111C114.887 41.014 113.916 41.3887 112.866 41.7269C110.385 42.5405 107.922 43.4033 105.458 44.2686C104.667 44.5462 103.876 44.8228 103.085 45.0993C97.8195 46.6458 97.8195 46.6458 93.3062 49.5244C93.1004 51.4453 93.4813 52.7256 94.2459 54.4801C94.5816 55.2833 94.8353 56.0747 95.0727 56.9116C95.3698 57.9451 95.7072 58.9353 96.1178 59.929C96.9072 61.8781 97.6345 63.8492 98.3574 65.8237C98.5834 66.4405 98.8106 67.0568 99.0379 67.6731C100.074 70.4918 101.044 73.3288 101.978 76.1826C102.19 76.1826 102.402 76.1826 102.621 76.1826C102.647 76.4873 102.674 76.7921 102.701 77.106C102.888 78.4225 103.363 79.5528 103.875 80.7733C104.227 81.6431 104.522 82.5161 104.809 83.4092C105.378 85.1377 105.993 86.8458 106.635 88.5482C106.727 88.798 106.818 89.0479 106.912 89.3053C107.608 91.2142 107.608 91.2142 109.044 92.563C111.261 92.7375 113.338 91.7952 115.347 90.9771C117.193 90.2403 119.004 89.5333 120.928 89.03C120.928 88.818 120.928 88.606 120.928 88.3876C121.233 88.3611 121.537 88.3346 121.851 88.3073C123.16 88.1214 124.277 87.6462 125.49 87.1355C126.46 86.7534 127.435 86.4537 128.436 86.1594C129.755 85.7645 131.01 85.3276 132.27 84.7743C135.721 83.2844 139.355 82.2098 142.932 81.0634C144.385 80.5921 145.762 80.0532 147.145 79.3944C148.21 78.8901 149.26 78.4038 150.356 77.9692C156.718 75.024 160.823 69.7504 163.266 63.2821C164.02 61.0271 164.128 58.9164 164.107 56.5503C164.105 56.1686 164.103 55.7869 164.101 55.3936C164.034 51.6191 163.42 48.2544 161.761 44.8321C160.203 41.5446 159.053 38.0822 157.938 34.6263C157.657 33.7625 157.37 32.9012 157.081 32.0399C156.948 31.6231 156.948 31.6231 156.812 31.1978C156.261 29.5695 155.737 28.4454 154.331 27.3627C152.492 27.0913 151.499 27.4197 149.911 28.3049Z" fill="#CFCFCF"/>
<path d="M189.019 59.4811C189.231 59.4811 189.443 59.4811 189.661 59.4811C189.661 60.859 189.661 62.2368 189.661 63.6565C195.833 63.5923 201.793 63.3798 207.865 62.1634C208.664 62.0425 209.41 62.0096 210.217 62.0505C210.938 62.772 210.657 64.2246 210.662 65.1955C210.577 69.1131 208.64 72.5458 205.965 75.3232C204.693 76.5143 203.619 77.4289 201.866 77.7885C201.866 78.0005 201.866 78.2125 201.866 78.4309C202.926 78.4309 203.986 78.4309 205.078 78.4309C205.078 78.5369 205.078 78.6429 205.078 78.7521C199.39 79.53 193.773 79.6114 188.055 79.0733C188.055 78.9673 188.055 78.8613 188.055 78.7521C188.85 78.5931 188.85 78.5931 189.661 78.4309C189.432 78.2947 189.203 78.1585 188.967 78.0181C184.997 75.587 182.472 72.7035 181.12 68.1536C180.909 67.1173 180.956 66.074 180.969 65.0215C180.971 64.7975 180.972 64.5735 180.974 64.3427C180.977 63.7928 180.983 63.2428 180.989 62.6929C181.365 62.7385 181.74 62.784 182.127 62.8309C182.624 62.8791 183.122 62.9268 183.619 62.974C183.989 63.0212 183.989 63.0212 184.367 63.0693C185.756 63.2081 185.756 63.2081 186.966 62.6191C187.608 61.8591 188.094 61.0201 188.597 60.1636C188.736 59.9384 188.875 59.7131 189.019 59.4811Z" fill="#FAB3B3"/>
<path d="M179.704 62.3717C180.128 62.4777 180.552 62.5837 180.989 62.6929C180.994 62.9922 180.998 63.2916 181.003 63.6C181.166 67.9583 182.325 71.9901 185.447 75.1965C186.704 76.3435 188.04 77.2732 189.51 78.1273C189.666 78.2275 189.822 78.3277 189.982 78.4309C189.982 78.5369 189.982 78.6429 189.982 78.7521C187.82 78.8782 185.766 78.6974 183.639 78.3305C183.298 78.2738 183.298 78.2738 182.949 78.216C180.396 77.7493 178.682 77.0368 177.135 74.8979C176.034 72.6968 177.132 70.0689 177.841 67.914C177.98 67.5052 178.12 67.0964 178.259 66.6876C178.399 66.2677 178.538 65.8476 178.677 65.4273C179.015 64.4075 179.358 63.3891 179.704 62.3717Z" fill="#3A384A"/>
<path d="M144.374 49.2032C144.374 49.7331 144.374 50.2631 144.374 50.8091C141.584 52.227 138.668 53.1711 135.699 54.1339C134.292 54.5925 132.908 55.0971 131.527 55.6269C128.254 56.8578 124.974 58.0371 121.647 59.114C119.978 59.664 118.403 60.3227 116.836 61.1246C116.013 61.446 115.38 61.4609 114.504 61.4082C114.143 60.2037 114.143 60.2037 114.504 59.4811C115.405 59.1467 116.298 58.8443 117.214 58.5577C119.556 57.8094 119.556 57.8094 121.851 56.9317C124.779 55.7183 127.811 54.7509 130.805 53.715C131.668 53.4161 132.531 53.1163 133.394 52.8165C133.656 52.7261 133.919 52.6357 134.189 52.5426C135.339 52.1427 136.464 51.7289 137.573 51.2256C138.593 50.8091 138.593 50.8091 139.878 50.8091C139.878 50.5971 139.878 50.3851 139.878 50.1667C141.461 49.5115 142.633 49.0726 144.374 49.2032Z" fill="#466DF7"/>
<path d="M147.265 57.2328C147.235 57.9768 147.235 57.9768 146.944 58.8387C146.051 59.3493 146.051 59.3493 144.856 59.7822C144.537 59.9007 144.537 59.9007 144.212 60.0216C143.519 60.2767 142.823 60.5218 142.126 60.7658C141.645 60.9379 141.163 61.1102 140.682 61.2827C139.77 61.6079 138.857 61.9284 137.942 62.245C136.652 62.6938 135.374 63.1727 134.096 63.6564C132.068 64.4206 130.033 65.1673 127.994 65.9047C127.417 66.1139 127.417 66.1139 126.828 66.3274C125.782 66.7055 124.734 67.0783 123.685 67.4484C123.267 67.5963 122.85 67.7457 122.434 67.8964C121.844 68.1095 121.252 68.317 120.659 68.5244C120.316 68.6463 119.974 68.7682 119.62 68.8939C118.629 69.1285 118.042 69.0771 117.074 68.7954C117.094 68.2107 117.094 68.2107 117.395 67.5106C118.155 67.1327 118.844 66.8533 119.643 66.5872C119.874 66.5059 120.104 66.4245 120.342 66.3406C120.828 66.1693 121.316 66.0003 121.804 65.8334C122.493 65.5976 123.179 65.3556 123.864 65.1105C125.763 64.4325 127.667 63.7678 129.575 63.1144C132.144 62.231 134.685 61.3226 137.188 60.2639C139.105 59.455 141.038 58.7237 143.009 58.0558C143.371 57.9309 143.371 57.9309 143.74 57.8035C144.947 57.404 145.991 57.1299 147.265 57.2328Z" fill="#466DF7"/>
<path d="M142.768 45.349C142.927 46.1439 142.927 46.1439 143.089 46.9549C142.879 47.026 142.669 47.0971 142.452 47.1704C141.486 47.4981 140.521 47.8287 139.556 48.1593C139.226 48.2711 138.895 48.3829 138.554 48.4981C137.081 49.0049 135.653 49.5163 134.267 50.232C133.142 50.8046 132.259 51.0424 131.035 51.2307C130.104 51.49 129.312 51.9311 128.456 52.3725C126.848 53.1189 125.142 53.6179 123.457 54.1615C122.682 54.4145 121.908 54.6679 121.133 54.9218C120.765 55.0426 120.396 55.1633 120.016 55.2878C118.442 55.8133 116.889 56.3886 115.34 56.9831C114.481 57.2397 113.789 57.283 112.898 57.2328C112.978 56.4684 112.978 56.4684 113.219 55.6269C113.777 55.2546 113.777 55.2546 114.514 55.0096C114.929 54.8657 114.929 54.8657 115.352 54.7189C115.655 54.6211 115.958 54.5232 116.271 54.4224C116.915 54.2013 117.56 53.9801 118.205 53.7587C118.545 53.6448 118.884 53.5309 119.234 53.4135C120.998 52.8162 122.749 52.1828 124.501 51.5518C124.824 51.4375 125.146 51.3231 125.479 51.2053C127.068 50.6379 128.636 50.0415 130.191 49.3839C132.369 48.4644 134.581 47.653 136.806 46.8545C137.208 46.7071 137.61 46.5597 138.013 46.4123C138.587 46.2058 138.587 46.2058 139.174 45.9951C139.517 45.8708 139.861 45.7464 140.216 45.6183C141.122 45.3604 141.833 45.2933 142.768 45.349Z" fill="#446BF7"/>
<path d="M145.98 53.3785C145.919 54.1364 145.919 54.1364 145.659 54.9844C144.977 55.4015 144.977 55.4015 144.074 55.7059C143.743 55.8213 143.411 55.9367 143.069 56.0556C142.712 56.1724 142.354 56.2893 141.985 56.4097C141.622 56.5344 141.258 56.6591 140.884 56.7877C139.801 57.1572 138.716 57.5177 137.629 57.8751C136.815 58.1451 136 58.4153 135.186 58.6857C134.737 58.8337 134.287 58.9796 133.836 59.1227C132.532 59.5431 131.275 60.034 130.013 60.5675C128 61.4179 125.958 62.1644 123.899 62.8936C123.211 63.1385 122.524 63.3836 121.836 63.6288C121.515 63.7428 121.194 63.8569 120.863 63.9744C120.069 64.261 119.281 64.5598 118.494 64.8646C117.492 65.227 116.838 65.3607 115.789 65.2623C115.809 64.5221 115.809 64.5221 116.11 63.6564C116.881 63.2299 117.537 62.937 118.358 62.6527C118.578 62.571 118.797 62.4893 119.024 62.4051C120.377 61.9062 121.742 61.4454 123.117 61.0099C123.818 60.7658 124.475 60.476 125.147 60.1623C126.699 59.4646 128.281 58.9339 129.901 58.4171C132.122 57.6936 134.313 56.9273 136.485 56.0684C136.838 55.9294 136.838 55.9294 137.198 55.7876C137.657 55.6068 138.115 55.4259 138.574 55.2449C139.614 54.8353 140.657 54.4333 141.704 54.041C142.213 53.8478 142.213 53.8478 142.732 53.6508C143.851 53.3461 144.826 53.3306 145.98 53.3785Z" fill="#426AF7"/>
<path d="M112.677 106.334C113.874 106.512 114.502 106.833 115.327 107.719C115.936 108.543 116.111 108.95 116.291 109.987C116.11 110.87 116.11 110.87 115.769 111.473C114.773 112.051 114.025 111.97 112.898 111.834C111.673 111.082 110.933 110.247 110.329 108.943C110.208 108.1 110.208 108.1 110.329 107.337C111.043 106.403 111.516 106.233 112.677 106.334Z" fill="#FE708D"/>
<path d="M84.092 96.377C85.2886 96.5549 85.9169 96.8764 86.7417 97.7621C87.3511 98.5864 87.5258 98.9935 87.7053 100.03C87.5246 100.914 87.5246 100.914 87.1633 101.516C86.2388 102.071 85.6991 102.041 84.634 101.877C83.5401 101.303 82.6469 100.635 81.924 99.629C81.6974 98.8234 81.6366 98.2134 81.7433 97.3807C82.455 96.4444 82.9318 96.2768 84.092 96.377Z" fill="#4D4B62"/>
<path d="M179.183 3.43445C180.386 3.66371 180.847 4.28849 181.632 5.20096C182.273 6.16367 182.363 6.36797 182.354 7.44924C182.356 7.66785 182.358 7.88646 182.359 8.11169C182.274 8.73398 182.274 8.73398 181.632 9.69753C180.404 9.88852 179.866 9.80396 178.821 9.11538C178.065 8.37966 177.509 7.82711 177.36 6.75669C177.358 6.50828 177.357 6.25986 177.356 6.00392C177.351 5.7555 177.345 5.50709 177.34 5.25114C177.532 4.11134 178.075 3.66759 179.183 3.43445Z" fill="#E7E7E7"/>
<path d="M104.868 23.1873C105.671 23.7292 105.671 23.7292 106.153 24.472C106.153 25.5186 105.922 25.9654 105.27 26.7805C104.074 27.744 103.327 28.0249 101.777 27.9448C100.693 27.6838 100.693 27.6838 100.051 27.3024C99.7295 26.7203 99.7295 26.7203 99.7295 25.7768C100.126 24.5624 100.595 24.1911 101.657 23.5084C102.81 23.1238 103.657 23.081 104.868 23.1873Z" fill="#4B4961"/>
<path d="M84.3126 26.078C85.2762 26.7203 85.2762 26.7203 85.4769 27.6036C85.2225 28.9265 84.7624 29.398 83.7167 30.2094C82.5654 30.8197 81.3966 30.8894 80.1372 30.5745C79.5714 30.1505 79.5714 30.1505 79.1737 29.611C79.1536 28.5069 79.1536 28.5069 79.4949 27.3627C80.9132 25.9798 82.4128 25.7667 84.3126 26.078Z" fill="#E7E7E7"/>
<path d="M161.317 3.45453C162.761 3.64899 163.252 4.18961 164.287 5.20097C164.784 6.19398 164.703 6.99776 164.609 8.09162C164.087 8.89458 164.087 8.89458 163.324 9.37635C161.974 9.4338 161.494 9.13994 160.473 8.25221C159.654 7.16673 159.633 6.1911 159.672 4.86473C159.873 3.80764 160.291 3.6177 161.317 3.45453Z" fill="#FE6B89"/>
<path d="M182.595 24.1508C183.794 24.0393 184.374 24.057 185.405 24.7129C186.403 25.7112 186.724 26.2779 186.871 27.6839C186.76 28.744 186.519 29.1603 185.807 29.9321C184.528 29.8584 183.778 29.8018 182.796 28.9485C182.104 27.6977 181.998 26.8683 181.953 25.4356C182.254 24.6326 182.254 24.6326 182.595 24.1508Z" fill="#44425A"/>
<path d="M81.1009 43.6828C81.3195 43.6782 81.5381 43.6737 81.7633 43.669C82.3856 43.743 82.3856 43.743 83.3491 44.3854C83.1534 46.4605 83.1534 46.4605 82.6064 47.2158C81.0914 48.2819 80.0534 48.3585 78.2102 48.2396C77.5678 47.5972 77.5678 47.5972 77.4474 46.5132C77.5678 45.3489 77.5678 45.3489 78.15 44.5861C79.1204 43.8652 79.9212 43.6939 81.1009 43.6828Z" fill="#FF6987"/>
<path d="M121.891 49.2032C121.856 49.9447 121.856 49.9447 121.57 50.8091C120.702 51.3423 120.702 51.3423 119.563 51.7927C119.363 51.8727 119.163 51.9526 118.957 52.035C113.885 54.0209 113.885 54.0209 111.613 54.0209C111.613 53.491 111.613 52.961 111.613 52.415C111.87 52.3177 112.127 52.2204 112.391 52.1202C112.744 51.9856 113.097 51.8511 113.46 51.7124C113.84 51.5675 114.22 51.4226 114.612 51.2733C115.7 50.8439 116.766 50.3797 117.836 49.9058C119.285 49.2908 120.329 49.0257 121.891 49.2032Z" fill="#486EF7"/>
<path d="M142.447 1.0256C142.561 2.73858 142.561 2.73858 142.126 3.55492C141.081 4.14265 140.098 3.97448 138.914 3.91625C138.673 3.19359 138.673 3.19359 138.593 2.31033C139.587 0.710486 140.739 0.911747 142.447 1.0256Z" fill="#57556B"/>
<path d="M155.294 0.0620456C155.615 0.383229 155.615 0.383229 155.696 1.14604C155.615 1.98915 155.615 1.98915 155.274 2.57129C154.322 3.15501 153.494 3.03201 152.404 2.9527C152.192 2.84671 151.98 2.74072 151.761 2.63152C151.681 1.88878 151.681 1.88878 151.761 1.0256C152.77 -0.144175 153.826 -0.0487331 155.294 0.0620456Z" fill="#E8E8E8"/>
<path d="M74.6974 65.0214C75.3197 65.2623 75.3197 65.2623 75.9621 65.9047C76.0673 66.7765 76.0041 67.5916 75.9621 68.4741C75.6409 68.7953 75.6409 68.7953 74.8781 68.8957C74.035 68.7953 74.035 68.7953 73.4528 68.2734C72.967 67.3018 72.9315 66.6562 73.0714 65.5835C74.035 64.9411 74.035 64.9411 74.6974 65.0214Z" fill="#545268"/>
<path d="M92.6635 22.8661C93.4664 22.9263 93.4664 22.9263 94.2694 23.1873C95.0095 24.2975 94.9948 24.7767 94.9117 26.0779C94.8058 26.2899 94.6998 26.5019 94.5906 26.7203C93.7224 26.7907 93.1646 26.8258 92.4025 26.379C91.8133 25.4177 91.9212 24.6075 92.0211 23.5085C92.2331 23.2965 92.4451 23.0845 92.6635 22.8661Z" fill="#525067"/>
<path d="M89.0101 105.932C89.7729 106.053 89.7729 106.053 90.4153 106.695C90.3613 107.72 90.1431 108.234 89.532 109.064C88.8093 109.586 88.8093 109.586 87.9462 109.525C87.2034 109.265 87.2034 109.265 86.8822 108.943C86.7395 107.887 86.7877 107.467 87.4242 106.595C88.167 106.053 88.167 106.053 89.0101 105.932Z" fill="#514F66"/>
<path d="M92.0211 37.6406C92.8241 37.7008 92.8241 37.7008 93.627 37.9617C94.41 39.1362 94.3463 39.7893 94.2694 41.1736C93.9482 41.4948 93.9482 41.4948 93.1854 41.5951C92.3423 41.4948 92.3423 41.4948 91.7602 40.9728C91.2778 40.0082 91.2629 39.3486 91.3787 38.2829C91.5907 38.071 91.8027 37.859 92.0211 37.6406Z" fill="#E8E8E8"/>
<path d="M81.1011 35.0711C82.1601 35.177 82.5858 35.2711 83.3494 36.0346C83.4297 37.1588 83.4297 37.1588 83.3494 38.2829C83.1374 38.4949 82.9254 38.7069 82.707 38.9253C81.904 38.8651 81.904 38.8651 81.1011 38.6041C80.3618 37.4952 80.3479 37.0151 80.4587 35.7134C80.6707 35.5015 80.8827 35.2895 81.1011 35.0711Z" fill="#FF728E"/>
<path d="M136.024 102.52C136.13 102.626 136.236 102.732 136.345 102.841C136.264 103.945 136.264 103.945 136.024 105.089C134.918 105.826 134.428 105.816 133.133 105.732C132.812 105.41 132.812 105.41 132.691 104.668C132.812 103.804 132.812 103.804 133.514 103.062C134.476 102.485 134.927 102.367 136.024 102.52Z" fill="#4E4C63"/>
<path d="M74.0351 51.7726C74.7977 51.8464 75.2489 52.0457 75.8819 52.4752C76.4701 53.3281 76.3908 53.9748 76.2834 54.9845C75.641 55.6268 75.641 55.6268 74.8381 55.7272C74.4406 55.6775 74.4406 55.6775 74.0351 55.6268C73.2485 54.447 73.2914 53.8078 73.3927 52.415C73.6047 52.203 73.8167 51.991 74.0351 51.7726Z" fill="#E8E8E8"/>
<path d="M106.153 110.549C106.475 110.87 106.475 110.87 106.595 111.613C106.475 112.476 106.475 112.476 105.792 113.239C104.869 113.761 104.869 113.761 103.805 113.681C103.52 113.601 103.235 113.522 102.941 113.44C102.826 112.403 102.854 111.959 103.463 111.091C104.426 110.407 104.996 110.421 106.153 110.549Z" fill="#FF6F8C"/>
<path d="M124.461 108.943C124.702 109.666 124.702 109.666 124.782 110.549C124.145 111.431 123.694 111.773 122.654 112.095C121.891 112.155 121.891 112.155 121.249 111.834C121.134 110.11 121.134 110.11 121.59 109.305C122.534 108.756 123.394 108.883 124.461 108.943Z" fill="#E7E7E7"/>
<path d="M185.486 16.1212C185.698 16.3332 185.91 16.5452 186.128 16.7636C186.088 17.5666 186.088 17.5666 185.807 18.3695C184.885 19.0609 184.047 19.1309 182.916 19.0119C182.704 18.7999 182.492 18.5879 182.274 18.3695C182.334 17.5666 182.334 17.5666 182.595 16.7636C183.704 16.0243 184.184 16.0105 185.486 16.1212Z" fill="#4A485F"/>
<path d="M172.638 5.84335C172.96 6.16454 172.96 6.16454 173.04 6.94742C173.013 7.21902 172.987 7.49062 172.96 7.77045C171.661 8.63592 170.967 8.48734 169.427 8.41282C169.105 8.09164 169.105 8.09164 169.025 7.30875C169.052 7.03715 169.078 6.76555 169.105 6.48572C170.404 5.62025 171.098 5.76883 172.638 5.84335Z" fill="#FE6F8B"/>
<path d="M155.616 25.4356C156.664 26.313 157.128 27.0826 157.554 28.3714C157.662 28.689 157.769 29.0065 157.88 29.3337C157.987 29.6637 158.095 29.9937 158.205 30.3336C158.423 30.9845 158.641 31.6352 158.859 32.2858C158.963 32.5974 159.066 32.9089 159.173 33.2299C159.754 34.9468 160.401 36.626 161.136 38.2829C162.11 40.5912 162.86 42.9693 163.639 45.3489C164.25 47.2009 164.887 49.0272 165.633 50.8292C166.423 52.7411 167.087 54.6731 167.728 56.6393C168.168 57.9734 168.652 59.29 169.146 60.6052C169.223 60.8128 169.301 61.0204 169.381 61.2343C169.763 62.2455 170.166 63.242 170.605 64.2298C171.014 65.2178 171.128 65.817 171.033 66.8683C171.245 66.8683 171.457 66.8683 171.675 66.8683C172.174 68.054 172.402 69.1654 172.478 70.4414C172.495 70.7073 172.511 70.9731 172.528 71.2469C172.272 72.1708 171.887 72.4879 171.072 72.9692C169.52 73.7041 167.883 74.2182 166.255 74.7574C165.52 75.0051 164.785 75.2531 164.049 75.5013C163.702 75.6179 163.355 75.7344 162.998 75.8545C161.812 76.2605 160.642 76.701 159.47 77.1462C159.016 77.2969 158.561 77.4449 158.105 77.5878C156.269 78.1915 154.504 78.9619 152.725 79.7156C150.997 80.4474 149.45 81.0348 147.586 81.3215C147.48 81.5335 147.374 81.7455 147.265 81.9639C146.603 82.1873 146.603 82.1873 145.731 82.3968C143.671 82.9268 141.694 83.6222 139.697 84.3527C139.357 84.4755 139.017 84.5982 138.666 84.7247C137.103 85.2922 135.549 85.8742 134.009 86.5019C132.456 87.1302 130.882 87.6203 129.276 88.0877C127.871 88.51 126.564 89.0477 125.23 89.6568C123.849 90.2612 122.428 90.753 121.008 91.2582C120.384 91.4829 119.759 91.7079 119.135 91.9332C118.687 92.0948 118.687 92.0948 118.23 92.2597C115.084 93.391 115.084 93.391 112.035 94.751C110.593 95.268 109.275 95.2148 107.759 95.1324C106.003 92.3345 105.011 89.2251 104.066 86.0791C103.548 84.3563 102.914 82.8062 102.061 81.2237C101.351 79.7016 100.914 78.0893 100.44 76.4812C100.05 75.1791 99.5748 73.9177 99.0875 72.6496C98.0034 69.761 96.9292 66.8723 95.976 63.9375C95.4744 62.4046 94.9151 60.9456 94.2346 59.4848C93.8501 58.6163 93.5681 57.7276 93.2824 56.8225C93.0385 56.1052 92.7759 55.4061 92.497 54.7022C92.4091 54.478 92.3213 54.2539 92.2308 54.0229C92.055 53.5764 91.8762 53.1311 91.6942 52.6872C91.1424 51.2753 90.8569 50.0986 91.0579 48.5608C91.9493 47.2563 93.2022 46.8767 94.6511 46.4129C95.1398 46.2486 95.6282 46.0838 96.1165 45.9186C96.384 45.829 96.6515 45.7395 96.927 45.6473C98.5854 45.0824 100.231 44.4802 101.878 43.8836C105.711 42.4986 105.711 42.4986 107.312 41.9389C107.711 41.799 108.111 41.659 108.522 41.5148C108.856 41.3993 109.19 41.2838 109.533 41.1648C110.39 40.8608 110.39 40.8608 111.292 40.21C111.897 40.0083 112.507 39.8232 113.119 39.648C114.737 39.1642 116.32 38.6248 117.897 38.022C120.063 37.195 122.244 36.417 124.435 35.6583C126.003 35.114 127.565 34.5574 129.123 33.9871C129.479 33.8572 129.835 33.7273 130.202 33.5935C130.894 33.3403 131.586 33.0856 132.277 32.8293C134.157 32.1433 135.987 31.6023 137.951 31.2169C137.951 31.0049 137.951 30.7929 137.951 30.5745C138.201 30.489 138.451 30.4035 138.709 30.3154C139.667 29.9874 140.625 29.6588 141.584 29.3297C142.011 29.1829 142.439 29.0363 142.867 28.89C144.977 28.1681 147.084 27.4447 149.163 26.6375C149.437 26.5318 149.711 26.426 149.993 26.317C150.488 26.1234 150.981 25.9256 151.472 25.7228C152.981 25.1338 154.05 24.9885 155.616 25.4356ZM149.911 28.3049C149.084 28.6988 148.299 28.8893 147.406 29.089C145.208 29.5984 143.18 30.4339 141.105 31.2969C138.713 32.2838 136.284 33.1746 133.844 34.0335C133.608 34.1166 133.373 34.1998 133.13 34.2854C130.206 35.3131 127.273 36.312 124.34 37.3118C123.614 37.5595 122.887 37.8076 122.161 38.0558C121.946 38.1291 121.73 38.2024 121.508 38.2779C118.626 39.2445 118.626 39.2445 115.869 40.5111C114.887 41.014 113.916 41.3887 112.866 41.7269C110.385 42.5405 107.922 43.4033 105.458 44.2686C104.667 44.5462 103.876 44.8228 103.085 45.0993C97.8195 46.6458 97.8195 46.6458 93.3062 49.5244C93.1004 51.4453 93.4813 52.7256 94.2459 54.4801C94.5816 55.2833 94.8353 56.0747 95.0727 56.9116C95.3698 57.9451 95.7072 58.9353 96.1178 59.929C96.9072 61.8781 97.6345 63.8492 98.3574 65.8237C98.5834 66.4405 98.8106 67.0568 99.0379 67.6731C100.074 70.4918 101.044 73.3288 101.978 76.1826C102.19 76.1826 102.402 76.1826 102.621 76.1826C102.647 76.4873 102.674 76.7921 102.701 77.106C102.888 78.4225 103.363 79.5528 103.875 80.7733C104.227 81.6431 104.522 82.5161 104.809 83.4092C105.378 85.1377 105.993 86.8458 106.635 88.5482C106.727 88.798 106.818 89.0479 106.912 89.3053C107.608 91.2142 107.608 91.2142 109.044 92.563C111.261 92.7375 113.338 91.7952 115.347 90.9771C117.193 90.2403 119.004 89.5333 120.928 89.03C120.928 88.818 120.928 88.606 120.928 88.3876C121.233 88.3611 121.537 88.3346 121.851 88.3073C123.16 88.1214 124.277 87.6462 125.49 87.1355C126.46 86.7534 127.435 86.4537 128.436 86.1594C129.755 85.7645 131.01 85.3276 132.27 84.7743C135.721 83.2844 139.355 82.2098 142.932 81.0634C144.385 80.5921 145.762 80.0532 147.145 79.3944C148.21 78.8901 149.26 78.4038 150.356 77.9692C156.718 75.024 160.823 69.7504 163.266 63.2821C164.02 61.0271 164.128 58.9164 164.107 56.5503C164.105 56.1686 164.103 55.7869 164.101 55.3936C164.034 51.6191 163.42 48.2544 161.761 44.8321C160.203 41.5446 159.053 38.0822 157.938 34.6263C157.657 33.7625 157.37 32.9012 157.081 32.0399C156.948 31.6231 156.948 31.6231 156.812 31.1978C156.261 29.5695 155.737 28.4454 154.331 27.3627C152.492 27.0913 151.499 27.4197 149.911 28.3049Z" fill="#374151"/>
<path d="M189.019 59.4811C189.231 59.4811 189.443 59.4811 189.661 59.4811C189.661 60.859 189.661 62.2368 189.661 63.6565C195.833 63.5923 201.793 63.3798 207.865 62.1634C208.664 62.0425 209.41 62.0096 210.217 62.0505C210.938 62.772 210.657 64.2246 210.662 65.1955C210.577 69.1131 208.64 72.5458 205.965 75.3232C204.693 76.5143 203.619 77.4289 201.866 77.7885C201.866 78.0005 201.866 78.2125 201.866 78.4309C202.926 78.4309 203.986 78.4309 205.078 78.4309C205.078 78.5369 205.078 78.6429 205.078 78.7521C199.39 79.53 193.773 79.6114 188.055 79.0733C188.055 78.9673 188.055 78.8613 188.055 78.7521C188.85 78.5931 188.85 78.5931 189.661 78.4309C189.432 78.2947 189.203 78.1585 188.967 78.0181C184.997 75.587 182.472 72.7035 181.12 68.1536C180.909 67.1173 180.956 66.074 180.969 65.0215C180.971 64.7975 180.972 64.5735 180.974 64.3427C180.977 63.7928 180.983 63.2428 180.989 62.6929C181.365 62.7385 181.74 62.784 182.127 62.8309C182.624 62.8791 183.122 62.9268 183.619 62.974C183.989 63.0212 183.989 63.0212 184.367 63.0693C185.756 63.2081 185.756 63.2081 186.966 62.6191C187.608 61.8591 188.094 61.0201 188.597 60.1636C188.736 59.9384 188.875 59.7131 189.019 59.4811Z" fill="#FAB3B3"/>
<path d="M179.704 62.3717C180.128 62.4777 180.552 62.5837 180.989 62.6929C180.994 62.9922 180.998 63.2916 181.003 63.6C181.166 67.9583 182.325 71.9901 185.447 75.1965C186.704 76.3435 188.04 77.2732 189.51 78.1273C189.666 78.2275 189.822 78.3277 189.982 78.4309C189.982 78.5369 189.982 78.6429 189.982 78.7521C187.82 78.8782 185.766 78.6974 183.639 78.3305C183.298 78.2738 183.298 78.2738 182.949 78.216C180.396 77.7493 178.682 77.0368 177.135 74.8979C176.034 72.6968 177.132 70.0689 177.841 67.914C177.98 67.5052 178.12 67.0964 178.259 66.6876C178.399 66.2677 178.538 65.8476 178.677 65.4273C179.015 64.4075 179.358 63.3891 179.704 62.3717Z" fill="#3A384A"/>
<path d="M144.374 49.2032C144.374 49.7331 144.374 50.2631 144.374 50.8091C141.584 52.227 138.668 53.1711 135.699 54.1339C134.292 54.5925 132.908 55.0971 131.527 55.6269C128.254 56.8578 124.974 58.0371 121.647 59.114C119.978 59.664 118.403 60.3227 116.836 61.1246C116.013 61.446 115.38 61.4609 114.504 61.4082C114.143 60.2037 114.143 60.2037 114.504 59.4811C115.405 59.1467 116.298 58.8443 117.214 58.5577C119.556 57.8094 119.556 57.8094 121.851 56.9317C124.779 55.7183 127.811 54.7509 130.805 53.715C131.668 53.4161 132.531 53.1163 133.394 52.8165C133.656 52.7261 133.919 52.6357 134.189 52.5426C135.339 52.1427 136.464 51.7289 137.573 51.2256C138.593 50.8091 138.593 50.8091 139.878 50.8091C139.878 50.5971 139.878 50.3851 139.878 50.1667C141.461 49.5115 142.633 49.0726 144.374 49.2032Z" fill="white"/>
<path d="M147.265 57.2328C147.235 57.9768 147.235 57.9768 146.944 58.8387C146.051 59.3493 146.051 59.3493 144.856 59.7822C144.537 59.9007 144.537 59.9007 144.212 60.0216C143.519 60.2767 142.823 60.5218 142.126 60.7658C141.645 60.9379 141.163 61.1102 140.682 61.2827C139.77 61.6079 138.857 61.9284 137.942 62.245C136.652 62.6938 135.374 63.1727 134.096 63.6564C132.068 64.4206 130.033 65.1673 127.994 65.9047C127.417 66.1139 127.417 66.1139 126.828 66.3274C125.782 66.7055 124.734 67.0783 123.685 67.4484C123.267 67.5963 122.85 67.7457 122.434 67.8964C121.844 68.1095 121.252 68.317 120.659 68.5244C120.316 68.6463 119.974 68.7682 119.62 68.8939C118.629 69.1285 118.042 69.0771 117.074 68.7954C117.094 68.2107 117.094 68.2107 117.395 67.5106C118.155 67.1327 118.844 66.8533 119.643 66.5872C119.874 66.5059 120.104 66.4245 120.342 66.3406C120.828 66.1693 121.316 66.0003 121.804 65.8334C122.493 65.5976 123.179 65.3556 123.864 65.1105C125.763 64.4325 127.667 63.7678 129.575 63.1144C132.144 62.231 134.685 61.3226 137.188 60.2639C139.105 59.455 141.038 58.7237 143.009 58.0558C143.371 57.9309 143.371 57.9309 143.74 57.8035C144.947 57.404 145.991 57.1299 147.265 57.2328Z" fill="white"/>
<path d="M142.768 45.349C142.927 46.1439 142.927 46.1439 143.089 46.9549C142.879 47.026 142.669 47.0971 142.452 47.1704C141.486 47.4981 140.521 47.8287 139.556 48.1593C139.226 48.2711 138.895 48.3829 138.554 48.4981C137.081 49.0049 135.653 49.5163 134.267 50.232C133.142 50.8046 132.259 51.0424 131.035 51.2307C130.104 51.49 129.312 51.9311 128.456 52.3725C126.848 53.1189 125.142 53.6179 123.457 54.1615C122.682 54.4145 121.908 54.6679 121.133 54.9218C120.765 55.0426 120.396 55.1633 120.016 55.2878C118.442 55.8133 116.889 56.3886 115.34 56.9831C114.481 57.2397 113.789 57.283 112.898 57.2328C112.978 56.4684 112.978 56.4684 113.219 55.6269C113.777 55.2546 113.777 55.2546 114.514 55.0096C114.929 54.8657 114.929 54.8657 115.352 54.7189C115.655 54.6211 115.958 54.5232 116.271 54.4224C116.915 54.2013 117.56 53.9801 118.205 53.7587C118.545 53.6448 118.884 53.5309 119.234 53.4135C120.998 52.8162 122.749 52.1828 124.501 51.5518C124.824 51.4375 125.146 51.3231 125.479 51.2053C127.068 50.6379 128.636 50.0415 130.191 49.3839C132.369 48.4644 134.581 47.653 136.806 46.8545C137.208 46.7071 137.61 46.5597 138.013 46.4123C138.587 46.2058 138.587 46.2058 139.174 45.9951C139.517 45.8708 139.861 45.7464 140.216 45.6183C141.122 45.3604 141.833 45.2933 142.768 45.349Z" fill="white"/>
<path d="M145.98 53.3785C145.919 54.1364 145.919 54.1364 145.659 54.9844C144.977 55.4015 144.977 55.4015 144.074 55.7059C143.743 55.8213 143.411 55.9367 143.069 56.0556C142.712 56.1724 142.354 56.2893 141.985 56.4097C141.622 56.5344 141.258 56.6591 140.884 56.7877C139.801 57.1572 138.716 57.5177 137.629 57.8751C136.815 58.1451 136 58.4153 135.186 58.6857C134.737 58.8337 134.287 58.9796 133.836 59.1227C132.532 59.5431 131.275 60.034 130.013 60.5675C128 61.4179 125.958 62.1644 123.899 62.8936C123.211 63.1385 122.524 63.3836 121.836 63.6288C121.515 63.7428 121.194 63.8569 120.863 63.9744C120.069 64.261 119.281 64.5598 118.494 64.8646C117.492 65.227 116.838 65.3607 115.789 65.2623C115.809 64.5221 115.809 64.5221 116.11 63.6564C116.881 63.2299 117.537 62.937 118.358 62.6527C118.578 62.571 118.797 62.4893 119.024 62.4051C120.377 61.9062 121.742 61.4454 123.117 61.0099C123.818 60.7658 124.475 60.476 125.147 60.1623C126.699 59.4646 128.281 58.9339 129.901 58.4171C132.122 57.6936 134.313 56.9273 136.485 56.0684C136.838 55.9294 136.838 55.9294 137.198 55.7876C137.657 55.6068 138.115 55.4259 138.574 55.2449C139.614 54.8353 140.657 54.4333 141.704 54.041C142.213 53.8478 142.213 53.8478 142.732 53.6508C143.851 53.3461 144.826 53.3306 145.98 53.3785Z" fill="white"/>
<path d="M112.677 106.334C113.874 106.512 114.502 106.833 115.327 107.719C115.936 108.543 116.111 108.95 116.291 109.987C116.11 110.87 116.11 110.87 115.769 111.473C114.773 112.051 114.025 111.97 112.898 111.834C111.673 111.082 110.933 110.247 110.329 108.943C110.208 108.1 110.208 108.1 110.329 107.337C111.043 106.403 111.516 106.233 112.677 106.334Z" fill="#FE708D"/>
<path d="M84.092 96.377C85.2886 96.5549 85.9169 96.8764 86.7417 97.7621C87.3511 98.5864 87.5258 98.9935 87.7053 100.03C87.5246 100.914 87.5246 100.914 87.1633 101.516C86.2388 102.071 85.6991 102.041 84.634 101.877C83.5401 101.303 82.6469 100.635 81.924 99.629C81.6974 98.8234 81.6366 98.2134 81.7433 97.3807C82.455 96.4444 82.9318 96.2768 84.092 96.377Z" fill="#4D4B62"/>
<path d="M179.183 3.43445C180.386 3.66371 180.847 4.28849 181.632 5.20096C182.273 6.16367 182.363 6.36797 182.354 7.44924C182.356 7.66785 182.358 7.88646 182.359 8.11169C182.274 8.73398 182.274 8.73398 181.632 9.69753C180.404 9.88852 179.866 9.80396 178.821 9.11538C178.065 8.37966 177.509 7.82711 177.36 6.75669C177.358 6.50828 177.357 6.25986 177.356 6.00392C177.351 5.7555 177.345 5.50709 177.34 5.25114C177.532 4.11134 178.075 3.66759 179.183 3.43445Z" fill="#E7E7E7"/>
<path d="M104.868 23.1873C105.671 23.7292 105.671 23.7292 106.153 24.472C106.153 25.5186 105.922 25.9654 105.27 26.7805C104.074 27.744 103.327 28.0249 101.777 27.9448C100.693 27.6838 100.693 27.6838 100.051 27.3024C99.7295 26.7203 99.7295 26.7203 99.7295 25.7768C100.126 24.5624 100.595 24.1911 101.657 23.5084C102.81 23.1238 103.657 23.081 104.868 23.1873Z" fill="#4B4961"/>
<path d="M84.3126 26.078C85.2762 26.7203 85.2762 26.7203 85.4769 27.6036C85.2225 28.9265 84.7624 29.398 83.7167 30.2094C82.5654 30.8197 81.3966 30.8894 80.1372 30.5745C79.5714 30.1505 79.5714 30.1505 79.1737 29.611C79.1536 28.5069 79.1536 28.5069 79.4949 27.3627C80.9132 25.9798 82.4128 25.7667 84.3126 26.078Z" fill="#E7E7E7"/>
<path d="M161.317 3.45453C162.761 3.64899 163.252 4.18961 164.287 5.20097C164.784 6.19398 164.703 6.99776 164.609 8.09162C164.087 8.89458 164.087 8.89458 163.324 9.37635C161.974 9.4338 161.494 9.13994 160.473 8.25221C159.654 7.16673 159.633 6.1911 159.672 4.86473C159.873 3.80764 160.291 3.6177 161.317 3.45453Z" fill="#FE6B89"/>
<path d="M182.595 24.1508C183.794 24.0393 184.374 24.057 185.405 24.7129C186.403 25.7112 186.724 26.2779 186.871 27.6839C186.76 28.744 186.519 29.1603 185.807 29.9321C184.528 29.8584 183.778 29.8018 182.796 28.9485C182.104 27.6977 181.998 26.8683 181.953 25.4356C182.254 24.6326 182.254 24.6326 182.595 24.1508Z" fill="#44425A"/>
<path d="M81.1009 43.6828C81.3195 43.6782 81.5381 43.6737 81.7633 43.669C82.3856 43.743 82.3856 43.743 83.3491 44.3854C83.1534 46.4605 83.1534 46.4605 82.6064 47.2158C81.0914 48.2819 80.0534 48.3585 78.2102 48.2396C77.5678 47.5972 77.5678 47.5972 77.4474 46.5132C77.5678 45.3489 77.5678 45.3489 78.15 44.5861C79.1204 43.8652 79.9212 43.6939 81.1009 43.6828Z" fill="#FF6987"/>
<path d="M121.891 49.2032C121.856 49.9447 121.856 49.9447 121.57 50.8091C120.702 51.3423 120.702 51.3423 119.563 51.7927C119.363 51.8727 119.163 51.9526 118.957 52.035C113.885 54.0209 113.885 54.0209 111.613 54.0209C111.613 53.491 111.613 52.961 111.613 52.415C111.87 52.3177 112.127 52.2204 112.391 52.1202C112.744 51.9856 113.097 51.8511 113.46 51.7124C113.84 51.5675 114.22 51.4226 114.612 51.2733C115.7 50.8439 116.766 50.3797 117.836 49.9058C119.285 49.2908 120.329 49.0257 121.891 49.2032Z" fill="white"/>
<path d="M142.447 1.0256C142.561 2.73858 142.561 2.73858 142.126 3.55492C141.081 4.14265 140.098 3.97448 138.914 3.91625C138.673 3.19359 138.673 3.19359 138.593 2.31033C139.587 0.710486 140.739 0.911747 142.447 1.0256Z" fill="#57556B"/>
<path d="M155.294 0.0620456C155.615 0.383229 155.615 0.383229 155.696 1.14604C155.615 1.98915 155.615 1.98915 155.274 2.57129C154.322 3.15501 153.494 3.03201 152.404 2.9527C152.192 2.84671 151.98 2.74072 151.761 2.63152C151.681 1.88878 151.681 1.88878 151.761 1.0256C152.77 -0.144175 153.826 -0.0487331 155.294 0.0620456Z" fill="#E8E8E8"/>
<path d="M74.6974 65.0214C75.3197 65.2623 75.3197 65.2623 75.9621 65.9047C76.0673 66.7765 76.0041 67.5916 75.9621 68.4741C75.6409 68.7953 75.6409 68.7953 74.8781 68.8957C74.035 68.7953 74.035 68.7953 73.4528 68.2734C72.967 67.3018 72.9315 66.6562 73.0714 65.5835C74.035 64.9411 74.035 64.9411 74.6974 65.0214Z" fill="#545268"/>
<path d="M92.6635 22.8661C93.4664 22.9263 93.4664 22.9263 94.2694 23.1873C95.0095 24.2975 94.9948 24.7767 94.9117 26.0779C94.8058 26.2899 94.6998 26.5019 94.5906 26.7203C93.7224 26.7907 93.1646 26.8258 92.4025 26.379C91.8133 25.4177 91.9212 24.6075 92.0211 23.5085C92.2331 23.2965 92.4451 23.0845 92.6635 22.8661Z" fill="#525067"/>
<path d="M89.0101 105.932C89.7729 106.053 89.7729 106.053 90.4153 106.695C90.3613 107.72 90.1431 108.234 89.532 109.064C88.8093 109.586 88.8093 109.586 87.9462 109.525C87.2034 109.265 87.2034 109.265 86.8822 108.943C86.7395 107.887 86.7877 107.467 87.4242 106.595C88.167 106.053 88.167 106.053 89.0101 105.932Z" fill="#514F66"/>
<path d="M92.0211 37.6406C92.8241 37.7008 92.8241 37.7008 93.627 37.9617C94.41 39.1362 94.3463 39.7893 94.2694 41.1736C93.9482 41.4948 93.9482 41.4948 93.1854 41.5951C92.3423 41.4948 92.3423 41.4948 91.7602 40.9728C91.2778 40.0082 91.2629 39.3486 91.3787 38.2829C91.5907 38.071 91.8027 37.859 92.0211 37.6406Z" fill="#E8E8E8"/>
<path d="M81.1011 35.0711C82.1601 35.177 82.5858 35.2711 83.3494 36.0346C83.4297 37.1588 83.4297 37.1588 83.3494 38.2829C83.1374 38.4949 82.9254 38.7069 82.707 38.9253C81.904 38.8651 81.904 38.8651 81.1011 38.6041C80.3618 37.4952 80.3479 37.0151 80.4587 35.7134C80.6707 35.5015 80.8827 35.2895 81.1011 35.0711Z" fill="#FF728E"/>
<path d="M136.024 102.52C136.13 102.626 136.236 102.732 136.345 102.841C136.264 103.945 136.264 103.945 136.024 105.089C134.918 105.826 134.428 105.816 133.133 105.732C132.812 105.41 132.812 105.41 132.691 104.668C132.812 103.804 132.812 103.804 133.514 103.062C134.476 102.485 134.927 102.367 136.024 102.52Z" fill="#4E4C63"/>
<path d="M74.0351 51.7726C74.7977 51.8464 75.2489 52.0457 75.8819 52.4752C76.4701 53.3281 76.3908 53.9748 76.2834 54.9845C75.641 55.6268 75.641 55.6268 74.8381 55.7272C74.4406 55.6775 74.4406 55.6775 74.0351 55.6268C73.2485 54.447 73.2914 53.8078 73.3927 52.415C73.6047 52.203 73.8167 51.991 74.0351 51.7726Z" fill="#E8E8E8"/>
<path d="M106.153 110.549C106.475 110.87 106.475 110.87 106.595 111.613C106.475 112.476 106.475 112.476 105.792 113.239C104.869 113.761 104.869 113.761 103.805 113.681C103.52 113.601 103.235 113.522 102.941 113.44C102.826 112.403 102.854 111.959 103.463 111.091C104.426 110.407 104.996 110.421 106.153 110.549Z" fill="#FF6F8C"/>
<path d="M124.461 108.943C124.702 109.666 124.702 109.666 124.782 110.549C124.145 111.431 123.694 111.773 122.654 112.095C121.891 112.155 121.891 112.155 121.249 111.834C121.134 110.11 121.134 110.11 121.59 109.305C122.534 108.756 123.394 108.883 124.461 108.943Z" fill="#E7E7E7"/>
<path d="M185.486 16.1212C185.698 16.3332 185.91 16.5452 186.128 16.7636C186.088 17.5666 186.088 17.5666 185.807 18.3695C184.885 19.0609 184.047 19.1309 182.916 19.0119C182.704 18.7999 182.492 18.5879 182.274 18.3695C182.334 17.5666 182.334 17.5666 182.595 16.7636C183.704 16.0243 184.184 16.0105 185.486 16.1212Z" fill="#4A485F"/>
<path d="M172.638 5.84335C172.96 6.16454 172.96 6.16454 173.04 6.94742C173.013 7.21902 172.987 7.49062 172.96 7.77045C171.661 8.63592 170.967 8.48734 169.427 8.41282C169.105 8.09164 169.105 8.09164 169.025 7.30875C169.052 7.03715 169.078 6.76555 169.105 6.48572C170.404 5.62025 171.098 5.76883 172.638 5.84335Z" fill="#FE6F8B"/>
</svg>
