<svg width="320" height="189" viewBox="0 0 320 189" fill="none" xmlns="http://www.w3.org/2000/svg">
<g opacity="0.1">
<rect x="5.24585" width="309.508" height="6" rx="3" fill="#F57760"/>
<rect opacity="0.6" x="33.5376" y="18" width="187.964" height="6.26913" rx="3.13456" fill="#F57760"/>
<rect x="227.267" y="18" width="59.1952" height="6.26913" rx="3.13456" fill="#F57760"/>
<rect x="0.576538" y="36.269" width="253.886" height="6.26913" rx="3.13456" fill="#F57760"/>
<rect opacity="0.6" x="260.228" y="36.269" width="59.1952" height="6.26913" rx="3.13456" fill="#F57760"/>
<rect width="201.61" height="6.26913" rx="3.13456" transform="matrix(-1 0 0 1 312.12 54.5381)" fill="#F57760"/>
<rect width="96.8649" height="6.26913" rx="3.13456" transform="matrix(-1 0 0 1 104.745 54.5381)" fill="#F57760"/>
<rect opacity="0.6" x="33.224" y="72.8076" width="253.552" height="6" rx="3" fill="#F57760"/>
<rect width="253.886" height="6.26913" rx="3.13456" transform="matrix(-1 0 0 1 319.423 90.8076)" fill="#F57760"/>
<rect width="59.1952" height="6.26913" rx="3.13456" transform="matrix(-1 0 0 1 59.7717 90.8076)" fill="#F57760"/>
<rect x="6.99451" y="109.077" width="306.011" height="6" rx="3" fill="#F57760"/>
<rect opacity="0.6" width="187.964" height="6.26913" rx="3.13456" transform="matrix(-1 0 0 1 286.462 127.077)" fill="#F57760"/>
<rect width="59.1952" height="6.26913" rx="3.13456" transform="matrix(-1 0 0 1 92.7327 127.077)" fill="#F57760"/>
<rect x="0.576538" y="145.346" width="253.886" height="6.26913" rx="3.13456" fill="#F57760"/>
<rect x="260.228" y="145.346" width="59.1952" height="6.26913" rx="3.13456" fill="#F57760"/>
<rect opacity="0.6" y="163.615" width="320" height="7" rx="3.5" fill="#F57760"/>
<rect y="182.615" width="320" height="6" rx="3" fill="#F57760"/>
</g>
<g opacity="0.3">
<path d="M118.932 46.1316C117.157 46.7382 115.696 47.7942 114.595 49.2995C113.27 51.097 113 52.3327 113 56.8038V60.7132L113.629 61.2524L114.258 61.7917H120.999H127.716V98.3694C127.716 138.699 127.627 136.093 129.132 138.317C130.008 139.643 131.603 140.879 133.176 141.463C134.322 141.867 135.198 141.89 165.125 141.89H195.906L197.187 141.283C198.895 140.497 200.512 138.946 201.276 137.374C201.995 135.891 202.4 132.79 202.265 129.577C202.175 126.836 202.04 126.724 198.513 126.724C195.21 126.724 194.783 126.904 194.783 128.297C194.783 129.577 195.277 129.869 197.569 129.869H199.209L199.119 132.386C199.03 135.217 198.692 136.138 197.322 137.441C195.749 138.946 197.592 138.856 168.945 138.856H142.972L143.444 138.205C144.41 136.812 144.657 135.913 144.77 132.902L144.904 129.982L167.844 129.869C186.829 129.779 190.851 129.712 191.143 129.442C191.638 129.038 191.638 127.555 191.166 127.151C190.964 126.993 190.222 126.814 189.481 126.769L188.155 126.679V118.411C188.155 110.435 188.133 110.165 187.706 109.761C187.166 109.289 186.088 109.221 185.594 109.648C185.279 109.895 185.234 110.996 185.234 118.321V126.724H175.551H165.844L166.002 124.971C166.092 124.028 166.249 123.151 166.361 123.062C166.451 122.949 167.417 122.567 168.518 122.208C173.686 120.455 178.696 116.883 180.965 113.333C181.729 112.12 181.842 111.041 181.302 110.008C180.965 109.401 180.988 109.334 181.797 108.21C182.246 107.581 183.167 106.323 183.819 105.402C185.526 103.065 186.358 101.492 187.908 97.6729C189.346 94.2128 189.503 93.4264 188.941 92.7973C188.627 92.4379 188.717 92.303 190.042 91.1347C192.873 88.6633 196.693 83.6754 196.693 82.4621C196.693 81.3612 195.502 80.777 194.446 81.3387C194.199 81.4735 193.57 82.1925 193.008 82.9789C191.278 85.4054 191.817 85.2481 185.549 85.338C182.313 85.4054 179.954 85.3605 179.819 85.2257C179.46 84.8662 184.178 78.0809 186.65 75.4297L187.436 74.5984H192.739H198.063L197.704 75.2724C197.052 76.5306 197.367 77.8113 198.4 78.0584C199.344 78.3056 199.973 77.6765 201.074 75.4971C202.175 73.2952 202.31 72.4639 201.658 71.6326L201.209 71.0709L201.883 70.0823C203.928 67.0716 205.837 62.0388 206.579 57.6576C207.14 54.3548 207.14 53.8156 206.579 53.2539C206.04 52.7147 205.276 52.6922 202.714 53.1415C198.872 53.8156 195.053 55.4108 191.143 58.0171C189.189 59.3427 188.739 59.5449 187.863 59.5449C187.009 59.5449 186.627 59.7022 185.414 60.6009C181.819 63.2296 176.09 69.8352 172.72 75.1601C170.271 79.047 166.766 86.057 165.463 89.6743C165.193 90.4607 165.125 90.4831 164.339 90.3933C163.171 90.236 162.721 90.5506 161.935 92.0559C158.363 98.8187 158.34 108.278 161.89 118.725C163.103 122.343 163.058 122.006 162.632 125.645L162.497 126.724H152.723C143.017 126.724 142.298 126.769 141.826 127.488C141.736 127.623 141.647 129.15 141.647 130.903C141.647 134.61 141.332 135.936 140.209 137.104C137.423 139.957 132.862 139.261 131.221 135.711C130.75 134.7 130.75 134.655 130.637 93.4714L130.525 52.2428L129.739 50.6701C129.312 49.7938 128.93 49.0299 128.885 48.9176C128.84 48.8277 137.805 48.7603 148.836 48.7603H168.855L169.394 48.1986C170.091 47.5246 170.113 46.7382 169.439 46.1091L168.923 45.6148H144.657L120.414 45.6373L118.932 46.1316ZM124.122 49.2321C125.47 49.8388 126.323 50.6701 126.953 52.0181C127.424 53.0067 127.492 53.4561 127.492 56.0174V58.8709L121.83 58.8259L116.146 58.7585V55.95C116.146 52.6248 116.393 51.7485 117.718 50.4454C119.336 48.8052 122.055 48.2885 124.122 49.2321ZM200.288 57.4778C197.165 60.0616 192.873 63.8812 190.582 66.1055L187.975 68.6444L187.841 67.858C187.773 67.4311 187.706 66.1504 187.706 65.0495V63.0049L188.559 63.0948C189.301 63.1622 189.638 62.9825 191.525 61.5895C193.772 59.9268 197.007 58.1294 199.411 57.2082C201.344 56.4668 201.479 56.4893 200.288 57.4778ZM202.445 61.3873C201.411 65.0495 200.467 66.9143 198.692 68.914C198.086 69.5656 197.524 70.4193 197.434 70.7788L197.322 71.4529H193.727H190.132L190.806 70.5991C191.66 69.5431 196.041 65.2742 198.266 63.342C199.816 61.9714 202.804 59.5449 202.916 59.5449C202.939 59.5449 202.714 60.3762 202.445 61.3873ZM184.628 69.0263L184.785 72.4414L184.066 73.475C180.134 79.047 177.46 82.6194 177.326 82.5071C177.123 82.2824 175.798 77.1148 175.798 76.5306C175.798 75.9015 179.482 70.8912 182.089 67.9703C183.257 66.6672 184.268 65.6112 184.336 65.6112C184.425 65.6112 184.56 67.139 184.628 69.0263ZM174.809 85.8323C174.921 86.731 174.787 87.113 173.753 89.2025C173.124 90.5056 171.911 92.9996 171.079 94.752L169.574 97.92L168.653 95.2463L167.709 92.5502L170.563 86.3491L173.416 80.1704L174.045 82.4846C174.405 83.7653 174.742 85.2706 174.809 85.8323ZM188.38 88.3936C188.38 88.4386 187.571 89.1126 186.56 89.899C185.571 90.6629 184.65 91.4942 184.538 91.6964C184.156 92.4154 184.336 93.1568 185.01 93.8084C185.796 94.5723 185.841 95.1115 185.234 96.1226C184.628 97.1112 184.021 97.3359 178.943 98.5267C176.539 99.0883 174 99.695 173.326 99.8747C172.652 100.054 172.091 100.167 172.046 100.144C171.956 100.032 176.921 89.5395 177.37 88.9329L177.842 88.3038H183.1C185.998 88.3038 188.38 88.3487 188.38 88.3936ZM166.339 98.0548C167.103 100.144 167.709 102.122 167.709 102.436C167.709 103.177 164.317 115.041 164.092 115.041C163.845 115.041 162.834 110.48 162.519 108.008C162.205 105.312 162.362 100.953 162.879 98.5267C163.283 96.5719 164.496 93.7635 164.788 94.0555C164.901 94.1679 165.597 95.9653 166.339 98.0548ZM182.516 101.605C181.639 103.357 180.157 105.469 178.876 106.862C177.505 108.345 177.303 109.019 177.932 110.098C178.606 111.288 178.404 111.828 176.427 113.805C174.405 115.782 171.776 117.534 169.192 118.613C166.316 119.781 166.541 120.028 167.282 116.456C168.451 110.996 170.383 104.301 170.945 103.829C171.102 103.694 173.843 102.953 177.056 102.144C180.246 101.358 182.898 100.706 182.943 100.684C182.965 100.661 182.785 101.088 182.516 101.605Z" fill="#374151"/>
<path d="M173.371 46.1317C172.72 46.8058 172.742 47.5247 173.438 48.1988C173.955 48.738 174.09 48.7605 177.191 48.7605C180.089 48.7605 180.516 48.8279 181.527 49.2997C183.369 50.1535 184.47 51.6588 185.009 54.0629C185.324 55.411 185.773 55.9502 186.627 55.9502C188.694 55.9502 188.672 52.6924 186.582 49.4345C185.751 48.1314 183.953 46.8732 181.909 46.1317C180.673 45.6824 180.066 45.615 177.168 45.615C174 45.615 173.843 45.6374 173.371 46.1317Z" fill="#374151"/>
<path d="M138.636 65.1617C137.827 65.4088 137.602 65.7234 137.602 66.667C137.602 67.7006 138.276 68.0825 140.006 68.0825C141.13 68.0825 141.512 67.9926 141.871 67.6332C142.321 67.1838 142.455 66.1728 142.141 65.656C141.736 65.0494 139.916 64.7797 138.636 65.1617Z" fill="#374151"/>
<path d="M146.365 65.2291C145.668 65.4762 145.578 65.6111 145.511 66.3525C145.466 66.9367 145.556 67.3635 145.825 67.6556C146.185 68.0601 146.724 68.0825 159.643 68.0825C171.551 68.0825 173.101 68.0376 173.416 67.723C174.27 66.8917 174.023 65.5661 172.967 65.1617C172.09 64.8247 147.353 64.8921 146.365 65.2291Z" fill="#374151"/>
<path d="M138.613 75.6091C138.254 75.9461 138.052 76.4179 138.052 76.8448C138.052 78.1929 138.142 78.2153 152.184 78.1479C164.159 78.0805 164.766 78.0581 165.215 77.6536C165.844 77.0695 165.799 76.4404 165.08 75.6765L164.474 75.0474H151.824H139.153L138.613 75.6091Z" fill="#374151"/>
<path d="M138.434 85.5627C137.872 86.1693 137.94 87.3152 138.546 87.7196C138.996 88.0342 140.344 88.0791 148.881 88.0791C158.43 88.0791 158.745 88.0566 159.172 87.6297C159.733 87.068 159.756 86.0121 159.217 85.5402C158.835 85.2032 157.779 85.1583 148.792 85.1583C139.4 85.1583 138.771 85.1807 138.434 85.5627Z" fill="#374151"/>
<path d="M138.546 95.4036C138.209 95.6283 138.052 95.9653 138.052 96.4596C138.052 97.3808 138.254 97.6504 139.018 97.9425C139.849 98.257 154.858 98.2795 155.666 97.965C156.857 97.5156 157.015 95.808 155.914 95.3138C155.509 95.1115 152.925 95.0441 147.196 95.0441C140.186 95.0441 138.973 95.0891 138.546 95.4036Z" fill="#374151"/>
<path d="M138.411 105.514C137.917 105.986 137.962 106.773 138.523 107.492L138.973 108.076H147.398C155.509 108.076 155.824 108.053 156.251 107.626C156.79 107.087 156.835 106.346 156.34 105.649L156.003 105.155H147.376C139.849 105.155 138.703 105.2 138.411 105.514Z" fill="#374151"/>
<path d="M138.636 115.602C137.917 116.276 137.894 116.837 138.613 117.601L139.152 118.186H147.376H155.599L156.138 117.624C156.88 116.905 156.857 116.096 156.116 115.512C155.532 115.063 155.262 115.04 147.376 115.04H139.242L138.636 115.602Z" fill="#374151"/>
</g>
</svg>
