<svg width="26" height="26" viewBox="0 0 26 26" fill="none" xmlns="http://www.w3.org/2000/svg">
<path d="M2.33562 0.575109C1.87471 0.732635 1.49548 1.00685 1.2096 1.39775C0.865376 1.86449 0.795364 2.18538 0.795364 3.3464V4.36157L0.958725 4.5016L1.12209 4.64162H2.87238H4.61683V14.1399C4.61683 24.6124 4.5935 23.9357 4.9844 24.5133C5.21193 24.8575 5.62617 25.1784 6.03457 25.3301C6.33212 25.4351 6.55966 25.4409 14.331 25.4409H22.324L22.6565 25.2834C23.0999 25.0792 23.52 24.6766 23.7183 24.2682C23.905 23.8832 24.0101 23.078 23.9751 22.2437C23.9517 21.5319 23.9167 21.5028 23.0007 21.5028C22.1431 21.5028 22.0322 21.5494 22.0322 21.9112C22.0322 22.2437 22.1606 22.3196 22.7557 22.3196H23.1816L23.1583 22.973C23.1349 23.7081 23.0474 23.9473 22.6915 24.2857C22.2831 24.6766 22.7615 24.6533 15.3228 24.6533H8.57833L8.70085 24.4841C8.95172 24.1224 9.0159 23.889 9.04507 23.1072L9.08008 22.3487L15.0369 22.3196C19.9669 22.2962 21.0112 22.2787 21.0871 22.2087C21.2154 22.1037 21.2154 21.7186 21.0929 21.6136C21.0404 21.5728 20.8479 21.5261 20.6553 21.5144L20.3111 21.4911V19.3441C20.3111 17.2729 20.3053 17.2029 20.1944 17.0979C20.0544 16.9753 19.7744 16.9578 19.646 17.0687C19.5643 17.1329 19.5527 17.4187 19.5527 19.3207V21.5028H17.0381H14.5177L14.5585 21.0477C14.5818 20.8026 14.6227 20.5751 14.6518 20.5518C14.6752 20.5226 14.9261 20.4234 15.2119 20.3301C16.5538 19.875 17.8549 18.9473 18.4441 18.0255C18.6425 17.7105 18.6717 17.4304 18.5317 17.162C18.4441 17.0045 18.45 16.987 18.66 16.6953C18.7767 16.5319 19.0159 16.2052 19.1851 15.966C19.6285 15.3592 19.8444 14.9508 20.2469 13.959C20.6203 13.0605 20.6612 12.8563 20.5153 12.693C20.4336 12.5996 20.457 12.5646 20.8012 12.2612C21.5363 11.6194 22.5282 10.3242 22.5282 10.0092C22.5282 9.7233 22.2189 9.57161 21.9447 9.71747C21.8805 9.75247 21.7172 9.93917 21.5713 10.1434C21.1221 10.7735 21.2621 10.7326 19.6343 10.756C18.7942 10.7735 18.1816 10.7618 18.1466 10.7268C18.0532 10.6335 19.2784 8.87149 19.9202 8.18304L20.1244 7.96717H21.5013H22.884L22.7907 8.1422C22.6215 8.46892 22.7032 8.80148 22.9716 8.86566C23.2166 8.92983 23.38 8.76647 23.6658 8.20055C23.9517 7.62878 23.9867 7.41292 23.8175 7.19705L23.7008 7.05119L23.8759 6.79448C24.4068 6.01268 24.9027 4.7058 25.0952 3.56811C25.2411 2.71046 25.2411 2.57044 25.0952 2.42458C24.9552 2.28456 24.7569 2.27873 24.0917 2.39541C23.0941 2.57044 22.1022 2.98468 21.0871 3.66146C20.5795 4.00568 20.4628 4.05819 20.2353 4.05819C20.0136 4.05819 19.9144 4.09903 19.5993 4.3324C18.6658 5.01502 17.1781 6.7303 16.3029 8.11303C15.667 9.12237 14.7569 10.9427 14.4185 11.882C14.3485 12.0862 14.331 12.092 14.1268 12.0687C13.8234 12.0278 13.7067 12.1095 13.5025 12.5004C12.5748 14.2566 12.569 16.7128 13.4908 19.4257C13.8059 20.3651 13.7942 20.2776 13.6833 21.2227L13.6483 21.5028H11.1104C8.59 21.5028 8.4033 21.5144 8.28078 21.7011C8.25744 21.7361 8.2341 22.1329 8.2341 22.5879C8.2341 23.5506 8.15242 23.8948 7.86071 24.1982C7.13725 24.9392 5.95289 24.7583 5.52699 23.8365C5.40447 23.5739 5.40447 23.5623 5.37529 12.868L5.34612 2.16204L5.14192 1.75364C5.03107 1.5261 4.93189 1.32773 4.92022 1.29856C4.90855 1.27523 7.23644 1.25772 10.1011 1.25772H15.2994L15.4395 1.11187C15.6203 0.936836 15.6262 0.732635 15.4511 0.569274L15.3169 0.440919H9.0159L2.72069 0.446754L2.33562 0.575109ZM3.68335 1.38024C4.0334 1.53777 4.25511 1.75364 4.41847 2.1037C4.54099 2.36041 4.55849 2.47709 4.55849 3.1422V3.88316L3.08825 3.87149L1.61217 3.85399V3.1247C1.61217 2.26122 1.67634 2.03369 2.02057 1.69529C2.44064 1.26939 3.14659 1.1352 3.68335 1.38024ZM23.4616 3.52143C22.6507 4.19238 21.5363 5.18421 20.9412 5.76181L20.2644 6.42108L20.2294 6.21688C20.2119 6.10603 20.1944 5.77347 20.1944 5.48759V4.95667L20.4161 4.98001C20.6087 4.99751 20.6962 4.95084 21.1863 4.58911C21.7697 4.15737 22.6098 3.69063 23.2341 3.45142C23.7359 3.25889 23.7709 3.26472 23.4616 3.52143ZM24.0217 4.5366C23.7534 5.48759 23.5083 5.97184 23.0474 6.49109C22.8899 6.66029 22.744 6.88199 22.7207 6.97534L22.6915 7.15037H21.758H20.8245L20.9996 6.92867C21.2213 6.65445 22.359 5.54594 22.9366 5.04419C23.3391 4.68829 24.1151 4.05819 24.1443 4.05819C24.1501 4.05819 24.0917 4.27406 24.0217 4.5366ZM19.3951 6.52027L19.436 7.40708L19.2493 7.67546C18.2283 9.12237 17.534 10.05 17.499 10.0208C17.4465 9.96251 17.1022 8.62062 17.1022 8.46892C17.1022 8.30556 18.0591 7.00451 18.7359 6.24605C19.0392 5.90766 19.3018 5.63345 19.3193 5.63345C19.3426 5.63345 19.3776 6.03018 19.3951 6.52027ZM16.8455 10.8843C16.8747 11.1177 16.8397 11.2169 16.5713 11.7595C16.408 12.0979 16.0929 12.7455 15.877 13.2005L15.4861 14.0232L15.2469 13.3289L15.0019 12.6288L15.7429 11.0185L16.4838 9.41408L16.6472 10.015C16.7405 10.3476 16.828 10.7385 16.8455 10.8843ZM20.3695 11.5494C20.3695 11.5611 20.1594 11.7361 19.8969 11.9403C19.6402 12.1387 19.401 12.3546 19.3718 12.4071C19.2726 12.5938 19.3193 12.7863 19.4943 12.9555C19.6985 13.1539 19.7102 13.2939 19.5527 13.5564C19.3951 13.8131 19.2376 13.8715 17.9191 14.1807C17.2948 14.3266 16.6355 14.4841 16.4605 14.5308C16.2854 14.5774 16.1396 14.6066 16.1279 14.6008C16.1046 14.5716 17.394 11.847 17.5106 11.6895L17.6332 11.5261H18.9984C19.751 11.5261 20.3695 11.5378 20.3695 11.5494ZM14.646 14.0582C14.8444 14.6008 15.0019 15.1142 15.0019 15.1959C15.0019 15.3884 14.1209 18.4689 14.0626 18.4689C13.9984 18.4689 13.7359 17.2846 13.6542 16.6428C13.5725 15.9427 13.6133 14.8108 13.7475 14.1807C13.8525 13.6731 14.1676 12.9438 14.2434 13.0197C14.2726 13.0489 14.4535 13.5156 14.646 14.0582ZM18.8467 14.98C18.6192 15.4351 18.2341 15.9835 17.9015 16.3452C17.5457 16.7303 17.4931 16.9053 17.6565 17.1854C17.8315 17.4946 17.779 17.6346 17.2656 18.148C16.7405 18.6615 16.0579 19.1165 15.387 19.3966C14.6402 19.7 14.6985 19.7641 14.891 18.8365C15.1944 17.4187 15.6962 15.6801 15.842 15.5576C15.8829 15.5226 16.5947 15.3301 17.429 15.12C18.2574 14.9158 18.9459 14.7466 18.9576 14.7408C18.9634 14.735 18.9167 14.8458 18.8467 14.98Z" fill="white"/>
<path d="M16.4721 0.57492C16.303 0.749949 16.3088 0.936647 16.4896 1.11168C16.6238 1.2517 16.6588 1.25753 17.464 1.25753C18.2166 1.25753 18.3275 1.27504 18.59 1.39756C19.0684 1.61926 19.3543 2.01016 19.4943 2.63443C19.576 2.98449 19.6927 3.12451 19.9144 3.12451C20.4511 3.12451 20.4453 2.27854 19.9027 1.43256C19.6868 1.09417 19.2201 0.767452 18.6892 0.57492C18.3683 0.458234 18.2108 0.440731 17.4581 0.440731C16.6355 0.440731 16.5947 0.446566 16.4721 0.57492Z" fill="white"/>
<path d="M7.45231 5.51693C7.24227 5.58111 7.18393 5.66279 7.18393 5.90783C7.18393 6.17621 7.35896 6.27539 7.8082 6.27539C8.09992 6.27539 8.1991 6.25205 8.29245 6.1587C8.40913 6.04202 8.44414 5.77947 8.36246 5.64529C8.25744 5.48776 7.78486 5.41775 7.45231 5.51693Z" fill="white"/>
<path d="M9.45931 5.53443C9.27845 5.59861 9.25511 5.63362 9.23761 5.82615C9.22594 5.97784 9.24928 6.08869 9.31929 6.16454C9.41264 6.26956 9.55266 6.27539 12.9074 6.27539C15.9996 6.27539 16.4021 6.26372 16.4838 6.18204C16.7055 5.96617 16.6413 5.62195 16.3671 5.51693C16.1396 5.42942 9.71602 5.44692 9.45931 5.53443Z" fill="white"/>
<path d="M7.44647 8.22993C7.35312 8.31744 7.30061 8.43996 7.30061 8.55081C7.30061 8.90087 7.32395 8.90671 10.9704 8.8892C14.0801 8.8717 14.2376 8.86587 14.3543 8.76085C14.5176 8.60916 14.506 8.4458 14.3193 8.24743L14.1618 8.08407H10.877H7.58649L7.44647 8.22993Z" fill="white"/>
<path d="M7.3998 10.8143C7.25394 10.9719 7.27144 11.2694 7.42897 11.3744C7.54565 11.4561 7.89571 11.4678 10.1127 11.4678C12.5923 11.4678 12.674 11.4619 12.7849 11.3511C12.9307 11.2052 12.9366 10.931 12.7965 10.8085C12.6973 10.721 12.4231 10.7093 10.0894 10.7093C7.65067 10.7093 7.48731 10.7151 7.3998 10.8143Z" fill="white"/>
<path d="M7.42897 13.3697C7.34145 13.4281 7.30061 13.5156 7.30061 13.6439C7.30061 13.8831 7.35312 13.9532 7.55149 14.029C7.76736 14.1107 11.6647 14.1165 11.8747 14.0348C12.1839 13.9182 12.2248 13.4747 11.9389 13.3464C11.8339 13.2939 11.1629 13.2764 9.67518 13.2764C7.85487 13.2764 7.53982 13.288 7.42897 13.3697Z" fill="white"/>
<path d="M7.39397 15.995C7.26561 16.1176 7.27728 16.3218 7.42314 16.5085L7.53982 16.6602H9.72769C11.8339 16.6602 11.9156 16.6543 12.0264 16.5435C12.1664 16.4034 12.1781 16.2109 12.0497 16.0301L11.9622 15.9017H9.72185C7.76736 15.9017 7.46981 15.9134 7.39397 15.995Z" fill="white"/>
<path d="M7.45231 18.6147C7.26561 18.7897 7.25978 18.9356 7.44647 19.134L7.5865 19.2856H9.72185H11.8572L11.9972 19.1398C12.1898 18.9531 12.1839 18.7431 11.9914 18.5914C11.8397 18.4747 11.7697 18.4688 9.72185 18.4688H7.60983L7.45231 18.6147Z" fill="white"/>
</svg>
