<svg width="529" height="165" viewBox="0 0 529 165" fill="none" xmlns="http://www.w3.org/2000/svg">
<path d="M25.173 90.7733C25.173 71.4533 25.063 52.1233 25.253 32.7733C25.253 28.6033 23.983 27.1533 19.813 27.4133C14.813 27.7333 9.81299 27.4133 4.81299 27.4933C1.44299 27.5433 -0.0770039 25.9333 0.00299611 22.6233C0.0529961 20.2933 0.0029839 17.9633 0.0529839 15.6233C0.402984 6.33331 6.523 0.103333 15.883 0.0533333C41.213 -0.0666667 66.533 0.0533333 91.883 0.0533333C94.163 0.0533333 96.973 0.343321 96.943 2.85332C96.943 5.60332 93.943 5.30333 91.793 5.30333C72.133 5.30333 52.473 5.37332 32.793 5.22332C28.923 5.22332 27.103 5.8533 29.063 10.0233C30.523 13.1533 30.143 16.5633 30.143 19.8733C30.143 62.0133 30.123 104.157 30.083 146.303C30.083 150.163 30.393 153.813 33.663 156.643C34.8581 157.803 36.3714 158.58 38.01 158.875C39.6486 159.171 41.3381 158.972 42.863 158.303C44.4372 157.762 45.8245 156.783 46.8623 155.481C47.9002 154.179 48.5456 152.609 48.723 150.953C48.8484 149.794 48.8985 148.629 48.873 147.463C49.013 138.553 49.013 138.553 57.723 138.533C65.223 138.533 72.723 138.443 80.213 138.533C83.283 138.533 84.633 137.533 84.943 134.253C85.353 130.083 84.003 126.433 82.803 122.643C78.253 108.213 76.133 93.8033 83.473 79.5633C83.923 78.6833 84.303 77.1933 84.943 77.0633C92.553 75.4533 91.943 68.0633 94.613 63.1533C102.103 49.2633 109.663 34.9433 123.173 26.5333C132.773 20.5333 142.603 13.3933 154.883 12.7633C159.883 12.5033 160.883 13.4933 159.943 18.3733C158.333 26.3733 156.373 34.2433 151.763 41.1233C150.763 42.5733 150.913 43.6933 151.353 45.2733C152.353 48.8833 149.733 51.3933 148.043 54.1133C147.757 54.5381 147.322 54.8404 146.824 54.9607C146.326 55.081 145.802 55.0106 145.353 54.7633C144.403 54.2933 143.603 53.4833 144.033 52.3733C145.353 48.9633 142.933 49.7233 141.033 49.2833C127.673 46.2233 121.033 54.4233 115.333 64.2833C113.993 66.5933 114.493 67.7233 117.173 67.7333C121.673 67.7333 126.173 67.8033 130.673 67.7333C133.973 67.6833 135.243 64.9333 137.103 62.8233C138.103 61.7233 139.293 59.1333 141.423 61.0133C141.754 61.3468 142.013 61.745 142.183 62.1831C142.353 62.6212 142.43 63.0897 142.41 63.5592C142.391 64.0287 142.274 64.489 142.068 64.9113C141.862 65.3337 141.571 65.7088 141.213 66.0133C132.043 74.0133 128.783 85.2833 124.323 95.9233C123.453 98.0233 121.773 99.7833 120.543 101.753C118.543 105.033 115.363 107.883 116.753 112.473C117.303 114.273 115.693 115.533 114.753 116.803C109.383 123.713 102.063 127.943 93.993 130.713C91.173 131.713 90.043 133.123 90.223 135.603C90.473 138.933 93.343 137.903 95.223 137.923C103.223 138.043 111.223 137.923 119.223 138.033C122.033 138.033 122.993 137.083 122.933 134.263C122.763 127.103 122.883 119.933 122.873 112.773C122.873 110.863 122.873 108.953 125.533 108.923C128.483 108.923 127.903 111.143 127.913 112.833C127.973 119.663 128.033 126.493 127.913 133.323C127.913 136.113 128.153 138.323 131.513 138.693C132.683 138.823 133.813 139.103 133.823 140.693C133.823 142.513 132.413 142.903 131.193 143.153C129.709 143.355 128.208 143.412 126.713 143.323C104.383 143.323 82.063 143.393 59.713 143.263C55.793 143.263 53.713 144.123 54.103 148.503C54.283 150.783 54.333 153.503 53.263 155.353C50.833 159.463 53.523 158.973 55.943 158.973C82.773 158.973 109.593 158.973 136.423 158.973C143.083 158.973 146.473 155.403 146.843 148.853C147.033 145.513 146.843 142.853 142.313 143.213C140.993 143.323 139.183 142.633 139.313 140.613C139.423 138.823 141.013 138.823 142.313 138.613C150.993 137.123 152.493 138.613 152.443 147.393C152.393 156.173 146.603 164.393 135.243 164.293C104.263 163.893 73.263 163.893 42.243 164.293C31.113 164.443 24.733 156.743 24.993 147.213C25.523 128.433 25.163 109.593 25.173 90.7733ZM117.873 96.5333C118.093 94.4333 116.703 94.7333 115.623 94.9633C110.29 96.1033 104.98 97.3 99.693 98.5533C99.2157 98.7059 98.7884 98.9843 98.4558 99.3591C98.1232 99.7339 97.8977 100.191 97.803 100.683C95.573 107.923 93.503 115.203 91.973 122.683C91.323 125.833 92.923 125.863 94.893 124.993C100.623 122.473 106.013 119.413 110.103 114.463V114.463C112.236 111.862 111.758 108.086 112.908 104.924C113.182 104.17 113.538 103.484 114 103C116.079 100.919 116.75 99.2517 117.873 96.5333ZM14.983 22.7833H21.983C23.413 22.7833 24.523 22.4333 25.083 20.8833C26.823 16.0333 23.993 8.57332 19.393 6.22332C15.333 4.15332 11.633 5.30333 8.31299 7.89333C5.74299 9.89333 3.79299 18.1633 5.31299 20.8933C7.23299 24.2933 10.723 22.2533 13.483 22.7733C13.9814 22.8266 14.4839 22.83 14.983 22.7833ZM100.283 93.3533C107.863 91.3533 114.393 89.7933 120.793 87.8433C123.032 87.1601 123.758 84.32 123.945 83.3368C123.987 83.112 124.019 82.8871 124.056 82.6614L124.213 81.7225C124.721 78.6757 126.676 75.9251 127.153 72.8733V72.8733C122.273 72.8733 117.623 72.8733 112.973 72.8733C111.473 72.8733 109.793 72.8733 109.033 74.4333C106.233 80.3333 103.553 86.2733 100.283 93.3533ZM87.283 117.273C90.153 106.973 96.513 96.9933 89.833 85.9433C89.273 85.0233 89.573 83.4633 87.943 83.5133C86.593 83.5133 86.753 84.8533 86.403 85.7233C82.273 96.3233 83.543 106.803 87.323 117.273H87.283ZM122.363 41.4733C122.434 40.5847 122.434 39.6919 122.363 38.8033C122.153 37.6033 122.983 35.9233 121.233 35.3533C119.483 34.7833 119.033 36.6833 118.303 37.5033C115.023 41.1833 112.183 45.2433 108.893 48.9233C105.023 53.2533 108.473 57.3833 109.123 61.4933C109.353 62.9233 110.973 62.0433 111.853 60.7533C114.083 57.4733 116.643 54.4233 118.853 51.1233C120.803 48.1633 123.783 45.4933 122.403 41.4733H122.363ZM97.123 89.1633C99.483 78.7933 110.063 71.5933 102.853 60.1633C99.293 65.1133 97.763 70.8933 94.953 76.0133C92.593 80.3133 94.243 84.0033 97.123 89.1633ZM137.813 44.4033C139.873 44.0133 142.463 45.1733 143.913 43.1033C147.093 38.5833 151.103 34.4133 151.613 28.5033C151.683 27.7533 153.333 26.7733 151.703 26.2133C151.233 26.0819 150.739 26.055 150.257 26.1345C149.775 26.214 149.316 26.3979 148.913 26.6733C144.453 30.7433 140.083 34.9233 135.763 39.1533C134.523 40.3733 132.163 41.4933 132.863 43.3633C133.633 45.3933 136.143 43.8133 137.813 44.3833V44.4033ZM127.873 39.1633L147.113 21.3733C140.993 21.7533 137.003 26.0433 132.113 28.0233C126.373 30.3333 127.343 33.8933 127.873 39.1633Z" fill="#484848"/>
<path d="M345.15 47.72C349.75 39.44 355.7 36.53 365.03 38.16C366.933 38.4414 368.708 39.2906 370.121 40.5966C371.534 41.9026 372.52 43.6046 372.95 45.48C375.39 54.48 374.52 63.67 374.33 72.8C374.33 75.11 373.07 77.11 370.33 77.1C367.59 77.09 366.66 74.96 366.58 72.67C366.37 66.51 366.58 60.34 366.19 54.2C365.8 47.2 362.42 44.36 356.85 45.84C353.39 46.77 351.85 49.56 350.95 52.64C349.532 57.437 348.834 62.418 348.88 67.42C348.943 69.0899 348.869 70.7621 348.66 72.42C348.32 74.79 347.72 77.32 344.77 77.42C341.82 77.52 340.94 75 340.71 72.66C340.27 68.19 340.03 63.66 339.95 59.21C339.809 56.0432 338.991 52.9435 337.55 50.12C336.01 46.86 333.35 44.94 329.55 45.36C325.75 45.78 324.39 48.36 323.67 51.77C322.72 56.23 323.07 60.77 323.03 65.21C323.03 68.03 322.94 70.87 322.78 73.69C322.64 75.9 321.15 76.93 319.11 76.98C318.687 77.0214 318.26 76.9751 317.856 76.8441C317.452 76.7131 317.079 76.5002 316.761 76.2187C316.443 75.9372 316.186 75.593 316.007 75.2079C315.828 74.8227 315.73 74.4047 315.72 73.98C314.87 64.36 313.94 54.64 316.72 45.27C318.12 40.57 321.94 37.91 327.35 37.73C333.74 37.52 339.27 38.73 342.75 44.6C343.45 45.62 343.74 46.76 345.15 47.72Z" fill="#FA7166"/>
<path d="M218.88 136.9C214.086 139.691 208.415 140.567 203.002 139.354C197.59 138.142 192.835 134.929 189.69 130.36C183.82 121.74 184.26 102.17 190.69 94.36C198.21 85.25 211.55 81.81 221.95 87.18C224.55 88.53 226.31 90.66 225.07 93.67C223.98 96.28 221.46 95.38 219.43 94.98C216.7 94.46 214.29 92.98 211.34 92.79C204.43 92.47 199.69 95.33 196.56 101.43C192.41 109.5 192.9 117.43 197.1 125.2C200.51 131.5 210.1 133.96 216.28 130.32C218.87 128.79 220.77 119.14 218.66 117.32C217.93 116.68 216.51 116.68 215.4 116.67C213.402 116.738 211.421 116.276 209.66 115.33C207.24 113.93 207.38 111.33 208.87 110.39C213.48 107.39 218.87 108.75 223.87 109.39C227.29 109.8 227.13 113.39 227.12 116.32C227.12 122.97 227.18 129.63 227.07 136.32C227.07 138.63 227.95 141.6 224.18 142.18C220.41 142.76 219.04 140.6 218.88 136.9Z" fill="#454545"/>
<path d="M186.54 49.53C186.66 44.53 186.06 39.53 187.08 34.6C188.25 28.93 191.3 25.12 197.08 23.46C203.059 21.7769 209.423 22.0858 215.21 24.34C221.43 26.63 224.93 33.62 224.46 41.53C223.96 49.82 219.95 55.07 212.91 57.16C208.65 58.5989 204.146 59.18 199.66 58.87C195.52 58.45 194.38 60.25 194.66 64.01C194.875 66.6736 194.848 69.3512 194.58 72.01C194.34 74.36 194.58 77.53 191.06 77.63C187.29 77.73 187.2 74.72 187.06 71.99C186.86 68.17 186.62 64.35 186.53 60.53C186.47 56.85 186.54 53.19 186.54 49.53ZM194.75 43.24C195.75 45.24 192.84 49.77 196.32 50.6C201.1 51.75 206.57 52.3 211.32 49.6C216.07 46.9 217.73 40.86 215.71 35.67C214.06 31.45 207.35 28.97 200.96 30.22C196.63 31.07 194.86 33.89 194.77 40.1C194.74 40.9 194.75 41.73 194.75 43.24Z" fill="#FA7166"/>
<path d="M423.12 120C423.12 125 423.12 130 423.12 135C423.12 136.63 423.12 138.57 421.12 139.13C419.37 139.62 417.61 139.82 416.69 137.39C415.77 134.96 414.35 136.51 413.12 137.24C401.6 144.1 389.35 138.9 386.48 125.87C384.19 115.46 388.48 102.94 398.14 100.32C403.39 98.89 408.26 99.07 412.75 102.32C414.18 103.32 415.48 104.5 416.65 102.11C417.56 100.25 419.04 100.11 420.81 100.6C422.81 101.2 423.14 102.84 423.16 104.6C423.21 109.73 423.12 114.89 423.12 120ZM415.62 120C415.62 111.87 411.16 107 403.89 107.08C397.39 107.17 393.61 112.08 393.72 120.24C393.84 128.24 397.72 132.8 404.54 132.88C411.5 133 415.64 128.22 415.62 120.08V120Z" fill="#454545"/>
<path d="M336.56 125.31C334.08 125.08 331.56 124.81 329.12 124.65C328.12 124.58 326.79 123.34 326.12 125.02C325.67 126.21 326.55 127.21 327.32 128.1C331.05 132.4 336.03 132.27 341.03 131.86C343.51 131.66 345.95 131.08 348.42 130.81C349.92 130.65 351.5 130.74 352.08 132.59C352.61 134.25 351.77 135.54 350.66 136.59C347.77 139.27 344.01 139.43 340.41 139.68C332.15 140.26 324.35 139.14 319.58 131.25C315.29 124.17 315.31 116.62 319.16 109.47C323.16 102.1 330.08 99.77 338.07 100.26C340.394 100.345 342.687 100.825 344.85 101.68C350.85 104.29 354.12 110.26 353.06 116.06C352.06 121.49 347.7 124.64 340.52 125.06C339.2 125.14 337.87 125.06 336.52 125.06L336.56 125.31ZM335.96 119.13C337.17 119 338.17 118.94 339.15 118.77C341.95 118.29 344.99 118.05 345.15 114.14C345.28 110.49 342.94 108.66 339.92 107.74C337.997 107.177 335.967 107.089 334.002 107.483C332.038 107.876 330.198 108.74 328.64 110C326.71 111.4 325.12 113.47 325.75 116C326.33 118.3 328.84 118.1 330.75 118.46C332.66 118.82 334.35 118.91 335.96 119.13Z" fill="#454545"/>
<path d="M252.84 125.29C250.57 125.09 247.91 124.85 245.26 124.64C244.37 124.57 243.26 123.79 242.71 125.11C242.571 125.59 242.568 126.099 242.7 126.581C242.832 127.063 243.095 127.498 243.46 127.84C247.24 132.5 252.46 132.24 257.61 131.84C260.09 131.64 262.53 131.05 265.01 130.84C266.31 130.71 267.73 130.78 268.29 132.43C268.531 133.137 268.547 133.901 268.336 134.618C268.125 135.334 267.696 135.967 267.11 136.43C264.11 139.31 260.11 139.43 256.37 139.74C245.46 140.81 237.7 136.58 234.12 127.84C231.12 120.44 233.38 109.74 239.04 104.79C245.04 99.56 256.04 98.6 262.85 102.72C268.26 105.99 270.44 111 269.11 117.09C268.16 121.43 263.77 124.51 257.71 125.04C256.21 125.16 254.72 125.19 252.84 125.29ZM252.41 119.17C253.64 119 254.8 118.9 255.94 118.69C258.41 118.22 261.02 117.88 261.29 114.55C261.56 111.22 259.94 109.24 257.01 108.07C252.56 106.3 248.4 107.48 244.79 110.01C243.02 111.25 241.08 113.63 241.61 115.86C242.14 118.09 244.97 118.04 247.04 118.4C248.84 118.72 250.65 118.92 252.41 119.17Z" fill="#454545"/>
<path d="M281.08 61.87C281.77 67.28 285.08 69.28 289.23 69.87C293.38 70.46 297.85 70.6 301.99 68.78C303.86 67.95 305.76 68.04 306.76 70.01C307.003 70.4566 307.154 70.9475 307.203 71.4536C307.253 71.9596 307.2 72.4705 307.048 72.9557C306.896 73.4408 306.648 73.8905 306.318 74.2778C305.989 74.6651 305.585 74.9821 305.13 75.21C298.45 79.21 281.7 80.21 275.2 70.21C270.01 62.28 269.85 48.21 279.96 41.29C286.85 36.59 297.96 37.11 304.11 42.53C305.86 43.9341 307.167 45.8128 307.877 47.9411C308.586 50.0693 308.667 52.3569 308.11 54.53C307.02 59.3 303.72 61.53 299.11 62.59C293.11 64 287.21 63 281.08 61.87ZM290.67 57C291.82 57 292.98 57 294.14 57C297.5 56.89 300.22 55.65 300.14 51.9C300.06 48.15 297.86 46.09 294.14 45.9C291.835 45.6594 289.507 45.7571 287.23 46.19C283.65 47.1 280.53 49.78 280.61 53.28C280.69 56.95 284.83 56.54 287.66 56.93C288.66 57.0249 289.666 57.0483 290.67 57Z" fill="#FA7166"/>
<path d="M498.7 119.67C498.61 131.95 490.58 140.19 478.7 140.19C466.82 140.19 459.21 132 459.37 119.77C459.5 108.19 467.93 100.14 479.84 100.24C491.75 100.34 498.79 107.71 498.7 119.67ZM490.7 119.9C490.7 112.44 486.13 107.44 479.39 107.51C472.65 107.58 467.84 112.85 467.7 120.36C467.56 127.87 471.91 132.79 478.79 132.88C485.95 133 490.73 127.78 490.72 119.9H490.7Z" fill="#454545"/>
<path d="M227.94 58.49C227.94 46.43 236.12 38.22 248.18 38.21C259.45 38.21 266.92 45.87 266.89 57.4C266.89 70.08 258.63 78.74 246.77 78.59C235.79 78.44 227.95 70.07 227.94 58.49ZM236.14 58.87C236.2 66.48 240.43 71.03 247.47 71.04C254.51 71.05 259.16 65.74 258.96 57.81C258.78 50.32 254.69 45.93 247.96 45.98C240.64 46 236.08 51 236.14 58.87Z" fill="#FA7166"/>
<path d="M277.05 120.23C277.05 114.92 277.05 109.6 277.05 104.23C276.972 103.397 277.145 102.56 277.546 101.826C277.947 101.092 278.557 100.495 279.3 100.11C281.15 99.19 282.63 100.11 283.62 101.53C285.14 103.69 286.24 102.83 288.08 101.75C299.23 95.2 309.31 100.61 310.08 113.58C310.46 120.38 310.28 127.21 310.26 134.03C310.26 136.7 309.7 139.2 306.2 139.03C302.7 138.86 302.55 136.33 302.48 133.7C302.33 127.55 302.35 121.38 301.88 115.25C301.63 112.02 300.98 108.49 297.24 107.15C293.09 105.67 289.38 107.53 285.89 109.41C284.27 110.29 284.89 112.41 284.8 114.02C284.6 120.84 284.55 127.66 284.19 134.46C284.07 136.65 283.94 139.3 280.41 139.13C276.88 138.96 277.12 136.44 277.08 134.13C277.01 129.47 277.08 124.81 277.08 120.13L277.05 120.23Z" fill="#454545"/>
<path d="M456.45 102.92C456.55 107.24 454.01 107.73 451.7 107.6C447.46 107.36 446.42 109.13 446.57 113.14C446.81 119.95 446.57 126.78 446.24 133.6C446.12 136.02 446.38 139.44 442.29 139.17C438.7 138.93 438.93 136.04 438.9 133.56C438.8 126.56 438.63 119.56 438.81 112.56C438.89 109.19 437.91 107.64 434.36 107.75C431.82 107.83 429.02 107.51 429.11 103.95C429.19 100.72 431.81 100.39 434.11 100.51C437.93 100.69 439.24 98.98 438.75 95.41C438.71 94.9141 438.71 94.4159 438.75 93.92C438.85 91.41 438.68 88.36 442.02 88.12C445.62 87.87 446.39 91.33 446.31 93.71C446.16 98.36 447.31 100.71 452.45 100.42C454.29 100.34 456.78 100.88 456.45 102.92Z" fill="#454545"/>
<path d="M360.38 119.4C360.38 114.58 360.26 109.76 360.43 104.95C360.51 102.67 360.81 100.02 363.56 99.35C366.31 98.68 367.65 100.16 368.35 102.98C368.9 105.22 370.43 103.53 371.25 102.83C373.207 101.032 375.688 99.9076 378.33 99.62C380.63 99.4 382.76 100.1 383.61 102.37C384.46 104.64 383.18 106.51 381.01 107.6C380.153 108.091 379.244 108.487 378.3 108.78C369.05 111 369.13 111 369.01 120C368.94 125.15 368.51 130.29 368.28 135.43C368.18 137.66 367.49 139.31 364.96 139.58C362.15 139.88 360.79 138.03 360.68 135.81C360.41 130.35 360.59 124.87 360.59 119.39L360.38 119.4Z" fill="#484848"/>
<path d="M504.95 119.42C505.21 114.12 504.51 108.76 505.62 103.5C506.04 101.56 506.52 99.42 509.07 99.21C511.4 99.01 512.64 100.12 513.2 102.53C513.84 105.26 515.32 103.69 516.41 102.73C518.361 100.897 520.881 99.7892 523.55 99.59C525.88 99.45 527.89 100.13 528.55 102.59C529.19 104.88 527.89 106.31 526.12 107.59C524.53 108.71 522.73 108.79 520.93 109.08C515.93 109.9 513.93 112.37 513.85 117.41C513.73 123.41 513.44 129.41 513.2 135.35C513.11 137.48 512.59 139.35 509.98 139.56C507.37 139.77 506.07 138.25 505.62 135.84C504.65 130.41 505.21 124.9 504.95 119.42Z" fill="#484848"/>
<path d="M66.49 55.43C60.32 55.43 54.16 55.43 47.99 55.43C45.99 55.43 43.47 55.17 43.39 52.81C43.31 50.45 46.0101 49.81 47.8701 49.81C60.3701 49.67 72.8667 49.67 85.36 49.81C87.17 49.81 89.9301 50.36 89.7201 52.88C89.5201 55.23 87.01 55.4 84.98 55.41C78.82 55.4433 72.6567 55.45 66.49 55.43Z" fill="#FA7166"/>
<path d="M61.21 72.63C56.57 72.63 51.93 72.63 47.29 72.63C45.36 72.63 43.42 72.11 43.29 69.83C43.16 67.55 45.29 66.83 47.07 66.83C56.51 66.71 65.95 66.71 75.39 66.83C77.15 66.83 79.39 67.24 79.34 69.67C79.34 72.3 77.28 72.67 75.1 72.67C70.48 72.62 65.85 72.63 61.21 72.63Z" fill="#FA7166"/>
<path d="M79.96 38.06C73.31 38.06 66.66 38.06 59.96 38.06C58.1 38.06 55.79 38.06 55.82 35.62C55.82 33.4 58.02 33.02 59.97 33.02C73.27 33.02 86.5767 33.02 99.89 33.02C101.77 33.02 103.89 33.29 103.74 35.79C103.6 37.97 101.55 37.99 99.88 38C93.23 38 86.58 38 79.88 38L79.96 38.06Z" fill="#FA7166"/>
<path d="M58.99 84.12H70.9101C72.6501 84.12 74.43 84.35 74.49 86.59C74.54 88.44 73.01 89.25 71.49 89.26C63.0634 89.32 54.6301 89.28 46.1901 89.14C44.7301 89.14 43.06 88.47 43.26 86.49C43.46 84.51 45.04 84.21 46.58 84.19C50.72 84.12 54.86 84.19 59 84.19L58.99 84.12Z" fill="#FA7166"/>
<path d="M110.43 0.170009C116.99 -0.179991 122.54 1.64999 126.43 7.39999C127.442 8.92298 128.067 10.6703 128.25 12.49C128.5 14.55 128.72 16.97 126.11 17.27C124.01 17.51 123.51 15.42 123.01 13.51C121.54 7.96 117.94 5.3 112.19 5.13C110.03 5.07 107.86 5.12998 105.7 5.04998C104.11 4.96998 102.61 4.46999 102.7 2.48999C102.76 0.829985 104.09 0.300007 105.49 0.200007C107.1 0.0900073 108.77 0.170009 110.43 0.170009Z" fill="#FA7166"/>
<path d="M58.89 123.17C54.89 123.17 50.89 123.17 46.89 123.17C45.31 123.17 43.59 122.8 43.55 120.95C43.51 119.1 45.1301 118.19 46.9701 118.18C55.1201 118.18 63.2701 118.18 71.4101 118.18C73.1901 118.18 74.4101 119.03 74.4101 120.79C74.4801 122.79 72.96 123.16 71.33 123.16H58.89V123.17Z" fill="#FA7166"/>
<path d="M59.21 106.1H47.21C45.43 106.1 43.59 105.77 43.43 103.7C43.26 101.47 45.12 101.15 46.9 101.14C54.9 101.14 62.9 101.14 70.9 101.14C72.78 101.14 74.33 101.57 74.3 103.78C74.27 105.99 72.46 106.18 70.72 106.18H59.21V106.1Z" fill="#FA7166"/>
<path d="M46.3001 38C44.5601 38 42.8901 37.86 42.9501 35.45C43.0101 33.04 44.6501 32.79 46.3601 32.83C48.2201 32.83 50.4201 33.32 50.3601 35.55C50.3001 37.78 48.2101 38.05 46.3001 38Z" fill="#FA7166"/>
</svg>
